<svg width="40" height="41" viewBox="0 0 40 41" fill="none" xmlns="http://www.w3.org/2000/svg">
<path d="M20 40.1191C31.0457 40.1191 40 31.1648 40 20.1191C40 9.07345 31.0457 0.119141 20 0.119141C8.9543 0.119141 0 9.07345 0 20.1191C0 31.1648 8.9543 40.1191 20 40.1191Z" fill="#028ED5"/>
<path d="M9.39375 30.7266C7.64943 28.9824 6.36218 26.835 5.64604 24.4744C4.9299 22.1139 4.80696 19.6132 5.28812 17.1938C5.76928 14.7745 6.83968 12.5111 8.40452 10.6042C9.96935 8.69731 11.9803 7.20577 14.2593 6.2617C16.5382 5.31763 19.0148 4.95017 21.4697 5.19187C23.9246 5.43357 26.282 6.27697 28.3331 7.64735C30.3842 9.01774 32.0657 10.8728 33.2286 13.0483C34.3915 15.2237 34.9999 17.6524 35 20.1191C35.0001 23.0859 34.1205 25.986 32.4723 28.4528C30.8242 30.9196 28.4816 32.8423 25.7407 33.9777C22.9999 35.1131 19.9839 35.4103 17.0741 34.8316C14.1644 34.2529 11.4916 32.8244 9.39375 30.7266ZM9.365 20.1191C9.365 22.2226 9.98873 24.2787 11.1573 26.0276C12.3259 27.7766 13.9869 29.1397 15.9302 29.9446C17.8735 30.7495 20.0118 30.9602 22.0748 30.5498C24.1378 30.1394 26.0327 29.1266 27.5201 27.6392C29.0074 26.1519 30.0203 24.2569 30.4307 22.1939C30.841 20.1309 30.6304 17.9926 29.8255 16.0493C29.0205 14.106 27.6574 12.4451 25.9085 11.2765C24.1596 10.1079 22.1034 9.48415 20 9.48415C17.1805 9.48779 14.4776 10.6094 12.4839 12.6031C10.4903 14.5967 9.36864 17.2997 9.365 20.1191ZM23.26 24.8991L17.9025 20.8991L17.865 20.8579L17.7213 20.6954L17.615 20.5479L17.5538 20.3666L17.5125 20.1741L17.5 20.1191V16.1191C17.5162 15.8458 17.6361 15.589 17.8354 15.4012C18.0346 15.2134 18.2981 15.1088 18.5719 15.1088C18.8457 15.1088 19.1091 15.2134 19.3084 15.4012C19.5076 15.589 19.6276 15.8458 19.6438 16.1191V19.6354L24.6 23.3354C24.7083 23.4133 24.7991 23.5128 24.8667 23.6278C24.9343 23.7427 24.9772 23.8705 24.9926 24.003C25.008 24.1355 24.9956 24.2697 24.9562 24.3971C24.9168 24.5245 24.8513 24.6423 24.7638 24.7429C24.5773 24.9499 24.3207 25.0803 24.0436 25.1089C23.7665 25.1376 23.4886 25.0624 23.2638 24.8979L23.26 24.8991Z" fill="white"/>
</svg>
