<svg width="57" height="57" viewBox="0 0 57 57" fill="none" xmlns="http://www.w3.org/2000/svg">
<path d="M25.3739 55.3099C38.8352 55.3099 49.7477 43.1382 49.7477 28.1237C49.7477 13.1091 38.8352 0.937439 25.3739 0.937439C11.9126 0.937439 1 13.1091 1 28.1237C1 43.1382 11.9126 55.3099 25.3739 55.3099Z" fill="#B5B3AF" stroke="#A4A4A4" stroke-width="1.87491" stroke-linecap="round"/>
<path d="M19.7491 5.62476H12.1911M18.8117 49.6852H11.2537M15.0618 10.312H7.50383M12.2495 15.9368H4.69146M14.1244 44.0605H6.56637M10.3746 22.499H2.81655M10.3746 37.4983H2.81655M9.4371 29.9986H1.87909" stroke="#D1D1D1" stroke-width="1.87491" stroke-linecap="square"/>
<path d="M31.9361 56.2474C45.3974 56.2474 56.3099 43.656 56.3099 28.1237C56.3099 12.5914 45.3974 0 31.9361 0C18.4747 0 7.56219 12.5914 7.56219 28.1237C7.56219 43.656 18.4747 56.2474 31.9361 56.2474Z" fill="#E0E0E0"/>
<path d="M31.9361 48.7477C41.7732 48.7477 49.7477 39.514 49.7477 28.1237C49.7477 16.7333 41.7732 7.49963 31.9361 7.49963C22.0989 7.49963 14.1244 16.7333 14.1244 28.1237C14.1244 39.514 22.0989 48.7477 31.9361 48.7477Z" stroke="#9C9C9C" stroke-width="1.87491" stroke-linecap="round" stroke-dasharray="1.87 6.56"/>
</svg>
