<svg width="90" height="57" viewBox="0 0 90 96" fill="none" xmlns="http://www.w3.org/2000/svg">
<g opacity="0.8">
<path d="M33.2098 15.2161L82.3738 18.2436C86.1676 18.4772 89.0521 21.7566 88.8175 25.5673L85.0384 86.9358C84.7336 91.887 80.4916 95.6544 75.5635 95.3511L28.4531 92.4501C24.6595 92.2164 21.7748 88.9371 22.0095 85.1262L25.9156 21.6944C26.1503 17.8831 29.4163 14.9824 33.2098 15.2161Z" fill="#535353"/>
<path d="M28.4422 92.4494L75.7244 95.3612L76.4426 83.6987L29.1611 80.7872C25.3596 80.5529 22.4608 77.7416 22.6598 74.51L21.9424 86.1605C21.7419 89.4041 24.6545 92.2163 28.4422 92.4494Z" fill="#3E3E3E"/>
<path d="M82.3329 18.2412C86.1489 18.4762 89.0516 21.7607 88.8167 25.5763L85.0329 87.0241C84.7275 91.9816 80.4615 95.7526 75.504 95.4475L73.2812 95.3104L78.0435 17.9771L82.3329 18.2412Z" fill="#4F4F4F"/>
<path d="M29.0658 80.6712L76.1795 83.5725C78.9692 83.7444 81.1124 85.8057 80.9663 88.1769C80.8202 90.5481 78.4403 92.331 75.6509 92.1591L28.5404 89.2581C24.8045 89.028 21.9396 86.2686 22.1349 83.0964L22.6637 74.5098C22.4683 77.682 25.3332 80.4414 29.0658 80.6712Z" fill="white"/>
<path d="M22.5837 76.1038L22.3712 79.5544C22.1365 83.3647 25.0356 86.6449 28.8531 86.8801L80.3319 90.0502C81.3171 88.912 81.0168 87.295 80.7279 86.611L29.0615 83.4292C25.2481 83.1943 22.349 79.9144 22.5837 76.1038Z" fill="#DFDFDF"/>
<path d="M42.6793 53.2743L47.6428 53.58C48.2359 53.6163 48.7534 53.049 48.7987 52.3125C48.844 51.5763 48.4003 50.9496 47.8072 50.9133L42.8437 50.6076C42.2506 50.571 41.7331 51.1383 41.6878 51.8748C41.6422 52.611 42.0862 53.2377 42.6793 53.2743Z" fill="#747474"/>
<path d="M41.6939 69.2739L46.6574 69.5796C47.2505 69.6162 47.7557 69.2478 47.786 68.757C47.8163 68.2659 47.36 67.8384 46.7669 67.8018L41.8034 67.4964C41.2103 67.4598 40.7051 67.8282 40.6748 68.319C40.6445 68.8101 41.1008 69.2376 41.6939 69.2739Z" fill="#747474"/>
<path d="M55.0339 1.35902L6.746 11.0823C3.01997 11.8325 0.610908 15.4756 1.36455 19.2184L13.5015 79.4934C14.4807 84.3564 19.198 87.5082 24.0384 86.5335L70.3093 77.2167C74.0353 76.4664 76.4443 72.8232 75.6907 69.0804L63.1456 6.7789C62.392 3.03544 58.7599 0.608751 55.0339 1.35902Z" fill="#717171"/>
<path d="M70.318 77.2145L23.8782 86.5655L21.5718 75.1109L68.0107 65.7599C71.7445 65.0081 74.2315 61.8269 73.5925 58.6526L75.8965 70.0958C76.5388 73.2812 74.0383 76.4654 70.318 77.2145Z" fill="#3E3E3E"/>
<path d="M6.7865 11.0741C3.03824 11.8289 0.611931 15.4795 1.36654 19.2271L13.5191 79.5798C14.4996 84.4491 19.2413 87.6012 24.1106 86.6208L26.2936 86.1813L10.9993 10.2258L6.7865 11.0741Z" fill="#4F4F4F"/>
<path d="M13.3955 9.74292L10.9995 10.2254L26.2815 86.1197L28.6775 85.6373L13.3955 9.74292Z" fill="#282A2C"/>
<path d="M68.09 65.6318L21.8158 74.9495C19.0759 75.5012 17.2349 77.8364 17.7038 80.1653C18.1728 82.4942 20.7741 83.9348 23.514 83.3831L69.785 74.066C73.4543 73.3271 75.9149 70.202 75.2876 67.0862L73.5893 58.6526C74.2166 61.7681 71.756 64.8935 68.09 65.6318Z" fill="white"/>
<path d="M73.8879 60.2207L74.5704 63.6098C75.324 67.3526 72.9009 70.9982 69.1515 71.7533L18.5899 81.9344C17.4584 80.9414 17.5347 79.2986 17.7271 78.5816L68.4729 68.3633C72.2184 67.6091 74.6415 63.9635 73.8879 60.2207Z" fill="#DFDFDF"/>
<path d="M24.6118 30.9085L22.4018 19.9333C22.2839 19.3477 22.6634 18.7774 23.2492 18.6595L35.0963 16.274C35.6822 16.156 36.2528 16.5351 36.3707 17.1206L38.5805 28.0959C38.6984 28.6815 38.3192 29.2517 37.7333 29.3697L25.8862 31.7551C25.3004 31.8733 24.7298 31.4941 24.6118 30.9085Z" fill="#464D50"/>
<path d="M31.1168 63.2115L28.9067 52.2363C28.7888 51.6507 29.1683 51.0804 29.7541 50.9625L41.6012 48.5769C42.1871 48.459 42.7577 48.8379 42.8756 49.4235L45.0854 60.3987C45.2036 60.9843 44.8241 61.5546 44.2382 61.6725L32.3912 64.0581C31.8053 64.176 31.2347 63.7971 31.1168 63.2115Z" fill="#464D50"/>
<path d="M27.9344 47.426L25.5771 35.7191C25.4513 35.0945 25.8244 34.4924 26.4103 34.3745L38.2573 31.9889C38.8432 31.871 39.4202 32.2817 39.5459 32.9063L41.9033 44.6132C42.029 45.2381 41.6561 45.8399 41.0702 45.9578L29.223 48.3434C28.6372 48.4613 28.0602 48.0506 27.9344 47.426Z" fill="#BBBBBB"/>
<path d="M47.5099 23.7666L42.6349 24.7482C42.0523 24.8655 41.4622 24.3743 41.3164 23.651C41.1709 22.9276 41.5249 22.2464 42.1075 22.1291L46.9825 21.1474C47.5651 21.0302 48.1552 21.5214 48.301 22.2446C48.4465 22.9679 48.0925 23.6493 47.5099 23.7666Z" fill="#747474"/>
<path d="M50.8536 40.3546L45.9786 41.3362C45.396 41.4535 44.8059 40.9624 44.6601 40.2391C44.5146 39.5158 44.8686 38.8345 45.4512 38.7172L50.3262 37.7353C50.9088 37.618 51.4989 38.1094 51.6447 38.8327C51.7902 39.556 51.4362 40.2373 50.8536 40.3546Z" fill="#747474"/>
<path d="M54.0139 56.0695L49.1386 57.0511C48.5563 57.1684 48.0055 56.8726 47.9083 56.3905C47.8111 55.9084 48.2047 55.4224 48.787 55.3051L53.6623 54.3235C54.2446 54.2062 54.7957 54.502 54.8926 54.9841C54.9898 55.4662 54.5962 55.9522 54.0139 56.0695Z" fill="#747474"/>
<path d="M55.326 17.6517L41.7999 20.3752C41.1954 20.497 40.5873 20.0093 40.4418 19.2861C40.296 18.5626 40.668 17.8778 41.2725 17.7561L54.7986 15.0325C55.4031 14.9108 56.0112 15.3985 56.1567 16.1217C56.3025 16.845 55.9305 17.53 55.326 17.6517Z" fill="#3A3A3A"/>
<path d="M58.6613 34.2395L45.1355 36.9629C44.531 37.0847 43.9229 36.5972 43.7771 35.8739C43.6316 35.1506 44.0036 34.4654 44.6081 34.3439L58.1339 31.6202C58.7384 31.4984 59.3465 31.9862 59.492 32.7095C59.6378 33.4328 59.2658 34.1177 58.6613 34.2395Z" fill="#3A3A3A"/>
<path d="M62.0054 50.8276L48.4796 53.5513C47.8751 53.6728 47.267 53.1853 47.1215 52.462C46.9757 51.7384 47.3477 51.0538 47.9522 50.932L61.478 48.2083C62.0825 48.0868 62.6906 48.5743 62.8364 49.2976C62.9819 50.0209 62.6099 50.7058 62.0054 50.8276Z" fill="#3A3A3A"/>
</g>
</svg>
