<svg width="73" height="57" viewBox="0 0 73 91" fill="none" xmlns="http://www.w3.org/2000/svg">
<path d="M63 0.119141H9C4.02944 0.119141 0 4.28752 0 9.42949V80.8088C0 85.9508 4.02944 90.1191 9 90.1191H63C67.9706 90.1191 72 85.9508 72 80.8088V9.42949C72 4.28752 67.9706 0.119141 63 0.119141Z" fill="#028ED5"/>
<path d="M63.2219 0.119141H9.0317C4.04363 0.119141 0 4.16277 0 9.15084V78.3939C0 83.382 4.04363 87.4256 9.0317 87.4256H63.2219C68.21 87.4256 72.2536 83.382 72.2536 78.3939V9.15084C72.2536 4.16277 68.21 0.119141 63.2219 0.119141Z" fill="#028ED5"/>
<path d="M66.0199 11.0774C65.714 10.29 65.0913 9.66729 64.3039 9.36137C63.9595 9.22228 63.5915 9.15073 63.2201 9.15063H9.02985C7.36922 9.15559 6.02425 10.5006 6.01929 12.1612V75.3831C6.0213 75.5291 6.03135 75.6748 6.04939 75.8196C6.1354 76.4358 6.42091 77.0068 6.86225 77.4453C7.41762 78.0545 8.20553 78.3992 9.02985 78.3937H63.2201C64.8807 78.3887 66.2257 77.0437 66.2306 75.3831V12.1612C66.2305 11.7898 66.159 11.4218 66.0199 11.0774Z" fill="#4AC7FF"/>
<path d="M36.1268 85.5499C37.6336 85.5499 38.8551 84.3284 38.8551 82.8216C38.8551 81.3148 37.6336 80.0933 36.1268 80.0933C34.6199 80.0933 33.3984 81.3148 33.3984 82.8216C33.3984 84.3284 34.6199 85.5499 36.1268 85.5499Z" fill="#11516D"/>
<path d="M33.905 51.0593H15.5978C13.2761 51.0593 13.2761 46.6463 13.2761 46.6463V24.2665C13.2761 22.9842 14.3155 21.9448 15.5978 21.9448H35.9965V47.6701L38.0879 48.3255L35.9965 48.9677L33.905 51.0593Z" fill="#F29B2B"/>
<path d="M13.2761 46.6467V50.8296C13.2761 52.1119 14.3155 53.1513 15.5978 53.1513H35.9965L38.0879 51.0599L35.9965 48.9686H15.5978C14.3155 48.9684 13.2761 47.9288 13.2761 46.6467Z" fill="#F29B2B"/>
<path d="M38.0886 51.0593H56.3959C58.7175 51.0593 58.7175 46.6463 58.7175 46.6463V24.2665C58.7175 22.9842 57.6782 21.9448 56.3959 21.9448H35.9971V48.9677L38.0886 51.0593Z" fill="#10516D"/>
<path d="M56.3959 48.9684H35.9971V53.1513H56.3959C57.6779 53.1513 58.7175 52.1119 58.7175 50.8296V46.6467C58.7175 47.9288 57.6779 48.9684 56.3959 48.9684Z" fill="#10516D"/>
<path d="M51.5103 21.5945C41.5347 15.6646 35.9975 21.945 35.9975 21.945C35.9975 21.945 30.46 15.6646 20.4846 21.5945C20.1312 21.8045 19.9126 22.1856 19.9126 22.5969V43.4876L21.4315 44.6949C27.9551 40.1203 34.3823 44.3993 34.3823 44.3993L35.9975 43.4876L37.6127 44.3993C37.6127 44.3993 44.0398 40.1203 50.5635 44.6949L52.0823 43.4876V22.5969C52.0823 22.1856 51.864 21.8047 51.5103 21.5945Z" fill="#F2FDFF"/>
<path d="M35.9975 43.4877C35.9975 43.4877 30.2482 36.9672 19.9126 43.4877V45.6612C19.9126 46.5286 20.8327 47.0979 21.6017 46.6965C30.8727 41.8583 35.9975 47.6706 35.9975 47.6706C35.9975 47.6706 41.1223 41.8583 50.3933 46.6965C51.1623 47.0979 52.0823 46.5286 52.0823 45.6612V43.4877C41.7467 36.967 35.9975 43.4877 35.9975 43.4877Z" fill="#F2FDFF"/>
<path d="M40.8221 6.00459C41.5528 6.00459 42.1448 5.41254 42.1448 4.68186C42.1448 3.95118 41.5526 3.35913 40.8221 3.35913H35.4729C34.7422 3.35913 34.1501 3.95118 34.1501 4.68186C34.1501 5.41254 34.7424 6.00459 35.4729 6.00459H40.8221Z" fill="#11516C"/>
<path d="M32.3117 4.69175C32.3117 3.95578 31.7151 3.35913 30.9791 3.35913C30.2431 3.35913 29.6465 3.95578 29.6465 4.69175C29.6465 5.42789 30.2431 6.02437 30.9791 6.02437C31.7151 6.02437 32.3117 5.42772 32.3117 4.69175Z" fill="#11516D"/>
<line x1="15.7986" y1="58.6423" x2="56.4518" y2="58.6423" stroke="white" stroke-width="3" stroke-linecap="round"/>
<line x1="21.2568" y1="66.8274" x2="53.7251" y2="66.8274" stroke="white" stroke-width="3" stroke-linecap="round"/>
</svg>
