<svg width="70" height="57" viewBox="0 0 70 87" fill="none" xmlns="http://www.w3.org/2000/svg">
<g opacity="0.9">
<path d="M14.8564 9H62.9467C65.9204 9 68.3314 11.4345 68.3314 14.4375V70.4063C68.3314 77.9138 62.3044 84 54.8698 84H14.8564V9Z" fill="#737373"/>
<path d="M14.8564 4H62.9467C65.9204 4 68.3314 6.43445 68.3314 9.4375V75.5625C68.3314 78.5656 65.9204 81 62.9467 81H14.8564V4Z" fill="#7A7A7A"/>
<path d="M0 75.118C-5.19963e-07 78.1211 2.41077 80.5555 5.38461 80.5555H15.9544L15.9544 8.05555C15.9544 3.60659 12.3829 7.77889e-07 7.97723 0C3.57153 -7.77861e-07 1.23819e-05 3.60659 1.16115e-05 8.05555L0 75.118Z" fill="#4F4F4F"/>
<path fill-rule="evenodd" clip-rule="evenodd" d="M15.6923 81.0002C15.8633 80.3439 15.9544 79.6547 15.9544 78.9443C15.9544 74.4953 12.3829 70.8889 7.9772 70.8889C3.57151 70.8889 0 74.4953 0 78.9443C0 83.375 3.54208 86.97 7.92268 86.9997V87H49.5142C52.7956 87 55.4559 84.3138 55.4559 81.0002H15.6923Z" fill="#282A2C"/>
<path d="M54.2444 12.8889H26.5901C23.653 12.8889 21.272 15.2933 21.272 18.2593C21.272 21.2253 23.653 23.6297 26.5901 23.6297H54.2444C57.1815 23.6297 59.5625 21.2253 59.5625 18.2593C59.5625 15.2933 57.1815 12.8889 54.2444 12.8889Z" fill="#57524C"/>
<path d="M33.969 29H26.6566C23.6827 29 21.272 31.4345 21.272 34.4375V38.5995C21.272 41.6026 23.6827 44.037 26.6566 44.037H33.969C36.9429 44.037 39.3536 41.6026 39.3536 38.5995V34.4375C39.3536 31.4345 36.9429 29 33.969 29Z" fill="#363636"/>
<path d="M57.9662 28.9998H43.0754C42.1943 28.9998 41.48 29.7211 41.48 30.6109V30.6109C41.48 31.5007 42.1943 32.222 43.0754 32.222H57.9662C58.8473 32.222 59.5617 31.5007 59.5617 30.6109C59.5617 29.7211 58.8473 28.9998 57.9662 28.9998Z" fill="white"/>
<path d="M58.498 35.4443H42.5436C41.9562 35.4443 41.48 35.9252 41.48 36.5184C41.48 37.1116 41.9562 37.5925 42.5436 37.5925H58.498C59.0855 37.5925 59.5617 37.1116 59.5617 36.5184C59.5617 35.9252 59.0855 35.4443 58.498 35.4443Z" fill="white"/>
<path d="M57.9662 40.8149H43.0754C42.1943 40.8149 41.48 41.5363 41.48 42.4261V42.4261C41.48 43.3159 42.1943 44.0372 43.0754 44.0372H57.9662C58.8473 44.0372 59.5617 43.3159 59.5617 42.4261C59.5617 41.5363 58.8473 40.8149 57.9662 40.8149Z" fill="white"/>
<path d="M46.865 62.2961H54.1774C57.1512 62.2961 59.562 59.8617 59.562 56.8586V54.8448C59.562 51.8417 57.1512 49.4073 54.1774 49.4073H46.865C43.8911 49.4073 41.4803 51.8417 41.4803 54.8448V56.8586C41.4803 59.8617 43.8911 62.2961 46.865 62.2961Z" fill="#E0E0E0"/>
<path d="M22.3374 62.2961H38.2918C38.8793 62.2961 39.3555 61.8153 39.3555 61.2221C39.3555 60.6289 38.8793 60.148 38.2918 60.148H22.3374C21.75 60.148 21.2738 60.6289 21.2738 61.2221C21.2738 61.8153 21.75 62.2961 22.3374 62.2961Z" fill="white"/>
<path d="M22.3374 56.9258H38.2918C38.8793 56.9258 39.3555 56.4449 39.3555 55.8517C39.3555 55.2585 38.8793 54.7776 38.2918 54.7776H22.3374C21.75 54.7776 21.2738 55.2585 21.2738 55.8517C21.2738 56.4449 21.75 56.9258 22.3374 56.9258Z" fill="white"/>
<path d="M22.3374 51.5554H38.2918C38.8793 51.5554 39.3555 51.0745 39.3555 50.4813C39.3555 49.8882 38.8793 49.4073 38.2918 49.4073H22.3374C21.75 49.4073 21.2738 49.8882 21.2738 50.4813C21.2738 51.0745 21.75 51.5554 22.3374 51.5554Z" fill="white"/>
</g>
</svg>
