<svg width="72" height="57" viewBox="0 0 72 87" fill="none" xmlns="http://www.w3.org/2000/svg">
<g opacity="0.8">
<path d="M61.8291 0H7.57912C3.39307 0 0 3.4763 0 7.76328V76.8028C0 82.373 4.40797 86.888 9.84597 86.888H61.8296C66.0157 86.888 69.4088 83.4118 69.4088 79.1249V7.76407C69.4088 3.4763 66.0149 0 61.8291 0Z" fill="#727B7E"/>
<path d="M61.8401 86.888H9.6665V73.7678H61.8393C66.034 73.7678 69.4108 70.8172 69.4108 67.1814V80.2885C69.4116 83.9373 66.0196 86.888 61.8401 86.888Z" fill="#0E0E0E"/>
<path d="M7.62437 0C3.41333 0 0 3.48079 0 7.77329V76.9017C0 82.479 4.43429 87 9.90475 87H12.3573V0H7.62437Z" fill="#4F4F4F"/>
<path d="M15.0458 0H12.354V86.9301H15.0458V0Z" fill="#282A2C"/>
<path d="M61.957 73.645H9.96957C6.89136 73.645 4.396 75.8074 4.396 78.4751C4.396 81.1427 6.89136 83.3052 9.96957 83.3052H61.9532C66.0759 83.3052 69.4119 80.4103 69.4119 76.8417V67.1814C69.4119 70.75 66.0759 73.645 61.957 73.645Z" fill="white"/>
<path d="M69.3844 68.9731V72.855C69.3844 77.1416 65.9753 80.6178 61.7631 80.6178H4.95895C3.95311 79.2742 4.39263 77.4828 4.75631 76.736H61.7676C65.9753 76.736 69.3844 73.2598 69.3844 68.9731Z" fill="#DFDFDF"/>
<path d="M55.9355 24.5735C54.0515 22.5995 51.5392 21.448 48.8699 21.448C46.2008 21.448 43.5315 22.5995 41.6475 24.5735L41.0192 25.2315L40.3912 24.5735C36.4659 20.461 30.0285 20.461 26.1032 24.5735C24.062 26.5475 22.9629 29.3441 22.9629 32.1406C22.9629 34.9371 24.062 37.7336 25.9461 39.7077L39.7632 54.1837C40.0773 54.5126 40.3912 54.6771 40.8624 54.6771C41.3333 54.6771 41.6475 54.5126 41.9613 54.1837L55.7784 39.7077C57.6627 37.7336 58.7619 34.9371 58.7619 32.1406C59.0757 29.3441 57.9768 26.5475 55.9355 24.5735Z" fill="black"/>
<mask id="mask0_4302_20673" style="mask-type:alpha" maskUnits="userSpaceOnUse" x="22" y="21" width="37" height="34">
<path d="M55.9355 24.5735C54.0515 22.5995 51.5392 21.448 48.8699 21.448C46.2008 21.448 43.5315 22.5995 41.6475 24.5735L41.0192 25.2315L40.3912 24.5735C36.4659 20.461 30.0285 20.461 26.1032 24.5735C24.062 26.5475 22.9629 29.3441 22.9629 32.1406C22.9629 34.9371 24.062 37.7336 25.9461 39.7077L39.7632 54.1837C40.0773 54.5126 40.3912 54.6771 40.8624 54.6771C41.3333 54.6771 41.6475 54.5126 41.9613 54.1837L55.7784 39.7077C57.6627 37.7336 58.7619 34.9371 58.7619 32.1406C59.0757 29.3441 57.9768 26.5475 55.9355 24.5735Z" fill="white"/>
</mask>
<g mask="url(#mask0_4302_20673)">
<path d="M60.4447 18.125H21.3335V58.0001H60.4447V18.125Z" fill="#464646"/>
</g>
</g>
</svg>
