<svg width="76" height="57" viewBox="0 0 76 87" fill="none" xmlns="http://www.w3.org/2000/svg">
<g clip-path="url(#clip0_4302_20618)">
<path d="M69.8857 8H70.4473C73.4455 8 75.8759 10.4345 75.8759 13.4375V14.5625C75.8759 17.5655 73.4455 20 70.4473 20H69.8857V8Z" fill="#777777"/>
<path d="M69.8857 21H70.4473C73.4455 21 75.8759 23.4345 75.8759 26.4375V27.5625C75.8759 30.5656 73.4455 33 70.4473 33H69.8857V21Z" fill="#7A7774"/>
<path d="M69.8857 55H70.4473C73.4455 55 75.8759 57.4344 75.8759 60.4375V60.5626C75.8759 63.5654 73.4455 66.0001 70.4473 66.0001H69.8857V55Z" fill="#7A7774"/>
<path d="M62.9332 0H7.71446C3.45366 0 0 3.4763 0 7.76328V76.8028C0 82.373 4.48669 86.888 10.0218 86.888H62.9337C67.1946 86.888 70.6482 83.4118 70.6482 79.1249V7.76407C70.6482 3.4763 67.1938 0 62.9332 0Z" fill="#6A6A6A"/>
<path d="M62.9446 86.888H9.83936V73.7678H62.9438C67.2134 73.7678 70.6505 70.8172 70.6505 67.1814V80.2885C70.6513 83.9373 67.1987 86.888 62.9446 86.888Z" fill="#4D4D4D"/>
<path d="M7.76052 0C3.47429 0 0 3.48079 0 7.77329V76.9017C0 82.479 4.51348 87 10.0816 87H12.578V0H7.76052Z" fill="#4F4F4F"/>
<path d="M15.3146 0H12.5747V86.9301H15.3146V0Z" fill="#282A2C"/>
<path d="M63.063 73.645H10.1472C7.01404 73.645 4.47412 75.8074 4.47412 78.4751C4.47412 81.1427 7.01404 83.3052 10.1472 83.3052H63.0592C67.2554 83.3052 70.651 80.4103 70.651 76.8417V67.1814C70.651 70.75 67.2554 73.645 63.063 73.645Z" fill="white"/>
<path d="M70.6235 68.9731V72.855C70.6235 77.1416 67.1538 80.6178 62.866 80.6178H5.04763C4.02383 79.2742 4.4712 77.4828 4.84137 76.736H62.8707C67.1538 76.736 70.6235 73.2598 70.6235 68.9731Z" fill="#DFDFDF"/>
<path d="M18.7808 3.52124H65.2833V23.2278H18.7808V3.52124Z" fill="white"/>
<path d="M40.2427 3.52124H65.2825V23.2278H40.2427V3.52124Z" fill="#D7DADF"/>
<path d="M45.6074 12.4788H59.0217V15.166H45.6074V12.4788Z" fill="#C2C2C4"/>
<path d="M26.8267 17.8533H59.021V20.5405H26.8267V17.8533Z" fill="#C6C6C6"/>
</g>
<defs>
<clipPath id="clip0_4302_20618">
<rect width="76" height="87" fill="white"/>
</clipPath>
</defs>
</svg>
