<svg width="123" height="73" viewBox="0 0 123 73" fill="none" xmlns="http://www.w3.org/2000/svg">
<rect x="42.1406" y="32.9225" width="1.37385" height="1.37385" fill="#918F8F"/>
<rect x="43.7598" y="32.9225" width="1.36478" height="1.37385" fill="#918F8F"/>
<rect x="45.3691" y="32.9225" width="1.37385" height="1.37385" fill="#918F8F"/>
<rect x="46.9824" y="32.9225" width="1.36932" height="1.37385" fill="#918F8F"/>
<rect x="42.1406" y="31.3356" width="1.37385" height="1.37385" fill="#918F8F"/>
<rect x="43.7598" y="31.3356" width="1.36478" height="1.37385" fill="#918F8F"/>
<rect x="45.3691" y="31.3356" width="1.37385" height="1.37385" fill="#918F8F"/>
<rect x="46.9824" y="31.3356" width="1.36932" height="1.37385" fill="#918F8F"/>
<rect x="50.207" y="31.3356" width="1.37385" height="1.37385" fill="#918F8F"/>
<rect x="42.1406" y="29.7577" width="1.37385" height="1.36932" fill="#918F8F"/>
<rect x="43.7598" y="29.7577" width="1.36478" height="1.36932" fill="#918F8F"/>
<rect x="46.9824" y="29.7577" width="1.36932" height="1.36932" fill="#918F8F"/>
<rect x="48.5918" y="29.7577" width="1.37385" height="1.36932" fill="#918F8F"/>
<rect x="50.207" y="29.7577" width="1.37385" height="1.36932" fill="#918F8F"/>
<rect x="43.7598" y="28.1707" width="1.36478" height="1.36932" fill="#918F8F"/>
<rect x="45.3691" y="28.1707" width="1.37385" height="1.36932" fill="#918F8F"/>
<rect x="46.9824" y="28.1707" width="1.36932" height="1.36932" fill="#918F8F"/>
<rect x="48.5918" y="28.1707" width="1.37385" height="1.36932" fill="#918F8F"/>
<rect x="51.8164" y="28.1707" width="1.37839" height="1.36932" fill="#918F8F"/>
<rect x="43.7598" y="26.5929" width="1.36478" height="1.37385" fill="#918F8F"/>
<rect x="45.3691" y="26.5929" width="1.37385" height="1.37385" fill="#918F8F"/>
<rect x="46.9824" y="26.5929" width="1.36932" height="1.37385" fill="#918F8F"/>
<rect x="48.5918" y="26.5929" width="1.37385" height="1.37385" fill="#918F8F"/>
<rect x="50.207" y="26.5929" width="1.37385" height="1.37385" fill="#918F8F"/>
<rect x="51.8164" y="26.5929" width="1.37839" height="1.37385" fill="#918F8F"/>
<rect x="53.4297" y="26.5929" width="1.37385" height="1.37385" fill="#918F8F"/>
<rect x="56.6582" y="26.5929" width="1.37385" height="1.37385" fill="#918F8F"/>
<rect x="46.9824" y="25.0104" width="1.36932" height="1.37385" fill="#918F8F"/>
<rect x="48.5918" y="25.0104" width="1.37385" height="1.37385" fill="#918F8F"/>
<rect x="51.8164" y="25.0104" width="1.37839" height="1.37385" fill="#918F8F"/>
<rect x="55.0449" y="25.0104" width="1.37385" height="1.37385" fill="#918F8F"/>
<rect x="45.3691" y="23.428" width="1.37385" height="1.37385" fill="#918F8F"/>
<rect x="46.9824" y="23.428" width="1.36932" height="1.37385" fill="#918F8F"/>
<rect x="48.5918" y="23.428" width="1.37385" height="1.37385" fill="#918F8F"/>
<rect x="50.207" y="23.428" width="1.37385" height="1.37385" fill="#918F8F"/>
<rect x="51.8164" y="23.428" width="1.37839" height="1.37385" fill="#918F8F"/>
<rect x="55.0449" y="23.428" width="1.37385" height="1.37385" fill="#918F8F"/>
<rect x="63.1016" y="23.428" width="1.37839" height="1.37385" fill="#918F8F"/>
<rect x="46.9824" y="21.8411" width="1.36932" height="1.37385" fill="#918F8F"/>
<rect x="50.207" y="21.8411" width="1.37385" height="1.37385" fill="#918F8F"/>
<rect x="53.4297" y="21.8411" width="1.37385" height="1.37385" fill="#918F8F"/>
<rect x="56.6582" y="21.8411" width="1.37385" height="1.37385" fill="#918F8F"/>
<rect x="51.8164" y="20.2586" width="1.37839" height="1.37385" fill="#918F8F"/>
<rect x="55.0449" y="20.2586" width="1.37385" height="1.37385" fill="#918F8F"/>
<rect x="53.4297" y="18.6808" width="1.37385" height="1.37385" fill="#918F8F"/>
<rect x="56.6582" y="18.6808" width="1.37385" height="1.37385" fill="#918F8F"/>
<rect x="59.8789" y="18.6808" width="1.37385" height="1.37385" fill="#918F8F"/>
<rect x="51.8164" y="17.0938" width="1.37839" height="1.37385" fill="#918F8F"/>
<rect x="59.8789" y="15.5114" width="1.37385" height="1.37385" fill="#918F8F"/>
<rect x="64.7168" y="15.5114" width="1.37385" height="1.37385" fill="#918F8F"/>
<rect x="59.8789" y="13.929" width="1.37385" height="1.37385" fill="#918F8F"/>
<rect x="59.8789" y="12.3465" width="1.37385" height="1.37385" fill="#918F8F"/>
<rect x="61.4961" y="10.7641" width="1.36932" height="1.37385" fill="#918F8F"/>
<rect x="38.3809" y="29.8711" width="3.50944" height="0.657453" fill="#231F20"/>
<path fill-rule="evenodd" clip-rule="evenodd" d="M41.9279 34.5594H47.8223C46.1855 36.373 42.3315 39.4925 33.6123 42.5894C18.1372 48.0893 3.02028 41.4876 11.871 28.9234C20.5221 16.6222 34.2289 13.7204 35.6662 13.5073C37.1036 13.2942 39.4885 13.1173 38.3233 13.4755C37.158 13.8337 34.977 14.7315 35.0995 15.0579C35.1963 15.3161 36.1096 15.149 36.8844 15.0072C37.0894 14.9697 37.2848 14.9339 37.4527 14.9083C38.2552 14.7859 38.2643 15.3617 37.7837 15.5975C37.5665 15.7041 37.3697 15.7143 37.2464 15.7207C37.0968 15.7285 37.0554 15.7307 37.2169 15.8922C37.5116 16.187 37.3393 16.4001 36.8587 16.6132C36.6694 16.6971 36.3478 16.7325 36.0015 16.7706C35.4686 16.8293 34.8772 16.8944 34.6188 17.1527C34.1926 17.5789 35.4531 17.5653 36.3509 17.2071C37.0038 16.8872 37.7188 16.7139 38.4457 16.6993C39.0156 16.6555 38.9548 16.8331 38.8874 17.0303C38.8362 17.1799 38.7812 17.3407 38.9943 17.4248C39.2184 17.5132 39.8352 17.4664 40.3835 17.4248C41.0443 17.3747 41.6058 17.332 41.2614 17.5427C40.9705 17.7206 41.2022 17.8173 41.4125 17.9051C41.6579 18.0076 41.8742 18.0979 41.1979 18.2908C41.0084 18.3449 40.5794 18.4204 39.9566 18.5301C36.4522 19.1471 26.811 20.8446 19.1574 25.8765C10.1434 31.8026 8.94189 44.0131 24.29 40.9797C35.4803 38.7625 40.1596 33.6525 41.878 31.0499V34.5594H41.9279ZM35.0405 18.3452C34.4631 18.2811 34.3484 18.4131 34.2488 18.5277C34.2147 18.567 34.1823 18.6042 34.1337 18.6309C33.9433 18.7352 34.6415 18.8848 35.24 18.8621C35.8385 18.8394 35.8385 18.4359 35.0632 18.3452H35.0405ZM33.8161 15.6508C34.0087 15.5849 34.1372 15.541 34.4602 15.5748C34.4602 15.5748 35.1448 15.9602 34.4919 16.2278C33.9382 16.4523 33.3517 16.5856 32.7553 16.6222C32.0117 16.7174 32.4288 15.9285 33.177 15.8106C33.4954 15.7604 33.6734 15.6996 33.8161 15.6508Z" fill="#918F8F"/>
<path d="M22.3086 30.3789C22.3111 26.3372 25.5896 23.0628 29.6313 23.0653C33.673 23.0678 36.9474 26.3463 36.9449 30.3879C36.9424 34.4296 33.6639 37.7041 29.6222 37.7015C27.6809 37.7016 25.8193 36.9298 24.4475 35.5562C23.0757 34.1827 22.3062 32.3201 22.3086 30.3789Z" fill="#F68B1F"/>
<path d="M24.6613 27.205C24.3423 26.4818 24.6692 25.6368 25.392 25.3167C26.1147 24.9966 26.9601 25.3222 27.2813 26.0445C27.6026 26.7667 27.2783 27.6126 26.5566 27.935C25.8316 28.256 24.9835 27.9294 24.6613 27.205Z" fill="white"/>
<path d="M40.9796 13.4529C40.9796 13.1219 39.574 13.0947 39.3654 13.3939C39.1568 13.6932 38.4132 13.5753 38.3498 13.8473C38.2863 14.1194 38.98 14.0559 39.574 13.8201C40.168 13.5844 40.9796 13.7839 40.9796 13.4574" fill="#918F8F"/>
<path d="M42.0233 14.3778C41.8193 14.142 40.4409 14.0514 40.0237 14.2554C39.644 14.4686 39.2295 14.6129 38.7995 14.6816C38.532 14.6816 38.9219 15.0081 39.6383 15.0081C40.3547 15.0081 40.264 14.8267 40.9986 14.9446C41.7331 15.0625 42.25 14.6181 42.0414 14.3778" fill="#918F8F"/>
<path d="M40.0238 15.6292C39.2802 15.8106 39.117 15.9013 38.7089 15.992C38.3008 16.0827 38.6817 16.3774 39.5477 16.2005C40.0576 16.0746 40.5758 15.9852 41.0984 15.933C41.5201 15.9013 41.4566 15.5159 40.9488 15.4796C40.64 15.4687 40.332 15.5179 40.042 15.6247" fill="#918F8F"/>
<path d="M43.1888 15.3617C42.9621 15.0217 42.282 15.2439 41.9646 15.4252C41.6472 15.6066 41.7243 15.6293 42.2321 15.7199C42.74 15.8106 43.2024 15.5159 43.1888 15.3617Z" fill="#918F8F"/>
<path d="M45.037 16.0509C44.8511 15.9603 43.3684 16.1734 43.1281 16.1144C42.8878 16.0555 42.5614 16.3502 42.0535 16.3502C41.5457 16.3502 40.7432 16.3819 41.0379 16.7084C41.3326 17.0348 42.6248 16.858 43.1871 16.7356C43.7493 16.6132 44.3523 16.3502 44.8919 16.4726C45.4315 16.595 45.1141 16.0691 45.037 16.0509Z" fill="#918F8F"/>
<rect x="2.58398" y="29.8484" width="18.0324" height="0.657453" fill="#231F20"/>
<rect x="29.3086" y="39.9732" width="0.652919" height="18.0324" fill="#231F20"/>
<rect x="29.3086" y="2.58902" width="0.652919" height="18.0278" fill="#231F20"/>
<rect x="51.834" y="29.8711" width="52.2471" height="0.657453" fill="#231F20"/>
<path d="M104.027 30.1975C104.027 29.4713 104.616 28.8826 105.342 28.8826C106.068 28.8826 106.657 29.4713 106.657 30.1975C106.657 30.9237 106.068 31.5124 105.342 31.5124C104.616 31.5124 104.027 30.9237 104.027 30.1975" fill="#D82C25"/>
<path d="M28.3203 1.31037C28.3229 0.584168 28.9136 -0.00249757 29.6398 7.99588e-06C30.366 0.00251356 30.9526 0.593242 30.9501 1.31944C30.9476 2.04564 30.3569 2.63231 29.6307 2.62981C29.2816 2.62981 28.9469 2.49051 28.7009 2.24281C28.4549 1.9951 28.3179 1.65947 28.3203 1.31037Z" fill="#D82C25"/>
<path fill-rule="evenodd" clip-rule="evenodd" d="M50.3874 53.5349C50.4596 54.7435 49.999 55.9232 49.1269 56.7632C48.2835 57.5279 47.0034 57.9103 45.2864 57.9103H38.7754V44.3441H45.3409C47.014 44.3441 48.2291 44.6479 48.9682 45.2509C49.7296 45.9019 50.1423 46.8717 50.0836 47.8717C50.1237 48.474 49.9538 49.0717 49.603 49.5629C49.2816 49.9541 48.8913 50.2829 48.4513 50.5332C49.0289 50.7526 49.5278 51.1394 49.8841 51.6441C50.2457 52.2046 50.4233 52.864 50.3919 53.5303L50.3874 53.5349ZM46.3928 48.375C46.4027 48.0995 46.3143 47.8295 46.1434 47.6132C45.8971 47.3734 45.5551 47.2583 45.2139 47.3004H42.38V49.4541H45.2094C45.5395 49.4863 45.8681 49.3795 46.1162 49.1594C46.2955 48.9386 46.386 48.6589 46.3701 48.375H46.3928ZM46.3332 52.6278C46.5934 52.8818 46.7224 53.2414 46.683 53.6029H46.6966C46.7093 53.9511 46.593 54.2918 46.3701 54.5596C46.0995 54.831 45.7227 54.9687 45.3409 54.9359H42.38V52.3016H45.3499C45.7104 52.2534 46.073 52.3737 46.3332 52.6278Z" fill="#231F20"/>
<rect x="51.8926" y="44.3441" width="3.84497" height="13.5662" fill="#231F20"/>
<path d="M66.5518 57.9058L63.3099 53.4306C63.1557 53.222 62.9834 52.9772 62.7703 52.6643C62.5572 52.3514 62.3532 52.0567 62.1582 51.7575L61.5959 50.8914C61.4282 50.6239 61.2876 50.4108 61.1969 50.2567C61.2291 50.4715 61.2488 50.688 61.2559 50.905C61.2559 51.1862 61.2831 51.4854 61.2922 51.8119C61.3012 52.1383 61.2922 52.4829 61.2922 52.8321V57.9058H57.6875V44.3441H61.002L63.99 48.3523C64.1441 48.5609 64.33 48.8057 64.5386 49.1322C64.7472 49.4587 64.9648 49.7443 65.1689 50.039C65.3729 50.3337 65.5633 50.6421 65.7311 50.9096C65.8989 51.1771 66.0258 51.3902 66.0984 51.5308C66.0679 51.3158 66.0498 51.0994 66.044 50.8824C66.044 50.6058 66.0168 50.302 65.9986 49.9755C65.9805 49.6491 65.9986 49.309 65.9986 48.9599V44.3441H69.6033V57.9058H66.5518Z" fill="#231F20"/>
<path d="M82.8579 54.8634C82.3317 56.2919 81.1507 57.3801 79.684 57.7879C78.9123 58.0129 78.1119 58.1244 77.3081 58.1189C76.5072 58.1247 75.7098 58.0132 74.9413 57.7879C74.2461 57.5853 73.6069 57.2254 73.0732 56.736C72.5276 56.2125 72.1075 55.5723 71.8444 54.8634C71.5213 53.9843 71.3674 53.052 71.391 52.1157V44.3441H75.2677V52.1157C75.229 52.8104 75.4081 53.5 75.7801 54.088C76.1625 54.5873 76.7719 54.8587 77.3988 54.809C78.0208 54.8601 78.6254 54.5877 78.9993 54.088C79.3624 53.4966 79.5364 52.8086 79.4981 52.1157V44.3441H83.334V52.1157C83.3578 53.052 83.2039 53.9843 82.8806 54.8634" fill="#231F20"/>
<path d="M95.9114 53.7434C95.9285 54.4317 95.7857 55.1146 95.4943 55.7384C95.227 56.283 94.8261 56.751 94.329 57.0987C93.7926 57.4642 93.193 57.7271 92.5607 57.874C91.818 58.0498 91.0568 58.1351 90.2936 58.128C89.2171 58.1336 88.1463 57.9715 87.1197 57.6473C86.2142 57.3744 85.3495 56.981 84.5488 56.4775L86.3625 53.5303C86.6349 53.7195 86.9232 53.8849 87.224 54.0245C87.5565 54.1987 87.9003 54.3501 88.2532 54.478C88.6038 54.6069 88.9628 54.7115 89.3278 54.7908C89.6583 54.8652 89.9957 54.9047 90.3344 54.9087C90.8044 54.9421 91.276 54.874 91.7173 54.7092C91.9737 54.5859 92.1271 54.317 92.1027 54.0336C92.1015 53.9091 92.0637 53.7877 91.9939 53.6845C91.8916 53.5587 91.7632 53.4565 91.6176 53.3852C91.3935 53.2643 91.1581 53.1656 90.9148 53.0905C90.6201 52.9998 90.2437 52.8955 89.7903 52.7912C89.0703 52.6265 88.3603 52.4206 87.6638 52.1746C87.1149 51.9896 86.6024 51.7103 86.1494 51.3494C85.7557 51.0287 85.4447 50.6182 85.2426 50.1524C85.0297 49.6051 84.9279 49.0209 84.9433 48.4339C84.9383 47.8314 85.0668 47.2352 85.3196 46.6883C85.5744 46.1606 85.9429 45.6961 86.3988 45.328C86.9157 44.9201 87.507 44.6167 88.1399 44.4348C88.8554 44.2173 89.6002 44.1118 90.348 44.1219C91.374 44.1028 92.3969 44.2404 93.3814 44.53C94.2271 44.7954 95.0281 45.1867 95.7573 45.6907L93.9436 48.638C93.3812 48.2472 92.7719 47.9289 92.1299 47.6903C91.5017 47.4653 90.8385 47.3533 90.1712 47.3593C89.7828 47.3159 89.3907 47.3968 89.0513 47.5906C88.874 47.7401 88.774 47.9618 88.7792 48.1936C88.7769 48.3138 88.8135 48.4314 88.8835 48.5291C88.9791 48.6475 89.102 48.7409 89.2417 48.8012C89.4607 48.9028 89.6864 48.9892 89.9173 49.0596C90.2029 49.1367 90.5702 49.2365 91.0055 49.3362C91.7572 49.5121 92.4964 49.7377 93.2181 50.0118C93.7697 50.2206 94.2853 50.5143 94.7462 50.8824C95.141 51.2056 95.4521 51.6194 95.653 52.0884C95.8584 52.6138 95.9571 53.1749 95.9432 53.7389" fill="#231F20"/>
<path d="M42.6217 72.9003C40.3274 72.9003 38.7812 71.3541 38.7812 68.5837V63.2516H40.6811V68.5565C40.6811 70.0755 41.4156 71.0412 42.6217 71.0412C43.8278 71.0412 44.5759 70.1027 44.5759 68.5837V63.2516H46.4757V68.5565C46.4576 71.3133 45.0203 72.9003 42.6217 72.9003Z" fill="#0097DA"/>
<path d="M54.8353 72.7506L51.344 67.559C51.1127 67.2053 50.7999 66.7293 50.682 66.4844C50.682 66.8381 50.682 68.0306 50.682 68.5611V72.7416H48.832V63.2516H50.6457L54.01 68.2709C54.2413 68.6245 54.5541 69.1006 54.6766 69.3455C54.6766 68.9918 54.6494 67.7948 54.6494 67.2688V63.2516H56.522V72.7506H54.8353Z" fill="#0097DA"/>
<path d="M59.1113 72.7506V63.2516H61.0111V72.7506H59.1113Z" fill="#0097DA"/>
<path d="M68.14 72.7506H66.2901L62.9121 63.2516H65.016L66.8296 68.747C67.0065 69.2775 67.1969 69.9712 67.283 70.3067C67.3647 69.9576 67.5415 69.3047 67.7365 68.747L69.4866 63.2516H71.5633L68.14 72.7506Z" fill="#0097DA"/>
<path d="M73.2812 72.7506V63.2516H79.8785V65.1106H75.1811V66.7519H77.9016V68.5973H75.1811V70.8916H80.0825V72.7506H73.2812Z" fill="#0097DA"/>
<path fill-rule="evenodd" clip-rule="evenodd" d="M85.9232 69.3319L87.619 72.7506H89.8045L87.9908 69.0598C89.1924 68.5837 89.8045 67.6905 89.8045 66.2622C89.8045 64.24 88.3218 63.2516 86.5308 63.2516H82.1055V72.7506H84.0053V69.3319H85.9232ZM84.0053 65.097H86.49C87.3334 65.097 87.8503 65.4914 87.8503 66.3212C87.8503 67.1509 87.3742 67.559 86.49 67.559H84.0053V65.097Z" fill="#0097DA"/>
<path d="M95.0267 72.9003C93.5891 72.9622 92.2116 72.3191 91.3359 71.1773L92.6962 69.9576C93.3015 70.6667 94.1945 71.0649 95.1265 71.0412C96.2555 71.0412 96.786 70.7284 96.786 70.012C96.786 69.3999 96.4595 69.1278 94.6685 68.7198C92.8776 68.3117 91.6941 67.754 91.6941 65.8814C91.6941 64.1584 93.2131 63.1019 95.0857 63.1019C96.4022 63.0725 97.6665 63.617 98.5498 64.5937L97.1895 65.9222C96.6418 65.3046 95.8567 64.95 95.0313 64.9473C94.0156 64.9473 93.671 65.4008 93.671 65.7998C93.671 66.3983 94.0791 66.5887 95.5844 66.9424C97.0898 67.296 98.7584 67.8084 98.7584 69.876C98.7629 71.6806 97.6203 72.9003 95.0267 72.9003Z" fill="#0097DA"/>
<path d="M100.908 72.7506V63.2516H102.808V72.7506H100.908Z" fill="#0097DA"/>
<path d="M109.405 65.1242V72.7506H107.506V65.1242H104.785V63.2516H112.144V65.1242H109.405Z" fill="#0097DA"/>
<path d="M118.541 68.9918V72.7506H116.641V69.0326L113.041 63.2516H115.226L116.587 65.5186C116.922 66.0854 117.439 67.024 117.616 67.3776C117.793 67.024 118.296 66.1126 118.65 65.5186L120.01 63.2516H122.168L118.541 68.9918Z" fill="#0097DA"/>
<path d="M28.334 59.2751C28.3322 58.7429 28.6514 58.262 29.1426 58.0571C29.6338 57.8521 30.2001 57.9635 30.5771 58.3392C30.9541 58.7149 31.0674 59.2808 30.8641 59.7727C30.6609 60.2646 30.1811 60.5855 29.6489 60.5855C28.9245 60.5855 28.3365 59.9995 28.334 59.2751Z" fill="#D82C25"/>
<path d="M7.85578e-06 30.1748C1.10201e-05 29.6426 0.320871 29.1628 0.812774 28.9596C1.30468 28.7563 1.8706 28.8697 2.2463 29.2467C2.622 29.6237 2.73338 30.19 2.52842 30.6812C2.32347 31.1724 1.84262 31.4916 1.31038 31.4897C0.962061 31.4897 0.628074 31.3511 0.3822 31.1043C0.136327 30.8576 -0.0011974 30.5231 7.85578e-06 30.1748Z" fill="#D82C25"/>
</svg>
