<svg xmlns="http://www.w3.org/2000/svg" xmlns:xlink="http://www.w3.org/1999/xlink" width="215.106" height="73.604" viewBox="0 0 215.106 73.604"><defs><clipPath id="a"><rect width="58.106" height="43" fill="none"/></clipPath></defs><g transform="translate(-8541 -8908.104)"><rect width="1" height="43" transform="translate(8682 8938.709)" fill="#fff"/><g transform="translate(8681 8939.104)"><g transform="translate(17 -1)" clip-path="url(#a)"><path d="M13.54,78.127a2.932,2.932,0,0,1,.288.222,3,3,0,0,1,.294.29,1.309,1.309,0,0,1,.216.327.636.636,0,0,1,.053.352q-.043.2-.308.227a.777.777,0,0,1-.387-.073q-.2-.09-.356-.175a1.592,1.592,0,0,0-.631-.15,6.917,6.917,0,0,0-.865-.009q-.473,0-.9.034t-.694.055l-.163.015q-.122.011-.254.033c-.088.015-.172.026-.254.034q-.973.15-2,.395t-2.023.586a18.931,18.931,0,0,0-1.943.786,12.921,12.921,0,0,0-1.759,1,.6.6,0,0,1-.26.084.868.868,0,0,1-.429-.079,1.948,1.948,0,0,1-.436-.267,3.165,3.165,0,0,1-.383-.361,1.457,1.457,0,0,1-.25-.364.569.569,0,0,1-.083-.231c-.025-.117-.005-.2.06-.244q.5-.325,1-.609t1.03-.533a1.761,1.761,0,0,1-.437-.713,1.4,1.4,0,0,1-.042-.234L1.6,78.285a7.965,7.965,0,0,1,.048-1.364q.084-.752.218-1.519t.291-1.516q.156-.749.287-1.337.249-1.076.532-2.233T3.6,68.005q.335-1.153.725-2.271t.85-2.134q.134-.33.29-.643a5.544,5.544,0,0,1,.355-.609,1.977,1.977,0,0,1,.258-.322.508.508,0,0,1,.66-.091,2.436,2.436,0,0,1,.36.224c.118.088.229.174.332.257a2.41,2.41,0,0,1,.224.2q.022.018.136.136c.076.079.149.162.218.248a.868.868,0,0,1,.146.244c.028.077,0,.119-.081.127a1.33,1.33,0,0,0-.573.589,9.538,9.538,0,0,0-.55,1.054q-.256.57-.451,1.124t-.3.8q-.831,2.341-1.442,4.73T3.72,76.5q-.108.606-.186,1.209t-.124,1.2a22.191,22.191,0,0,1,5.94-1.387q.489-.046,1.054-.059a10.666,10.666,0,0,1,1.124.034,5.764,5.764,0,0,1,1.088.2,2.989,2.989,0,0,1,.925.43" transform="translate(-0.001 -44.4)" fill="#fff"/><path d="M39.532,72a.53.53,0,0,1,.358.086.325.325,0,0,1,.165.223,2.638,2.638,0,0,1-.2.644q-.207.546-.537,1.3t-.766,1.61q-.435.855-.881,1.591a10.547,10.547,0,0,1-.861,1.242,1.375,1.375,0,0,1-.74.555,1.714,1.714,0,0,1-.729-.091,2.216,2.216,0,0,1-.662-.365,2.86,2.86,0,0,1-.524-.547,1.694,1.694,0,0,1-.3-.657,5.58,5.58,0,0,1-.1-.675,3.774,3.774,0,0,1,0-.685,14.711,14.711,0,0,1,.251-1.611,17.127,17.127,0,0,1,.449-1.7q.27-.849.608-1.645a13.626,13.626,0,0,1,.709-1.446.12.12,0,0,1,.078-.047.661.661,0,0,1,.371.124,4.286,4.286,0,0,1,.462.324q.233.187.437.386t.3.31a1.09,1.09,0,0,1,.108.169.227.227,0,0,1,.029.2,13.35,13.35,0,0,0-.632,1.28q-.331.756-.6,1.585t-.465,1.632a8.934,8.934,0,0,0-.238,1.422q-.069.8.2.776.184-.017.5-.434A9.645,9.645,0,0,0,37,76.505q.363-.629.738-1.359t.687-1.354q.312-.624.528-1.071t.232-.488A.438.438,0,0,1,39.532,72m.089-6.559a1.336,1.336,0,0,1,.12.187.2.2,0,0,1-.021.22,3.783,3.783,0,0,0-.842,1.557,10.539,10.539,0,0,0-.352,1.75q-.009.12-.152.133a.678.678,0,0,1-.348-.087,2.9,2.9,0,0,1-.414-.249,4.277,4.277,0,0,1-.389-.312,2.8,2.8,0,0,1-.272-.272,1.751,1.751,0,0,0-.167-.242.367.367,0,0,1-.105-.248q.058-.482.159-.948T37.08,66q.032-.1.141-.37t.257-.55a4.813,4.813,0,0,1,.3-.5c.1-.149.195-.227.277-.234a.75.75,0,0,1,.4.112,3.512,3.512,0,0,1,.471.3,3.773,3.773,0,0,1,.426.377,2.337,2.337,0,0,1,.266.313" transform="translate(-24.219 -46.182)" fill="#fff"/><path d="M56.945,72.9a9.031,9.031,0,0,1-.92,1.386,5.931,5.931,0,0,1-1.047,1.021,2.247,2.247,0,0,1-1.14.463,1.727,1.727,0,0,1-.824-.122,2.158,2.158,0,0,1-.7-.461,2.475,2.475,0,0,1-.5-.688,2.242,2.242,0,0,1-.227-.783,3.226,3.226,0,0,1,.4-1.8,6.131,6.131,0,0,1,1.222-1.563,11.083,11.083,0,0,1,1.641-1.264,16.544,16.544,0,0,1,1.652-.928,7.712,7.712,0,0,0,.247-1.214,5.741,5.741,0,0,0,.019-1.233,1.2,1.2,0,0,0-.361.093,4.791,4.791,0,0,0-1.214.887,14.122,14.122,0,0,0-1.286,1.43q-.644.815-1.246,1.754t-1.094,1.839q-.492.9-.859,1.708a14.13,14.13,0,0,0-.544,1.341.083.083,0,0,1-.078.047.7.7,0,0,1-.359-.1,2.794,2.794,0,0,1-.426-.268c-.141-.106-.27-.213-.39-.321s-.21-.192-.27-.253-.107-.122-.185-.221a.4.4,0,0,1-.107-.268,25.663,25.663,0,0,1,.387-3.023q.295-1.586.743-3.176t1.029-3.093q.58-1.5,1.221-2.794.156-.312.455-.856a10.657,10.657,0,0,1,.672-1.065,6.612,6.612,0,0,1,.8-.928A1.454,1.454,0,0,1,54.508,58a1.027,1.027,0,0,1,.5.1,2.683,2.683,0,0,1,.545.326,4.112,4.112,0,0,1,.483.432,1.451,1.451,0,0,1,.3.419.441.441,0,0,1,.036.165c.008.085-.03.119-.114.1l-.122.011a1.173,1.173,0,0,0-.243.043A2.692,2.692,0,0,0,55,60.34a9.221,9.221,0,0,0-.872,1.242,16.292,16.292,0,0,0-.794,1.523q-.377.819-.7,1.6t-.563,1.462q-.235.677-.38,1.107.273-.383.687-.908a11.655,11.655,0,0,1,.894-1.006,6.234,6.234,0,0,1,1.013-.829,2.312,2.312,0,0,1,1.043-.395,2.148,2.148,0,0,1,1.023.163,3.852,3.852,0,0,1,.947.557,3.977,3.977,0,0,1,.753.793,2.857,2.857,0,0,1,.443.892,2.581,2.581,0,0,1,.086.369q.027.177.045.373.6-.214,1.207-.41t1.23-.373a.37.37,0,0,1,.273.054q.152.085.259.135a.386.386,0,0,1,.162.412.363.363,0,0,1-.255.351q-.523.128-1.3.4t-1.667.652a10.5,10.5,0,0,1-.311,1.3q-.22.736-.536,1.529a14.473,14.473,0,0,1-.739,1.567M53.6,71.726a2.492,2.492,0,0,0-.481,1.018,1.379,1.379,0,0,0,.2.994,5.387,5.387,0,0,0,.84-.813,9.641,9.641,0,0,0,.73-.991,10.264,10.264,0,0,0,.6-1.069q.267-.55.468-1.046a13,13,0,0,0-1.354.93,5.912,5.912,0,0,0-1,.976" transform="translate(-34.706 -41.635)" fill="#fff"/><path d="M86.9,83.278a27.656,27.656,0,0,1,.641-4.268,38.489,38.489,0,0,1,1.207-4.162.355.355,0,0,1,.325-.269.34.34,0,0,1,.21.04q.372.243.661.474.245.2.448.4t.174.321q-.066.4-.2.922t-.232.826c-.052.177-.09.323-.114.437s-.045.213-.065.294a1.218,1.218,0,0,0,0,.2q.644-1.251,1.189-2.255.247-.44.486-.859t.454-.757q.215-.337.379-.571a1.337,1.337,0,0,1,.26-.3q.174-.116.37-.223a1.062,1.062,0,0,1,.42-.129,1.412,1.412,0,0,1,.667.1,2.692,2.692,0,0,1,.586.323.579.579,0,0,1,.218.466,3.282,3.282,0,0,1-.054.749q-.074.424-.195.892t-.2.9a4.132,4.132,0,0,0-.081.782.72.72,0,0,0,.183.529,5.138,5.138,0,0,1-1.211-.185,2.293,2.293,0,0,1-.752-.456.8.8,0,0,1-.211-.824,3.974,3.974,0,0,1,.309-.882q.174-.334.134-.33l-.019.022a.061.061,0,0,0-.039.023A11.346,11.346,0,0,0,91.51,77.32a18.983,18.983,0,0,0-1.476,3.145L89.5,82q-.177.533-.321,1.082t-.315,1.141c0-.013-.007,0-.016.051a.579.579,0,0,1-.067.165,1.021,1.021,0,0,1-.118.17.219.219,0,0,1-.146.083.627.627,0,0,1-.337-.088,2.778,2.778,0,0,1-.393-.251q-.2-.15-.368-.3a2.791,2.791,0,0,1-.261-.264c-.047-.062-.1-.139-.166-.233a.451.451,0,0,1-.088-.28" transform="translate(-62.38 -52.678)" fill="#fff"/><path d="M123.256,83.129a6.423,6.423,0,0,1-.951,1.27,1.769,1.769,0,0,1-1.1.569,1.423,1.423,0,0,1-.656-.088,2.01,2.01,0,0,1-.566-.334,2.387,2.387,0,0,1-.447-.494,2.713,2.713,0,0,1-.3-.568,1.752,1.752,0,0,1-.133-.653,2.032,2.032,0,0,0-.061-.54,7.356,7.356,0,0,0-.34.657q-.232.488-.514,1a9.869,9.869,0,0,1-.581.937q-.3.425-.545.448a1.4,1.4,0,0,1-.692-.144,3.845,3.845,0,0,1-.74-.437,4.374,4.374,0,0,1-.641-.586,2.07,2.07,0,0,1-.394-.589,2.137,2.137,0,0,1-.166-.788q-.007-.406.018-.806a9.654,9.654,0,0,1,.161-1.028,12.393,12.393,0,0,1,.327-1.242,10.042,10.042,0,0,1,.507-1.288,7.1,7.1,0,0,1,.685-1.156,3.722,3.722,0,0,1,.856-.854,2.132,2.132,0,0,1,1.044-.385,1.9,1.9,0,0,1,1.026.192,5.451,5.451,0,0,1,.894.542,1.578,1.578,0,0,0,.069-.254q.035-.172.072-.334l.065-.294q.029-.132.049-.134l.041,0a2.03,2.03,0,0,1,.426.05,3.794,3.794,0,0,1,.676.195,2.326,2.326,0,0,1,.619.349.6.6,0,0,1,.253.512q0,.02-.116.408t-.278.989q-.16.6-.319,1.33T121.258,81a8.481,8.481,0,0,0-.076,1.278,1.722,1.722,0,0,0,.206.884q.139.166.261.154.265-.025.588-.531a11.469,11.469,0,0,0,.684-1.275q.36-.768.727-1.7t.7-1.792a.346.346,0,0,1,.156-.2.538.538,0,0,1,.209-.069.607.607,0,0,1,.367.075q.163.094.132.2-.015.061-.161.591t-.4,1.278q-.25.748-.6,1.614a12.429,12.429,0,0,1-.8,1.622m-6.483-.25a5.2,5.2,0,0,0,.922-.93,10.381,10.381,0,0,0,1.1-1.74,11.543,11.543,0,0,0,.948-2.748,2.086,2.086,0,0,0-1,.411,3.959,3.959,0,0,0-.817.841,6.487,6.487,0,0,0-.647,1.112,9.984,9.984,0,0,0-.472,1.225q-.19.614-.321,1.191a8.505,8.505,0,0,0-.174,1,4.507,4.507,0,0,1,.46-.36" transform="translate(-82.139 -54.372)" fill="#fff"/><path d="M145.086,77.859a27.649,27.649,0,0,1,.641-4.268,38.426,38.426,0,0,1,1.207-4.162.355.355,0,0,1,.325-.269.34.34,0,0,1,.21.04q.372.243.661.474.245.2.448.4c.136.133.194.24.174.321q-.066.4-.2.922t-.232.826c-.052.177-.09.323-.113.437s-.046.213-.065.294a1.219,1.219,0,0,0,0,.2q.644-1.251,1.189-2.255.247-.44.486-.859t.454-.757q.215-.337.379-.571a1.352,1.352,0,0,1,.26-.3c.117-.077.24-.152.37-.223a1.067,1.067,0,0,1,.42-.129,1.416,1.416,0,0,1,.667.1,2.692,2.692,0,0,1,.586.323.578.578,0,0,1,.218.466,3.262,3.262,0,0,1-.054.749q-.074.424-.194.892t-.2.9a4.131,4.131,0,0,0-.081.782.718.718,0,0,0,.183.529,5.132,5.132,0,0,1-1.211-.185,2.286,2.286,0,0,1-.752-.456.8.8,0,0,1-.21-.824,3.973,3.973,0,0,1,.309-.882c.116-.222.161-.333.134-.33l-.019.022a.061.061,0,0,0-.039.023,11.363,11.363,0,0,0-1.332,1.821,19.006,19.006,0,0,0-1.476,3.145l-.536,1.539q-.177.533-.321,1.082t-.316,1.141c0-.013-.006,0-.016.051a.588.588,0,0,1-.067.165,1.02,1.02,0,0,1-.118.17.22.22,0,0,1-.146.083.627.627,0,0,1-.337-.088,2.8,2.8,0,0,1-.394-.251q-.2-.15-.367-.3a2.734,2.734,0,0,1-.261-.264c-.047-.062-.1-.139-.166-.233a.451.451,0,0,1-.088-.28" transform="translate(-104.146 -48.788)" fill="#fff"/><path d="M179.062,68.959a1.9,1.9,0,0,0,.174-1.009c-.016-.025,0-.052.033-.082l.1-.049a.26.26,0,0,1,.139-.053.441.441,0,0,1,.177.023,1.074,1.074,0,0,1,.161.064,3.368,3.368,0,0,1,.991.7,2.263,2.263,0,0,1,.662,1.467c.008.158.012.31.012.455a21.981,21.981,0,0,1-.085,2.291,28.271,28.271,0,0,1-.383,2.845,27.323,27.323,0,0,1-.721,2.966,15.765,15.765,0,0,1-1.076,2.691,7.306,7.306,0,0,1-1.48,2,3.189,3.189,0,0,1-1.912.893,2.256,2.256,0,0,1-.906-.114,3.4,3.4,0,0,1-.884-.434,3.172,3.172,0,0,1-.7-.65,2.028,2.028,0,0,1-.389-.758c-.021-.077.009-.12.091-.128a.61.61,0,0,1,.272.044,1.4,1.4,0,0,1,.292.151q.142.1.275.193t.221.168a2.866,2.866,0,0,0,1.726-.687,6.221,6.221,0,0,0,1.342-1.6,11.469,11.469,0,0,0,.991-2.167q.413-1.2.7-2.388t.448-2.255q.158-1.067.236-1.769-.721,1.318-1.626,2.752a19.063,19.063,0,0,1-1.893,2.539q-.149.173-.336.369a4.521,4.521,0,0,1-.407.375,2.481,2.481,0,0,1-.466.3,1.391,1.391,0,0,1-.49.145,1.272,1.272,0,0,1-.639-.119,3.12,3.12,0,0,1-.643-.387,5.114,5.114,0,0,1-.572-.512,4.093,4.093,0,0,1-.4-.479,1.059,1.059,0,0,1-.17-.719q.039-.242.08-.474t.1-.456q.163-.67.318-1.33t.32-1.31q.145-.649.279-1.317a12.54,12.54,0,0,0,.194-1.348,2.629,2.629,0,0,0,.031-.33,2.82,2.82,0,0,0-.012-.346,1.227,1.227,0,0,1-.171-.183q-.1-.129-.188-.251a.476.476,0,0,1-.093-.22c-.006-.065.032-.1.113-.11a1.035,1.035,0,0,1,.558.137,3.973,3.973,0,0,1,.613.389,3.628,3.628,0,0,1,.53.5,1.707,1.707,0,0,1,.312.477,1.483,1.483,0,0,1,.126.474,2.884,2.884,0,0,1,0,.486,8.7,8.7,0,0,1-.139,1.264q-.117.626-.245,1.234-.145.649-.293,1.268t-.314,1.27a1.934,1.934,0,0,0-.027.6c.025.117.084.171.18.162q.245-.023.736-.595a15.937,15.937,0,0,0,1.08-1.44q.587-.869,1.2-1.909t1.089-2a17.419,17.419,0,0,0,.756-1.718" transform="translate(-123.406 -48.643)" fill="#fff"/><rect width="1.493" height="1.491" transform="translate(28.307 12.033)" fill="#f9af2d"/><rect width="1.488" height="1.491" transform="translate(30.06 10.309)" fill="#f9af2d"/><rect width="1.488" height="1.491" transform="translate(30.06 17.025)" fill="#f9af2d"/><rect width="1.49" height="1.491" transform="translate(31.798 8.616)" fill="#f9af2d"/><rect width="1.49" height="1.491" transform="translate(31.798 13.837)" fill="#f9af2d"/><rect width="1.482" height="1.489" transform="translate(26.561 6.875)" fill="#f9af2d"/><rect width="1.482" height="1.489" transform="translate(30.079 6.875)" fill="#f9af2d"/><rect width="1.493" height="1.49" transform="translate(28.307 5.157)" fill="#f9af2d"/><rect width="1.49" height="1.49" transform="translate(40.57 5.157)" fill="#f9af2d"/><rect width="1.488" height="1.49" transform="translate(30.06 3.439)" fill="#f9af2d"/><rect width="1.492" height="1.49" transform="translate(31.809 3.439)" fill="#f9af2d"/><rect width="1.49" height="1.49" transform="translate(38.815 3.439)" fill="#f9af2d"/><rect width="1.488" height="1.492" transform="translate(30.06 1.72)" fill="#f9af2d"/><rect width="1.492" height="1.492" transform="translate(31.809 5.156)" fill="#f9af2d"/><rect width="1.49" height="1.492" transform="translate(33.562 1.72)" fill="#f9af2d"/><rect width="1.49" height="1.492" transform="translate(33.562 3.435)" fill="#f9af2d"/><rect width="1.49" height="1.492" transform="translate(33.562 6.88)" fill="#f9af2d"/><rect width="1.497" height="1.492" transform="translate(35.311 1.72)" fill="#f9af2d"/><rect width="1.49" height="1.492" transform="translate(38.815 1.72)" fill="#f9af2d"/><rect width="1.49" height="1.49" transform="translate(33.562)" fill="#f9af2d"/><rect width="1.491" height="1.49" transform="translate(37.062 3.439)" fill="#f9af2d"/><rect width="1.49" height="1.49" transform="translate(40.57)" fill="#f9af2d"/><path d="M23.634,20.2A3.524,3.524,0,0,1,22.5,23.011,5.17,5.17,0,0,1,19.026,24H13.14V12.217h5.922a5.354,5.354,0,0,1,3.285.793,2.728,2.728,0,0,1,1.007,2.277,2.212,2.212,0,0,1-.429,1.468,3.681,3.681,0,0,1-1.042.843,2.857,2.857,0,0,1,1.3.966,2.734,2.734,0,0,1,.456,1.639m-3.609-4.477a1,1,0,0,0-.228-.662,1.057,1.057,0,0,0-.841-.272H16.4v1.869h2.558a1.106,1.106,0,0,0,.832-.255.959.959,0,0,0,.237-.68m.28,4.538a1.127,1.127,0,0,0-.3-.825,1.228,1.228,0,0,0-.911-.3H16.4v2.29h2.681a1.089,1.089,0,0,0,1.226-1.162" transform="translate(-9.432 -8.77)" fill="#fff"/><rect width="3.469" height="11.786" transform="translate(15.585 3.448)" fill="#fff"/><path d="M170.661,19.912a3.713,3.713,0,0,1-.377,1.734,3.155,3.155,0,0,1-1.051,1.179,4.827,4.827,0,0,1-1.6.674,8.878,8.878,0,0,1-2.033.219,9.735,9.735,0,0,1-2.847-.413,9.589,9.589,0,0,1-2.321-1.018l1.647-2.559a6.3,6.3,0,0,0,.78.429,9.493,9.493,0,0,0,.929.379,7.533,7.533,0,0,0,.972.269,4.528,4.528,0,0,0,.911.1,3.173,3.173,0,0,0,1.253-.168.6.6,0,0,0,.342-.589.513.513,0,0,0-.1-.3.966.966,0,0,0-.333-.261,3.838,3.838,0,0,0-.64-.253q-.4-.126-1.016-.261a18.43,18.43,0,0,1-1.928-.539,4.63,4.63,0,0,1-1.367-.716,2.726,2.726,0,0,1-.814-1.035,3.66,3.66,0,0,1-.272-1.5,3.324,3.324,0,0,1,1.314-2.694,4.659,4.659,0,0,1,1.524-.758,6.909,6.909,0,0,1,2-.269,9.489,9.489,0,0,1,2.742.354,8.031,8.031,0,0,1,2.146,1.01l-1.647,2.559a7.569,7.569,0,0,0-1.647-.825,5.363,5.363,0,0,0-1.77-.286,1.733,1.733,0,0,0-1.016.2.645.645,0,0,0-.245.522.473.473,0,0,0,.1.295.88.88,0,0,0,.324.236,3.869,3.869,0,0,0,.613.219q.385.11.981.244a15.734,15.734,0,0,1,2,.589,5.068,5.068,0,0,1,1.384.758,2.722,2.722,0,0,1,.806,1.044,3.574,3.574,0,0,1,.263,1.431" transform="translate(-115.161 -8.299)" fill="#fff"/><rect width="1.497" height="1.489" transform="translate(35.311 6.875)" fill="#fff"/><rect width="1.488" height="1.49" transform="translate(30.06 5.157)" fill="#fff"/><rect width="1.497" height="1.49" transform="translate(35.311 5.157)" fill="#fff"/><path d="M125.8,12.068v1.5h1.582V15.56H125.8V18.82a2.9,2.9,0,0,1-.447,1.717,1.656,1.656,0,0,1-1.446.623,1.7,1.7,0,0,1-1.463-.623,2.816,2.816,0,0,1-.464-1.717v-1.54h-3.46l-.009,1.54a6.351,6.351,0,0,0,.4,2.391,4.153,4.153,0,0,0,2.8,2.542,7.609,7.609,0,0,0,2.137.286A7.7,7.7,0,0,0,126,23.753a4.474,4.474,0,0,0,1.717-.918,4.277,4.277,0,0,0,1.139-1.625,6.239,6.239,0,0,0,.412-2.391V12.068Z" transform="translate(-85.07 -8.663)" fill="#fff"/><rect width="1.497" height="1.49" transform="translate(35.311 3.439)" fill="#fff"/><rect width="1.493" height="1.492" transform="translate(28.307 3.453)" fill="#fff"/><rect width="1.49" height="1.492" transform="translate(33.562 5.165)" fill="#fff"/><path d="M84.465,17.387h-1.73V15.645H81.206v.6q0,.455.018.884t.035.791a4.841,4.841,0,0,0,.052.564q-.1-.185-.333-.539c-.14-.217-.18-.31-.349-.556h-1.4V15.569L76.7,12.218h-3V24h3.259V19.593q0-.455-.018-.884c-.012-.286-.023-.55-.035-.791a4.906,4.906,0,0,0-.052-.564q.122.2.359.556t.508.749q.272.4.552.791t.491.665L81.7,24h2.768V20.8h-1.5v1.716H80.953V20.57h1.782V18.878h1.73Z" transform="translate(-52.91 -8.77)" fill="#fff"/><path d="M16.472,138.163l-.408-.439a2.388,2.388,0,0,1-1.571.523c-1.1,0-1.771-.462-1.771-1.432a1.654,1.654,0,0,1,1.1-1.548l-.139-.154a1.593,1.593,0,0,1-.47-1.093c0-.878.693-1.332,1.6-1.332a2.556,2.556,0,0,1,1.609.562l-.516.777a1.823,1.823,0,0,0-1.124-.385c-.316,0-.508.131-.508.354a.881.881,0,0,0,.285.585l1.486,1.694a8.926,8.926,0,0,0,.377-.893l.87.277a5.762,5.762,0,0,1-.608,1.347l1.016,1.155ZM14.393,135.9a.918.918,0,0,0-.593.824c0,.347.277.57.816.57a1.38,1.38,0,0,0,.832-.239Z" transform="translate(-9.132 -95.248)" fill="#fff"/><path d="M41.749,138.378l-1.463-2.6-.862,1.016v1.586H38.346v-5.389h1.078v1.532c0,.2-.008.685-.016.855.077-.123.277-.37.424-.547l1.509-1.84h1.3l-1.578,1.863,1.979,3.526Z" transform="translate(-27.526 -95.463)" fill="#fff"/><path d="M60.032,138.378l-1.979-2.941c-.131-.2-.308-.47-.377-.608,0,.2.015.878.015,1.178v2.371H56.629v-5.389h1.032l1.909,2.849c.131.2.308.47.377.608,0-.2-.016-.878-.016-1.178v-2.279h1.063v5.389Z" transform="translate(-40.65 -95.463)" fill="#fff"/><path d="M76.979,138.247c-1.47,0-2.341-1.14-2.341-2.779s.87-2.78,2.341-2.78,2.341,1.139,2.341,2.78-.87,2.779-2.341,2.779m0-4.489c-.87,0-1.232.747-1.232,1.709s.362,1.709,1.232,1.709,1.232-.747,1.232-1.709-.362-1.709-1.232-1.709" transform="translate(-53.577 -95.247)" fill="#fff"/><path d="M97.019,138.378H95.964l-.662-2.772c-.077-.323-.154-.723-.185-.924a9.345,9.345,0,0,1-.177.924l-.678,2.772H93.254l-1.124-5.389h1.124l.47,2.625c.046.262.108.662.131.885.039-.223.123-.624.185-.885l.632-2.625h.939l.639,2.625c.062.262.146.662.185.885.023-.223.085-.631.131-.885l.47-2.625h1.109Z" transform="translate(-66.133 -95.463)" fill="#fff"/><path d="M115.9,138.378v-5.389h1.078v4.327h2.7v1.063Z" transform="translate(-83.195 -95.463)" fill="#fff"/><path d="M131.452,138.378v-5.389h3.742v1.055H132.53v.931h1.548v1.047H132.53v1.3h2.78v1.055Z" transform="translate(-94.36 -95.463)" fill="#fff"/><path d="M149.435,138.378h-1.609v-5.389h1.686a2.4,2.4,0,0,1,2.68,2.695,2.562,2.562,0,0,1-2.756,2.695m.038-4.342h-.57v3.3h.531a1.489,1.489,0,0,0,1.648-1.648c0-1.1-.47-1.648-1.609-1.648" transform="translate(-106.114 -95.463)" fill="#fff"/><path d="M167.1,138.247c-1.409,0-2.356-1.078-2.356-2.779a2.493,2.493,0,0,1,2.395-2.78,2.007,2.007,0,0,1,2.04,1.348l-1.024.423a1.048,1.048,0,0,0-1.032-.7c-.808,0-1.271.709-1.271,1.709s.47,1.725,1.278,1.725c.739,0,.993-.346,1.055-.816h-.855v-1.008h1.933v.708a2.03,2.03,0,0,1-2.163,2.171" transform="translate(-118.257 -95.247)" fill="#fff"/><path d="M183.436,138.378v-5.389h3.742v1.055h-2.664v.931h1.548v1.047h-1.548v1.3h2.78v1.055Z" transform="translate(-131.675 -95.463)" fill="#fff"/></g></g><g transform="translate(128 -155.604)"><rect width="1.377" height="1.374" transform="translate(8455.199 9096.676)" fill="#fff"/><rect width="1.367" height="1.374" transform="translate(8456.819 9096.676)" fill="#fff"/><rect width="1.376" height="1.374" transform="translate(8458.429 9096.676)" fill="#fff"/><rect width="1.372" height="1.374" transform="translate(8460.045 9096.676)" fill="#fff"/><rect width="1.377" height="1.374" transform="translate(8455.199 9095.087)" fill="#fff"/><rect width="1.367" height="1.374" transform="translate(8456.819 9095.087)" fill="#fff"/><rect width="1.376" height="1.374" transform="translate(8458.429 9095.087)" fill="#fff"/><rect width="1.372" height="1.374" transform="translate(8460.045 9095.087)" fill="#fff"/><rect width="1.374" height="1.374" transform="translate(8463.274 9095.087)" fill="#fff"/><rect width="1.377" height="1.372" transform="translate(8455.199 9093.508)" fill="#fff"/><rect width="1.367" height="1.372" transform="translate(8456.819 9093.508)" fill="#fff"/><rect width="1.372" height="1.372" transform="translate(8460.045 9093.508)" fill="#fff"/><rect width="1.375" height="1.372" transform="translate(8461.657 9093.508)" fill="#fff"/><rect width="1.374" height="1.372" transform="translate(8463.274 9093.508)" fill="#fff"/><rect width="1.367" height="1.373" transform="translate(8456.819 9091.921)" fill="#fff"/><rect width="1.376" height="1.373" transform="translate(8458.429 9091.921)" fill="#fff"/><rect width="1.372" height="1.373" transform="translate(8460.045 9091.921)" fill="#fff"/><rect width="1.375" height="1.373" transform="translate(8461.657 9091.921)" fill="#fff"/><rect width="1.38" height="1.373" transform="translate(8464.887 9091.921)" fill="#fff"/><rect width="1.367" height="1.374" transform="translate(8456.819 9090.337)" fill="#fff"/><rect width="1.376" height="1.374" transform="translate(8458.429 9090.337)" fill="#fff"/><rect width="1.372" height="1.374" transform="translate(8460.045 9090.337)" fill="#fff"/><rect width="1.375" height="1.374" transform="translate(8461.657 9090.337)" fill="#fff"/><rect width="1.374" height="1.374" transform="translate(8463.274 9090.337)" fill="#fff"/><rect width="1.38" height="1.374" transform="translate(8464.887 9090.337)" fill="#fff"/><rect width="1.375" height="1.374" transform="translate(8466.501 9090.337)" fill="#fff"/><rect width="1.374" height="1.374" transform="translate(8469.735 9090.337)" fill="#fff"/><rect width="1.372" height="1.373" transform="translate(8460.045 9088.752)" fill="#fff"/><rect width="1.375" height="1.373" transform="translate(8461.657 9088.752)" fill="#fff"/><rect width="1.38" height="1.373" transform="translate(8464.887 9088.752)" fill="#fff"/><rect width="1.373" height="1.373" transform="translate(8468.118 9088.752)" fill="#fff"/><rect width="1.376" height="1.375" transform="translate(8458.429 9087.168)" fill="#fff"/><rect width="1.372" height="1.375" transform="translate(8460.045 9087.168)" fill="#fff"/><rect width="1.375" height="1.375" transform="translate(8461.657 9087.168)" fill="#fff"/><rect width="1.374" height="1.375" transform="translate(8463.274 9087.168)" fill="#fff"/><rect width="1.38" height="1.375" transform="translate(8464.887 9087.168)" fill="#fff"/><rect width="1.373" height="1.375" transform="translate(8468.118 9087.168)" fill="#fff"/><rect width="1.381" height="1.375" transform="translate(8476.188 9087.168)" fill="#fff"/><rect width="1.372" height="1.374" transform="translate(8460.045 9085.581)" fill="#fff"/><rect width="1.374" height="1.374" transform="translate(8463.274 9085.581)" fill="#fff"/><rect width="1.375" height="1.374" transform="translate(8466.501 9085.581)" fill="#fff"/><rect width="1.374" height="1.374" transform="translate(8469.735 9085.581)" fill="#fff"/><rect width="1.38" height="1.375" transform="translate(8464.887 9083.996)" fill="#fff"/><rect width="1.373" height="1.375" transform="translate(8468.118 9083.996)" fill="#fff"/><rect width="1.375" height="1.374" transform="translate(8466.501 9082.415)" fill="#fff"/><rect width="1.374" height="1.374" transform="translate(8469.735 9082.415)" fill="#fff"/><rect width="1.376" height="1.374" transform="translate(8472.959 9082.415)" fill="#fff"/><rect width="1.38" height="1.376" transform="translate(8464.887 9080.826)" fill="#fff"/><rect width="1.376" height="1.376" transform="translate(8472.959 9079.242)" fill="#fff"/><rect width="1.377" height="1.376" transform="translate(8477.802 9079.242)" fill="#fff"/><rect width="1.376" height="1.378" transform="translate(8472.959 9077.658)" fill="#fff"/><rect width="1.376" height="1.375" transform="translate(8472.959 9076.073)" fill="#fff"/><rect width="1.372" height="1.377" transform="translate(8474.578 9074.489)" fill="#fff"/><rect width="3.514" height="0.659" transform="translate(8451.433 9093.621)" fill="#fff"/><path d="M251.26,334.3h5.891c-1.639,1.835-5.494,4.941-14.228,8.041-15.487,5.505-30.624-1.1-21.762-13.687,8.665-12.318,22.39-15.221,23.827-15.459s3.828-.389,2.662-.032-3.35,1.261-3.226,1.586,1.552-.028,2.354-.15.812.449.332.692-.864,0-.568.3.124.508-.36.719-1.791.117-2.241.54.835.413,1.734.056a5.039,5.039,0,0,1,2.1-.507c.983-.058.057.54.536.748s2.9-.27,2.274.116,1.2.391-.063.752-13.033,1.674-22.063,7.595-10.225,18.174,5.143,15.125c11.2-2.223,15.891-7.34,17.61-9.946V334.3h.05Zm-6.9-16.234c-.777-.086-.716.178-.931.284-.269.133.509.255,1.11.23s.6-.424-.179-.514m-.572-2.775c-.564-.061-.537.116-1.283.237s-1.17.9-.421.81a5.444,5.444,0,0,0,1.736-.393c.655-.267-.032-.653-.032-.653" transform="translate(8203.725 8764.018)" fill="#fff"/><path d="M527.343,552.772a7.325,7.325,0,1,1,7.322,7.322,7.321,7.321,0,0,1-7.322-7.322" transform="translate(7907.996 8541.368)" fill="#ef8600"/><path d="M580.165,597.49a1.436,1.436,0,1,1,1.9.731,1.44,1.44,0,0,1-1.9-.731" transform="translate(7857.529 8493.46)" fill="#fff"/><path d="M909.056,312c0-.33-1.405-.356-1.614-.057s-.955.18-1.02.446.631.208,1.228-.026,1.405-.034,1.405-.364" transform="translate(7544.978 8765.184)" fill="#fff"/><path d="M918.456,334.53a3.013,3.013,0,0,0-2-.121,3.69,3.69,0,0,1-1.225.424c-.269,0,.123.328.839.328s.627-.183,1.343-.062,1.254-.327,1.047-.569" transform="translate(7536.625 8743.577)" fill="#fff"/><path d="M912.809,366.1c-.744.181-.924.27-1.316.362s-.028.388.839.207a11.253,11.253,0,0,1,1.553-.266c.423-.033.36-.42-.151-.451a2.328,2.328,0,0,0-.925.148" transform="translate(7540.269 8713.265)" fill="#fff"/><path d="M989.124,359.157c-.227-.34-.928-.119-1.227.061s-.237.208.27.3.973-.207.957-.359" transform="translate(7467.122 8719.937)" fill="#fff"/><path d="M972.654,378.922c-.187-.089-1.673.121-1.911.061s-.569.237-1.079.237-1.312.032-1.014.359,1.586.151,2.15.029a4.375,4.375,0,0,1,1.707-.266c.535.118.222-.4.146-.42" transform="translate(7485.445 8700.86)" fill="#fff"/><rect width="18.056" height="0.66" transform="translate(8415.586 9093.597)" fill="#fff"/><rect width="0.653" height="18.057" transform="translate(8442.349 9103.735)" fill="#fff"/><rect width="0.653" height="18.052" transform="translate(8442.349 9066.302)" fill="#fff"/><rect width="52.317" height="0.659" transform="translate(8464.902 9093.621)" fill="#fff"/><path d="M2459.031,684.123a1.316,1.316,0,1,1,1.318,1.318,1.316,1.316,0,0,1-1.318-1.318" transform="translate(6058.138 8409.825)" fill="#fff"/><path d="M669.43,1.316a1.316,1.316,0,1,1,1.315,1.321,1.313,1.313,0,0,1-1.315-1.321" transform="translate(7771.928 9063.707)" fill="#fff"/><path d="M928.212,1057.38a4.142,4.142,0,0,1-1.262,3.231,5.564,5.564,0,0,1-3.844,1.146h-6.521v-13.585h6.564a5.762,5.762,0,0,1,3.638.913,3.207,3.207,0,0,1,1.117,2.624,2.612,2.612,0,0,1-.481,1.694,4.06,4.06,0,0,1-1.154.971,3.138,3.138,0,0,1,1.437,1.114,3.229,3.229,0,0,1,.505,1.892m-4-5.163a1.187,1.187,0,0,0-.248-.766,1.154,1.154,0,0,0-.932-.311H920.2v2.156h2.833a1.184,1.184,0,0,0,.924-.3,1.136,1.136,0,0,0,.256-.782m.314,5.232a1.186,1.186,0,0,0-1.338-1.3H920.2v2.639h2.967a1.308,1.308,0,0,0,1.032-.377,1.411,1.411,0,0,0,.328-.96" transform="translate(7535.243 8059.939)" fill="#fff"/><rect width="3.849" height="13.584" transform="translate(8464.965 9108.111)" fill="#fff"/><path d="M1373.069,1061.755l-3.244-4.483c-.157-.208-.33-.463-.542-.766s-.415-.61-.611-.913-.388-.6-.564-.868-.309-.482-.4-.636c.026.153.042.37.058.649s.026.582.037.913.023.67.023,1.019v5.084h-3.609v-13.583h3.318l2.99,4.017c.155.206.341.462.551.778s.426.616.632.929.4.6.564.872.292.482.368.62a5.364,5.364,0,0,1-.056-.648c-.013-.279-.029-.58-.046-.912s-.014-.668-.014-1.019v-4.637h3.609v13.583Z" transform="translate(7106.571 8059.939)" fill="#fff"/><path d="M1699.542,1058.75a4.768,4.768,0,0,1-3.164,2.927,8.291,8.291,0,0,1-2.377.331,8.194,8.194,0,0,1-2.369-.331,4.75,4.75,0,0,1-1.872-1.056,4.982,4.982,0,0,1-1.229-1.871,7.433,7.433,0,0,1-.45-2.755v-7.781h3.841v7.781a3.342,3.342,0,0,0,.515,1.977,1.851,1.851,0,0,0,1.62.719,1.789,1.789,0,0,0,1.6-.719,3.421,3.421,0,0,0,.5-1.977v-7.781H1700v7.781a7.447,7.447,0,0,1-.456,2.755" transform="translate(6796.429 8059.899)" fill="#fff"/><path d="M2010.9,1052.7a4.444,4.444,0,0,1-.419,2,3.593,3.593,0,0,1-1.167,1.359,5.3,5.3,0,0,1-1.77.777,9.533,9.533,0,0,1-2.252.252,10.361,10.361,0,0,1-3.153-.479,10.548,10.548,0,0,1-2.575-1.171l1.827-2.95a6.251,6.251,0,0,0,.865.493,8.673,8.673,0,0,0,1.029.436,8.094,8.094,0,0,0,1.075.313,5.008,5.008,0,0,0,1.01.118,3.283,3.283,0,0,0,1.384-.2.692.692,0,0,0,.385-.677.624.624,0,0,0-.107-.349,1.152,1.152,0,0,0-.375-.3,4.009,4.009,0,0,0-.7-.292c-.3-.093-.673-.2-1.126-.3a18.667,18.667,0,0,1-2.132-.619,4.965,4.965,0,0,1-1.514-.825,3.1,3.1,0,0,1-.907-1.2,4.377,4.377,0,0,1-.3-1.723,4.043,4.043,0,0,1,.377-1.747,3.9,3.9,0,0,1,1.081-1.358,5.039,5.039,0,0,1,1.685-.873,7.338,7.338,0,0,1,2.214-.312,10.166,10.166,0,0,1,3.036.407,8.77,8.77,0,0,1,2.377,1.163l-1.824,2.95a8.237,8.237,0,0,0-1.823-.948,5.709,5.709,0,0,0-1.96-.331,1.863,1.863,0,0,0-1.125.231.769.769,0,0,0-.27.6.562.562,0,0,0,.1.336.99.99,0,0,0,.357.274,5.032,5.032,0,0,0,.68.255c.284.081.651.177,1.089.279a16.838,16.838,0,0,1,2.214.677,5.6,5.6,0,0,1,1.531.873,3.165,3.165,0,0,1,.9,1.206,4.321,4.321,0,0,1,.291,1.653" transform="translate(6498.139 8064.825)" fill="#fff"/><path d="M920.11,1504.773c-2.3,0-3.847-1.55-3.847-4.323v-5.342h1.9v5.315c0,1.522.734,2.488,1.944,2.488s1.957-.938,1.957-2.461v-5.342h1.9v5.315c0,2.759-1.441,4.35-3.86,4.35" transform="translate(7535.551 7631.936)" fill="#fff"/><path d="M1160.38,1504.612l-3.493-5.192c-.231-.354-.544-.829-.666-1.074,0,.353.027,1.549.027,2.079v4.187h-1.876V1495.1h1.822l3.371,5.03c.232.353.543.829.666,1.074,0-.354-.027-1.55-.027-2.079V1495.1h1.876v9.515Z" transform="translate(7307.529 7631.947)" fill="#fff"/><rect width="1.903" height="9.515" transform="translate(8472.19 9127.044)" fill="#fff"/><path d="M1492.342,1504.612h-1.848l-3.385-9.515h2.107l1.794,5.505c.177.53.367,1.224.448,1.563.082-.353.258-1.006.435-1.563l1.753-5.505h2.079Z" transform="translate(6988.887 7631.947)" fill="#fff"/><path d="M1732.26,1504.612V1495.1h6.606v1.862h-4.7v1.645h2.732v1.849h-2.732v2.3h4.907v1.862h-6.81Z" transform="translate(6754.121 7631.946)" fill="#fff"/><path d="M1946.349,1504.612l-1.7-3.426h-1.916v3.426h-1.9V1495.1h4.431c1.794,0,3.276.993,3.276,3.018a2.712,2.712,0,0,1-1.822,2.8l1.822,3.7Zm-1.128-7.666h-2.488v2.447h2.488c.884,0,1.359-.408,1.359-1.237,0-.856-.517-1.209-1.359-1.209" transform="translate(6554.386 7631.947)" fill="#fff"/><path d="M2162.723,1501.407a4.41,4.41,0,0,1-3.7-1.727l1.373-1.223a3.085,3.085,0,0,0,2.433,1.087c1.128,0,1.659-.313,1.659-1.033,0-.612-.327-.883-2.121-1.291-1.753-.408-2.977-.966-2.977-2.841,0-1.727,1.523-2.786,3.4-2.786a4.547,4.547,0,0,1,3.466,1.495l-1.373,1.332a2.9,2.9,0,0,0-2.162-.979c-1.019,0-1.359.435-1.359.857,0,.6.407.788,1.917,1.142s3.181.87,3.181,2.936c0,1.806-1.141,3.03-3.738,3.03" transform="translate(6345.434 7635.302)" fill="#fff"/><rect width="1.903" height="9.515" transform="translate(8514.043 9127.044)" fill="#fff"/><path d="M2481.34,1496.974v7.639h-1.9v-7.639h-2.732V1495.1h7.367v1.876Z" transform="translate(6041.212 7631.946)" fill="#fff"/><path d="M2677.618,1500.857v3.765h-1.9V1500.9l-3.6-5.791h2.188l1.346,2.257c.34.571.856,1.508,1.033,1.862.177-.354.68-1.264,1.033-1.862l1.346-2.257h2.161Z" transform="translate(5854.082 7631.937)" fill="#fff"/><path d="M669.708,1371.368a1.316,1.316,0,1,1,1.318,1.315,1.318,1.318,0,0,1-1.318-1.315" transform="translate(7771.662 7751.695)" fill="#fff"/><path d="M0,683.588A1.314,1.314,0,1,1,1.314,684.9,1.313,1.313,0,0,1,0,683.588" transform="translate(8413 8410.339)" fill="#fff"/></g></g></svg>