<svg version="1.2" xmlns="http://www.w3.org/2000/svg" viewBox="0 0 355 120" width="355" height="120">
	<title>logo-binus-reward-svg</title>
	<defs>
		<clipPath clipPathUnits="userSpaceOnUse" id="cp1">
			<path d="m0 0h355v120h-355z"/>
		</clipPath>
	</defs>
	<style>
		.s0 { fill: #ffffff } 
		.s1 { fill: #f08700 } 
	</style>
	<g id="Clip-Path" clip-path="url(#cp1)">
		<g id="Layer">
			<path id="Layer" class="s0" d="m72.1 57h2.3v2.3h-2.3z"/>
			<path id="Layer" class="s0" d="m74.8 57h2.4v2.3h-2.4z"/>
			<path id="Layer" class="s0" d="m77.6 57h2.3v2.3h-2.3z"/>
			<path id="Layer" class="s0" d="m80.3 57h2.4v2.3h-2.4z"/>
			<path id="Layer" class="s0" d="m72.1 54.2h2.3v2.4h-2.3z"/>
			<path id="Layer" class="s0" d="m74.8 54.2h2.4v2.4h-2.4z"/>
			<path id="Layer" class="s0" d="m77.6 54.2h2.3v2.4h-2.3z"/>
			<path id="Layer" class="s0" d="m80.3 54.2h2.4v2.4h-2.4z"/>
			<path id="Layer" class="s0" d="m85.9 54.2h2.3v2.4h-2.3z"/>
			<path id="Layer" class="s0" d="m72.1 51.5h2.3v2.4h-2.3z"/>
			<path id="Layer" class="s0" d="m74.8 51.5h2.4v2.4h-2.4z"/>
			<path id="Layer" class="s0" d="m80.3 51.5h2.4v2.4h-2.4z"/>
			<path id="Layer" class="s0" d="m83.1 51.5h2.3v2.4h-2.3z"/>
			<path id="Layer" class="s0" d="m85.9 51.5h2.3v2.4h-2.3z"/>
			<path id="Layer" class="s0" d="m74.8 48.8h2.4v2.4h-2.4z"/>
			<path id="Layer" class="s0" d="m77.6 48.8h2.3v2.4h-2.3z"/>
			<path id="Layer" class="s0" d="m80.3 48.8h2.4v2.4h-2.4z"/>
			<path id="Layer" class="s0" d="m83.1 48.8h2.3v2.4h-2.3z"/>
			<path id="Layer" class="s0" d="m88.6 48.8h2.4v2.4h-2.4z"/>
			<path id="Layer" class="s0" d="m74.8 46.1h2.4v2.4h-2.4z"/>
			<path id="Layer" class="s0" d="m77.6 46.1h2.3v2.4h-2.3z"/>
			<path id="Layer" class="s0" d="m80.3 46.1h2.4v2.4h-2.4z"/>
			<path id="Layer" class="s0" d="m83.1 46.1h2.3v2.4h-2.3z"/>
			<path id="Layer" class="s0" d="m85.9 46.1h2.3v2.4h-2.3z"/>
			<path id="Layer" class="s0" d="m88.6 46.1h2.4v2.4h-2.4z"/>
			<path id="Layer" class="s0" d="m91.4 46.1h2.3v2.4h-2.3z"/>
			<path id="Layer" class="s0" d="m96.9 46.1h2.3v2.4h-2.3z"/>
			<path id="Layer" class="s0" d="m80.3 43.4h2.4v2.4h-2.4z"/>
			<path id="Layer" class="s0" d="m83.1 43.4h2.3v2.4h-2.3z"/>
			<path id="Layer" class="s0" d="m88.6 43.4h2.4v2.4h-2.4z"/>
			<path id="Layer" class="s0" d="m94.1 43.4h2.4v2.4h-2.4z"/>
			<path id="Layer" class="s0" d="m77.6 40.7h2.3v2.4h-2.3z"/>
			<path id="Layer" class="s0" d="m80.3 40.7h2.4v2.4h-2.4z"/>
			<path id="Layer" class="s0" d="m83.1 40.7h2.3v2.4h-2.3z"/>
			<path id="Layer" class="s0" d="m85.9 40.7h2.3v2.4h-2.3z"/>
			<path id="Layer" class="s0" d="m88.6 40.7h2.4v2.4h-2.4z"/>
			<path id="Layer" class="s0" d="m94.1 40.7h2.4v2.4h-2.4z"/>
			<path id="Layer" class="s0" d="m107.9 40.7h2.4v2.4h-2.4z"/>
			<path id="Layer" class="s0" d="m80.3 38h2.4v2.4h-2.4z"/>
			<path id="Layer" class="s0" d="m85.9 38h2.3v2.4h-2.3z"/>
			<path id="Layer" class="s0" d="m91.4 38h2.3v2.4h-2.3z"/>
			<path id="Layer" class="s0" d="m96.9 38h2.3v2.4h-2.3z"/>
			<path id="Layer" class="s0" d="m88.6 35.3h2.4v2.4h-2.4z"/>
			<path id="Layer" class="s0" d="m94.1 35.3h2.4v2.4h-2.4z"/>
			<path id="Layer" class="s0" d="m91.4 32.6h2.3v2.4h-2.3z"/>
			<path id="Layer" class="s0" d="m96.9 32.6h2.3v2.4h-2.3z"/>
			<path id="Layer" class="s0" d="m102.4 32.6h2.3v2.4h-2.3z"/>
			<path id="Layer" class="s0" d="m88.6 29.9h2.4v2.4h-2.4z"/>
			<path id="Layer" class="s0" d="m102.4 27.2h2.3v2.3h-2.3z"/>
			<path id="Layer" class="s0" d="m110.7 27.2h2.3v2.3h-2.3z"/>
			<path id="Layer" class="s0" d="m102.4 24.5h2.3v2.3h-2.3z"/>
			<path id="Layer" class="s0" d="m102.4 21.8h2.3v2.3h-2.3z"/>
			<path id="Layer" class="s0" d="m105.2 19.1h2.3v2.3h-2.3z"/>
			<path id="Layer" class="s0" d="m65.6 51.7h6v1.2h-6z"/>
			<path id="Layer" fill-rule="evenodd" class="s0" d="m81.8 59.8c-2.8 3.1-9.4 8.4-24.3 13.7-26.5 9.4-52.3-1.9-37.2-23.4 14.8-21 38.2-26 40.7-26.4 2.4-0.4 6.5-0.6 4.5 0-2 0.6-5.7 2.1-5.5 2.7 0.2 0.6 2.7-0.1 4-0.3 1.4-0.2 1.4 0.8 0.6 1.2-0.8 0.4-1.5 0-1 0.5 0.6 0.5 0.3 0.9-0.6 1.2-0.8 0.4-3 0.2-3.8 1-0.8 0.7 1.4 0.7 3 0.1 1.5-0.7 1.8-0.8 3.5-0.9 1.7-0.1 0.1 0.9 1 1.3 0.8 0.3 4.9-0.5 3.8 0.2-1 0.6 2.1 0.6-0.1 1.2-2.1 0.7-22.2 2.9-37.7 13-15.4 10.1-17.4 31 8.8 25.8 19.2-3.8 27.2-12.5 30.1-17v6.1zm-21.8-27.8c-1.4-0.1-1.2 0.3-1.6 0.5-0.5 0.3 0.9 0.5 1.9 0.4 1 0 1-0.7-0.3-0.9zm-1-4.7c-1-0.1-0.9 0.2-2.2 0.4-1.3 0.2-2 1.5-0.7 1.4 1.3-0.2 1.8-0.2 2.9-0.7 1.2-0.4 0-1.1 0-1.1z"/>
			<path id="Layer" class="s1" d="m38.1 52.6c0-6.9 5.6-12.5 12.5-12.5 7 0 12.6 5.6 12.6 12.5 0 6.9-5.6 12.5-12.6 12.5-6.9 0-12.5-5.6-12.5-12.5z"/>
			<path id="Layer" fill-rule="evenodd" class="s0" d="m42.2 47.2c-0.6-1.3 0-2.7 1.2-3.3 1.3-0.5 2.7 0.1 3.3 1.3 0.5 1.2 0 2.7-1.3 3.2-1.2 0.6-2.7 0-3.2-1.2zm25.5-22.9c-1 0.4-2.2 0.5-2.1 0 0.1-0.4 1.4-0.2 1.7-0.7 0.4-0.5 2.8-0.5 2.8 0.1 0 0.5-1.4 0.2-2.4 0.6zm2.4 1.9c-1.2-0.2-1.1 0.1-2.3 0.1-1.2 0-1.9-0.5-1.4-0.5 0.4 0 1.3-0.4 2-0.7 0.8-0.4 3.1-0.2 3.5 0.2 0.3 0.4-0.6 1.1-1.8 0.9zm-0.1 0.9c0.9 0.1 1 0.8 0.3 0.8-0.7 0.1-1.2 0.2-2.7 0.5-1.4 0.3-2.1-0.2-1.4-0.4 0.7-0.1 1-0.3 2.2-0.6 0 0 0.8-0.3 1.6-0.3zm2.2 0.5c-0.9-0.2-0.9-0.2-0.4-0.6 0.5-0.3 1.7-0.6 2.1-0.1 0 0.3-0.8 0.8-1.7 0.7zm4.6 1.2c-1-0.2-2 0.3-2.9 0.5-1 0.2-3.2 0.5-3.7-0.1-0.5-0.5 0.8-0.6 1.7-0.6 0.9 0 1.4-0.5 1.9-0.4 0.4 0.1 2.9-0.2 3.2-0.1 0.1 0.1 0.7 0.9-0.2 0.7z"/>
			<path id="Layer" class="s0" d="m4.4 51.7h30.9v1.1h-30.9z"/>
			<path id="Layer" class="s0" d="m50.1 69h1.1v30.8h-1.1z"/>
			<path id="Layer" class="s0" d="m50.1 5.1h1.1v30.8h-1.1z"/>
			<path id="Layer" class="s0" d="m88.6 51.7h89.4v1.2h-89.4z"/>
			<path id="Layer" fill-rule="evenodd" class="s0" d="m177.9 52.3c0-1.2 1-2.2 2.2-2.2 1.3 0 2.3 1 2.3 2.2 0 1.2-1 2.2-2.3 2.2-1.2 0-2.2-1-2.2-2.2zm-129.5-49.4c0-1.2 1-2.2 2.3-2.2 1.2 0 2.2 1 2.2 2.2 0 1.3-1 2.3-2.2 2.3-1.3 0-2.3-1-2.3-2.3zm0.1 99.1c0-1.3 1-2.3 2.2-2.3 1.2 0 2.2 1 2.2 2.3 0 1.2-1 2.2-2.2 2.2-1.2 0-2.2-1-2.2-2.2zm-48.5-49.7c0-1.3 1-2.3 2.2-2.3 1.3 0 2.3 1 2.3 2.3 0 1.2-1 2.2-2.3 2.2-1.2 0-2.2-1-2.2-2.2zm86.2 39.9q0 3.5-2.2 5.5-2.1 1.9-6.6 1.9h-11.1v-23.2h11.2q4.3 0.1 6.2 1.6 1.9 1.6 1.9 4.5 0 1.9-0.8 2.9-0.8 1-2 1.6 1.6 0.7 2.5 1.9 0.9 1.3 0.9 3.3zm-6.9-8.9q0-0.7-0.4-1.3-0.4-0.5-1.6-0.5h-4.8v3.7h4.8q1.1 0 1.6-0.5 0.4-0.5 0.4-1.4zm0.6 9q0-1.1-0.6-1.7-0.6-0.5-1.7-0.5h-5.1v4.5h5q1.2 0 1.8-0.7 0.6-0.6 0.6-1.6z"/>
			<path id="Layer" class="s0" d="m88.7 76.4h6.6v23.2h-6.6z"/>
			<path id="Layer" fill-rule="evenodd" class="s0" d="m113.8 99.6l-5.5-7.6q-0.4-0.6-1-1.3-0.5-0.8-1-1.6-0.5-0.8-1-1.5-0.4-0.7-0.7-1.1 0.1 0.4 0.1 1.2 0.1 0.7 0.1 1.5 0 0.8 0 1.7v8.7h-6.1v-23.2h5.6l5.1 6.9q0.4 0.5 1 1.3 0.5 0.8 1.1 1.6 0.5 0.8 0.9 1.5 0.5 0.7 0.6 1.1 0-0.4 0-1.1-0.1-0.8-0.1-1.6 0-0.8-0.1-1.7v-8h6.2v23.2zm23.4 0l-1.2-4.1h-7l-1.2 4.1h-6.9l8.4-23.2h6.5l8.4 23.2zm-3.2-10.7q-0.3-1.1-0.6-1.9-0.2-0.9-0.4-1.5-0.2-0.7-0.3-1.2-0.1-0.6-0.2-1.2-0.1 0.6-0.3 1.2-0.1 0.6-0.3 1.2-0.2 0.7-0.4 1.5-0.2 0.8-0.5 1.9l-0.5 1.5h3.9zm36.1 10.7l-5.5-7.6q-0.4-0.5-1-1.3-0.5-0.8-1-1.6-0.5-0.8-1-1.4-0.4-0.7-0.7-1.1 0.1 0.4 0.1 1.1 0.1 0.7 0.1 1.5 0.1 0.9 0 1.8v8.6h-6.1v-23.1h5.7l5 6.8c0.3 0.4 0.6 0.8 1 1.3q0.5 0.8 1.1 1.6 0.5 0.8 0.9 1.5 0.5 0.7 0.7 1.1-0.1-0.4-0.1-1.1-0.1-0.7-0.1-1.6 0-0.8 0-1.7v-7.9h6.1v23.1zm27.9-5.2q-0.8 2-2.1 3.2-1.4 1.3-3.3 1.8-1.9 0.6-4 0.6-2.2 0-4.1-0.6-1.9-0.5-3.2-1.8-1.3-1.2-2.1-3.2-0.8-1.9-0.8-4.7v-13.2h6.6v13.2q0 2.2 0.9 3.4 0.9 1.2 2.7 1.2 1.9 0 2.8-1.2 0.8-1.2 0.8-3.4v-13.2h6.6v13.2q0 2.8-0.8 4.7zm22.3-1.9q0 2-0.7 3.4-0.7 1.5-2 2.4-1.3 0.8-3 1.3-1.8 0.4-3.8 0.4-2.9 0-5.4-0.8c-1.8-0.6-3.2-1.2-4.4-2l3.1-5q0.6 0.4 1.5 0.8 0.8 0.4 1.7 0.7 0.9 0.4 1.9 0.6 0.9 0.2 1.7 0.2 1.7 0 2.3-0.4 0.7-0.3 0.7-1.1 0-0.4-0.2-0.6-0.2-0.3-0.6-0.5-0.5-0.3-1.2-0.5-0.8-0.3-2-0.5-2-0.5-3.6-1.1-1.6-0.6-2.6-1.4-1-0.9-1.5-2-0.5-1.2-0.5-3 0-1.6 0.6-3 0.7-1.3 1.9-2.3 1.1-0.9 2.8-1.5 1.7-0.5 3.8-0.5 3 0 5.2 0.7 2.2 0.7 4.1 2l-3.2 5q-1.5-1-3.1-1.6-1.5-0.6-3.3-0.6-1.5 0-1.9 0.4-0.5 0.4-0.5 1.1 0 0.3 0.2 0.5 0.2 0.3 0.6 0.5 0.4 0.2 1.2 0.4 0.7 0.2 1.8 0.5 2.2 0.5 3.8 1.2 1.6 0.6 2.6 1.5 1 0.8 1.5 2 0.5 1.2 0.5 2.8zm16.7 7.1l-1.2-4h-7l-1.3 4h-6.9l8.5-23.1h6.5l8.4 23.1zm-3.3-10.7q-0.3-1.1-0.5-1.9-0.2-0.8-0.4-1.5-0.2-0.7-0.3-1.2-0.2-0.6-0.3-1.1-0.1 0.5-0.2 1.1-0.1 0.6-0.3 1.2-0.2 0.7-0.4 1.5-0.3 0.8-0.6 1.9l-0.4 1.6h3.9zm27.1 10.7l-5.5-7.7q-0.4-0.5-1-1.3-0.5-0.8-1-1.6-0.5-0.7-1-1.4-0.4-0.7-0.7-1.1 0.1 0.4 0.1 1.1 0.1 0.7 0.1 1.5 0 0.9 0 1.8v8.7h-6.1v-23.2h5.6l5.1 6.8q0.4 0.6 1 1.4 0.5 0.8 1.1 1.5 0.5 0.8 0.9 1.5 0.5 0.7 0.7 1.1-0.1-0.4-0.1-1.1-0.1-0.7-0.1-1.6 0-0.8 0-1.7v-7.9h6.1v23.2z"/>
			<path id="Layer" class="s0" d="m281.2 82v17.6h-6.4v-17.6h-6.5v-5.6h19.4v5.6z"/>
			<path id="Layer" fill-rule="evenodd" class="s0" d="m301.9 99.6l-1.3-4.1h-7l-1.2 4.1h-6.9l8.4-23.2h6.5l8.4 23.2zm-3.2-10.7q-0.3-1.1-0.6-1.9-0.2-0.9-0.4-1.5-0.2-0.7-0.3-1.2-0.1-0.6-0.2-1.2-0.1 0.6-0.3 1.2-0.1 0.6-0.3 1.2-0.2 0.7-0.4 1.5-0.2 0.8-0.5 1.9l-0.5 1.5h3.9zm24.7 10.7l-3.8-7.8h-2.6v7.8h-6.3v-23.1h10.4q2 0 3.7 0.4 1.7 0.4 2.8 1.3 1.2 0.9 1.9 2.3 0.6 1.5 0.6 3.5 0 2.6-1.1 4.3-1.1 1.6-3.1 2.5l4.7 8.8zm0.3-15.4q0-1.1-0.6-1.8-0.7-0.7-2.2-0.7h-3.9v5.1h3.8q1.6 0 2.3-0.7 0.6-0.7 0.6-1.9zm23.8 15.4l-1.3-4h-7l-1.2 4h-6.9l8.4-23.1h6.5l8.4 23.1zm-3.2-10.7q-0.3-1.1-0.6-1.9-0.2-0.8-0.4-1.5-0.2-0.7-0.3-1.2-0.1-0.6-0.2-1.1-0.1 0.5-0.3 1.1-0.1 0.6-0.3 1.2-0.1 0.7-0.4 1.5-0.2 0.8-0.5 1.9l-0.4 1.6h3.8z"/>
		</g>
	</g>
</svg>