<svg width="84" height="57" viewBox="0 0 84 88" fill="none" xmlns="http://www.w3.org/2000/svg">
<path d="M63.0366 0.119141H7.72716C3.45935 0.119141 0 3.59544 0 7.88243V76.922C0 82.4921 4.49406 87.0072 10.0383 87.0072H63.0373C67.3051 87.0072 70.7645 83.5309 70.7645 79.2439V7.88321C70.7645 3.59544 67.3044 0.119141 63.0366 0.119141Z" fill="#015581"/>
<path d="M63.0458 87.0071H9.85327V73.887H63.045C67.3216 73.887 70.7645 70.9362 70.7645 67.3005V80.4075C70.7652 84.0564 67.3069 87.0071 63.0458 87.0071Z" fill="#0F526D"/>
<path d="M7.77329 0.119141C3.48 0.119141 0 3.59992 0 7.89244V77.0209C0 82.5983 4.52089 87.1191 10.0982 87.1191H12.5987V0.119141H7.77329Z" fill="#4F4F4F"/>
<path d="M15.3423 0.119141H12.5979V87.0492H15.3423V0.119141Z" fill="#282A2C"/>
<path d="M63.1641 73.764H10.1612C7.02286 73.764 4.47876 75.9265 4.47876 78.5941C4.47876 81.2616 7.02286 83.4241 10.1612 83.4241H63.1603C67.3632 83.4241 70.7645 80.5292 70.7645 76.9606V67.3005C70.7645 70.8691 67.3632 73.764 63.1641 73.764Z" fill="white"/>
<path d="M70.7397 69.092V72.9739C70.7397 77.2607 67.2642 80.7368 62.9695 80.7368H5.05604C4.03054 79.3932 4.47865 77.6017 4.84943 76.855H62.9742C67.2642 76.855 70.7397 73.3788 70.7397 69.092Z" fill="#DFDFDF"/>
<g clip-path="url(#clip0_16191_11724)">
<path d="M19 54.8838H65V69.1191H19V54.8838Z" fill="white"/>
<path d="M40.2307 54.8838H64.9999V69.1191H40.2307V54.8838Z" fill="#E9EDF5"/>
<path d="M45.5386 61.3545H58.8078V63.2957H45.5386V61.3545Z" fill="#BEC3D2"/>
<path d="M26.9614 65.2368H58.8076V67.178H26.9614V65.2368Z" fill="#DCE1EB"/>
</g>
<g clip-path="url(#clip1_16191_11724)">
<path d="M58.6706 38.9162L59.4217 37.5447L65.084 40.6459L64.3328 42.0175L63.5816 43.389L57.9193 40.2877L58.6706 38.9162Z" fill="#DFE7F4"/>
<path d="M64.3374 42.0139L58.676 38.9131L57.9249 40.2844L63.5863 43.3852L64.3374 42.0139Z" fill="#C7CFE1"/>
<path d="M24.3948 20.143C26.8958 15.5766 31.135 11.9622 36.5151 10.39C47.2753 7.24544 58.5885 13.4417 61.733 24.202C63.3052 29.5821 62.5423 35.1004 60.0413 39.6668C57.5402 44.2332 53.3011 47.8476 47.921 49.4199C37.1607 52.5644 25.8476 46.3681 22.7031 35.6079C21.1308 30.2277 21.8937 24.7094 24.3948 20.143Z" fill="#0097DA"/>
<path d="M27.1366 21.645C29.2528 17.7812 32.8398 14.7229 37.3924 13.3925C46.4975 10.7316 56.0698 15.9745 58.7306 25.0795C60.061 29.6321 59.4155 34.3015 57.2993 38.1653C55.1831 42.029 51.5961 45.0873 47.0435 46.4178C37.9384 49.0786 28.3661 43.8358 25.7053 34.7307C24.3749 30.1781 25.0204 25.5087 27.1366 21.645Z" fill="#4AC7FF"/>
<path d="M29.8784 23.1467C31.6098 19.9854 34.5446 17.4833 38.2697 16.3947C45.7197 14.2176 53.5511 18.5069 55.7282 25.9569C56.8168 29.6819 56.2888 33.5023 54.5573 36.6635C52.8258 39.8247 49.8911 42.3268 46.1661 43.4154C38.7161 45.5926 30.8847 41.3033 28.7075 33.8533C27.6189 30.1282 28.1469 26.3079 29.8784 23.1467Z" fill="#015581"/>
<path d="M62.9613 41.2664L65.2149 37.1519L79.6513 45.0586C81.9189 46.3005 82.7534 49.1562 81.5138 51.4263L81.5133 51.4272L81.5128 51.4281C80.269 53.6947 77.4094 54.5307 75.1442 53.2876L60.7079 45.3809L62.9613 41.2664Z" fill="#F29B2B"/>
<path d="M75.144 53.2879L60.7076 45.3811L62.9611 41.2665L81.513 51.4274L81.5125 51.4283C80.2687 53.6948 77.409 54.531 75.144 53.2879Z" fill="#F29B2B"/>
<path d="M36.8786 26.7772L37.9844 25.6715L39.0901 24.5657L42.218 27.6935L45.3459 24.5657L47.5574 26.7772L44.4295 29.9051L47.5574 33.0329L46.4516 34.1386L45.3459 35.2444L42.218 32.1166L39.0901 35.2444L36.8786 33.0329L40.0065 29.9051L36.8786 26.7772Z" fill="#F0F7FF"/>
</g>
<defs>
<clipPath id="clip0_16191_11724">
<rect x="19" y="58.1191" width="46" height="11" rx="4" fill="white"/>
</clipPath>
<clipPath id="clip1_16191_11724">
<rect width="53.3824" height="53.3824" fill="white" transform="matrix(-0.959853 0.280502 0.280502 0.959853 68.2393 1.11914)"/>
</clipPath>
</defs>
</svg>
