<svg width="73" height="57" viewBox="0 0 73 90" fill="none" xmlns="http://www.w3.org/2000/svg">
<g clip-path="url(#clip0_4302_20587)">
<path d="M62.8923 0H8.98461C4.02255 0 0 4.16838 0 9.31033V80.6898C0 85.8316 4.02255 90 8.98461 90H62.8923C67.8543 90 71.8769 85.8316 71.8769 80.6898V9.31033C71.8769 4.16838 67.8543 0 62.8923 0Z" fill="#A0A0A0"/>
<path d="M63.1138 0H9.01626C4.03673 0 0 4.04364 0 9.0317V78.2747C0 83.2629 4.03673 87.3065 9.01626 87.3065H63.1138C68.0933 87.3065 72.1302 83.2629 72.1302 78.2747V9.0317C72.1302 4.04364 68.0933 0 63.1138 0Z" fill="#787878"/>
<path d="M65.9084 10.9583C65.6029 10.1708 64.9813 9.54815 64.1951 9.24223C63.8515 9.10313 63.4839 9.03161 63.1133 9.03149H9.01569C7.35789 9.03647 6.01522 10.3814 6.01025 12.0421V75.264C6.01228 75.4099 6.02233 75.5556 6.04032 75.7005C6.12618 76.3167 6.41122 76.8876 6.85178 77.3261C7.40621 77.9353 8.19279 78.2801 9.01569 78.2745H63.1133C64.771 78.2697 66.1136 76.9247 66.1187 75.264V12.0421C66.1187 11.6706 66.0471 11.3027 65.9084 10.9583Z" fill="#C0C0C0"/>
<path d="M36.0651 85.4309C37.5691 85.4309 38.7885 84.2092 38.7885 82.7025C38.7885 81.1956 37.5691 79.9741 36.0651 79.9741C34.5607 79.9741 33.3413 81.1956 33.3413 82.7025C33.3413 84.2092 34.5607 85.4309 36.0651 85.4309Z" fill="#2D2D2D"/>
<path d="M40.7546 5.88546C41.4841 5.88546 42.0751 5.2934 42.0751 4.56271C42.0751 3.83205 41.4841 3.23999 40.7546 3.23999H35.4147C34.6853 3.23999 34.0942 3.83205 34.0942 4.56271C34.0942 5.2934 34.6855 5.88546 35.4147 5.88546H40.7546Z" fill="#676767"/>
<path d="M32.2585 4.57261C32.2585 3.83663 31.6627 3.23999 30.9279 3.23999C30.1934 3.23999 29.5977 3.83663 29.5977 4.57261C29.5977 5.30875 30.1934 5.90523 30.9279 5.90523C31.6627 5.90523 32.2585 5.30858 32.2585 4.57261Z" fill="#2D2D2D"/>
<path fill-rule="evenodd" clip-rule="evenodd" d="M17.9722 63.9998C17.9722 63.4478 18.4191 63 18.9705 63H53.9106C54.4621 63 54.909 63.4478 54.909 63.9998C54.909 64.5522 54.4621 65 53.9106 65H18.9705C18.4191 65 17.9722 64.5522 17.9722 63.9998Z" fill="white"/>
<path fill-rule="evenodd" clip-rule="evenodd" d="M23.9619 68.9998C23.9619 68.4475 24.4089 68 24.9602 68H49.9176C50.4687 68 50.9157 68.4475 50.9157 68.9998C50.9157 69.5522 50.4687 70 49.9176 70H24.9602C24.4089 70 23.9619 69.5522 23.9619 68.9998Z" fill="white"/>
<path d="M12.9785 21.8667C12.9785 18.6266 15.6006 16 18.8351 16H51.0468C54.2812 16 56.9033 18.6266 56.9033 21.8667V43.238H12.9785V21.8667Z" fill="#888888"/>
<path d="M40.3768 29.8294C40.3768 30.1428 40.0576 30.368 40.0576 30.368L31.1044 35.9236C30.4519 36.3519 29.9185 36.0347 29.9185 35.2227V24.4354C29.9185 23.6214 30.4519 23.306 31.1055 23.7335L40.0587 29.2911C40.0576 29.2911 40.3768 29.5164 40.3768 29.8294Z" fill="white"/>
<path d="M12.9761 43.2378H56.9007V51.6188C56.9007 54.859 54.2786 57.4856 51.0442 57.4856H18.8327C15.5982 57.4856 12.9761 54.859 12.9761 51.6188V43.2378Z" fill="#5C5D5E"/>
<path d="M18.833 50.5713C18.833 49.9925 19.3012 49.5237 19.8788 49.5237H50.4169C50.9947 49.5237 51.4628 49.9925 51.4628 50.5713C51.4628 51.1499 50.9947 51.619 50.4169 51.619H19.8788C19.3012 51.619 18.833 51.1499 18.833 50.5713Z" fill="#C4C4C4"/>
<path d="M28.4539 50.5713C28.4539 52.0757 27.2365 53.2952 25.7348 53.2952C24.233 53.2952 23.0156 52.0757 23.0156 50.5713C23.0156 49.0669 24.233 47.8474 25.7348 47.8474C27.2365 47.8474 28.4539 49.0669 28.4539 50.5713Z" fill="#F5F5F5"/>
<path fill-rule="evenodd" clip-rule="evenodd" d="M15.9741 19.4998C15.9741 19.2236 16.1976 18.9998 16.4733 18.9998H19.4682C19.7438 18.9998 19.9673 19.2236 19.9673 19.4998C19.9673 19.7759 19.7438 19.9998 19.4682 19.9998H16.9724V22.4998C16.9724 22.7759 16.7489 22.9998 16.4733 22.9998C16.1976 22.9998 15.9741 22.7759 15.9741 22.4998V19.4998Z" fill="white"/>
<path fill-rule="evenodd" clip-rule="evenodd" d="M54.9016 40.4996C54.9016 40.7758 54.6781 40.9997 54.4024 40.9997H51.4074C51.1317 40.9997 50.9082 40.7758 50.9082 40.4996C50.9082 40.2234 51.1317 39.9996 51.4074 39.9996H53.9032V37.4998C53.9032 37.2236 54.1267 36.9998 54.4024 36.9998C54.6781 36.9998 54.9016 37.2236 54.9016 37.4998V40.4996Z" fill="white"/>
</g>
<defs>
<clipPath id="clip0_4302_20587">
<rect width="73" height="90" fill="white"/>
</clipPath>
</defs>
</svg>
