<svg xmlns="http://www.w3.org/2000/svg" xmlns:xlink="http://www.w3.org/1999/xlink" width="208" height="208" viewBox="0 0 208 208">
  <defs>
    <clipPath id="clip-path">
      <path id="Path" d="M208,98.5c0-31.5-20.48-57.9-48.045-65.006h0a87.933,87.933,0,0,1-18.219-6.668A109.892,109.892,0,0,1,127.2,17.569h0A75.632,75.632,0,0,0,78.913,0C35.369,0,0,37.574,0,83.932a85.916,85.916,0,0,0,28.572,64.611h0a46.53,46.53,0,0,0,5.723,4.617,77.456,77.456,0,0,0,15.3,8.688c12.464,5.792,30.833,11.755,56.125,13.807,44.444,3.665,76.359-23.051,76.359-23.051h0A68.223,68.223,0,0,0,208,98.5Z" fill="#e6e6e6"/>
    </clipPath>
  </defs>
  <g id="ilustrasi-no-upcoming-class" transform="translate(-572 -326)">
    <rect id="Rectangle_2266" data-name="Rectangle 2266" width="208" height="208" transform="translate(572 326)" fill="#fff" opacity="0"/>
    <g id="ilustrasi-no-upcoming-class-2" data-name="ilustrasi-no-upcoming-class" transform="translate(572 342)">
      <path id="Path-2" data-name="Path" d="M208,98.5c0-31.5-20.48-57.9-48.045-65.006h0a87.933,87.933,0,0,1-18.219-6.668A109.892,109.892,0,0,1,127.2,17.569h0A75.632,75.632,0,0,0,78.913,0C35.369,0,0,37.574,0,83.932a85.916,85.916,0,0,0,28.572,64.611h0a46.53,46.53,0,0,0,5.723,4.617,77.456,77.456,0,0,0,15.3,8.688c12.464,5.792,30.833,11.755,56.125,13.807,44.444,3.665,76.359-23.051,76.359-23.051h0A68.223,68.223,0,0,0,208,98.5Z" fill="#e6e6e6"/>
      <g id="ilustrasi-no-upcoming-class-3" data-name="ilustrasi-no-upcoming-class" clip-path="url(#clip-path)">
        <path id="Path-3" data-name="Path" d="M0,0S26.828,84.567,81.651,73.486,46.074,10.5,47.241,72.9s104.979,67.07,173.216,35.576S366.845,75.818,424,139.389" transform="translate(72 63)" fill="none" stroke="#fff" stroke-linecap="round" stroke-width="2" stroke-dasharray="8"/>
        <g id="Group_7" data-name="Group 7" transform="translate(30 17)">
          <path id="Path-4" data-name="Path" d="M104,82.922,34.328,103S-14.311,24.786,4.2,14.964L72.9,0C54.472,26.377,104,82.922,104,82.922" fill="#fff"/>
          <path id="Path-5" data-name="Path" d="M70.567,26,0,22.237v-.055l.929-3.8a6.953,6.953,0,0,1,3.166-3.459L73,0c-4.968,7.046-5.014,16.279-2.442,25.991Z" fill="#cecece"/>
          <path id="Path-6" data-name="Path" d="M0,15.368S7.44,13.723,10.77,23L80,7.444S75.5-1.278,69.017.16Z" transform="translate(4)" fill="#fff"/>
        </g>
      </g>
    </g>
  </g>
</svg>
