<svg width="355" height="120" viewBox="0 0 355 120" fill="none" xmlns="http://www.w3.org/2000/svg">
<g clip-path="url(#clip0_40_1078)">
<path d="M72.0657 59.301H74.4172V56.9576H72.0657V59.301Z" fill="white"/>
<path d="M74.8345 59.301H77.1684V56.9576H74.8345V59.301Z" fill="white"/>
<path d="M77.5769 59.301H79.9285V56.9576H77.5769V59.301Z" fill="white"/>
<path d="M80.3435 59.301H82.6818V56.9576H80.3435V59.301Z" fill="white"/>
<path d="M72.0657 56.5891H74.4172V54.2412H72.0657V56.5891Z" fill="white"/>
<path d="M74.8345 56.5891H77.1684V54.2412H74.8345V56.5891Z" fill="white"/>
<path d="M77.5769 56.5891H79.9285V54.2412H77.5769V56.5891Z" fill="white"/>
<path d="M80.3435 56.5891H82.6818V54.2412H80.3435V56.5891Z" fill="white"/>
<path d="M85.8613 56.5891H88.2063V54.2412H85.8613V56.5891Z" fill="white"/>
<path d="M72.0657 53.8859H74.4172V51.5491H72.0657V53.8859Z" fill="white"/>
<path d="M74.8345 53.8859H77.1684V51.5491H74.8345V53.8859Z" fill="white"/>
<path d="M80.3435 53.8859H82.6818V51.5491H80.3435V53.8859Z" fill="white"/>
<path d="M83.0969 53.8859H85.4463V51.5491H83.0969V53.8859Z" fill="white"/>
<path d="M85.8613 53.8859H88.2063V51.5491H85.8613V53.8859Z" fill="white"/>
<path d="M74.8345 51.1784H77.1684V48.8372H74.8345V51.1784Z" fill="white"/>
<path d="M77.5769 51.1784H79.9285V48.8372H77.5769V51.1784Z" fill="white"/>
<path d="M80.3435 51.1784H82.6818V48.8372H80.3435V51.1784Z" fill="white"/>
<path d="M83.0969 51.1784H85.4463V48.8372H83.0969V51.1784Z" fill="white"/>
<path d="M88.6082 51.1784H90.9707V48.8372H88.6082V51.1784Z" fill="white"/>
<path d="M74.8345 48.4797H77.1684V46.1318H74.8345V48.4797Z" fill="white"/>
<path d="M77.5769 48.4797H79.9285V46.1318H77.5769V48.4797Z" fill="white"/>
<path d="M80.3435 48.4797H82.6818V46.1318H80.3435V48.4797Z" fill="white"/>
<path d="M83.0969 48.4797H85.4463V46.1318H83.0969V48.4797Z" fill="white"/>
<path d="M85.8613 48.4797H88.2063V46.1318H85.8613V48.4797Z" fill="white"/>
<path d="M88.6082 48.4797H90.9707V46.1318H88.6082V48.4797Z" fill="white"/>
<path d="M91.3638 48.4797H93.7087V46.1318H91.3638V48.4797Z" fill="white"/>
<path d="M96.8926 48.4797H99.2375V46.1318H96.8926V48.4797Z" fill="white"/>
<path d="M80.3435 45.7721H82.6818V43.4331H80.3435V45.7721Z" fill="white"/>
<path d="M83.0969 45.7721H85.4463V43.4331H83.0969V45.7721Z" fill="white"/>
<path d="M88.6082 45.7721H90.9707V43.4331H88.6082V45.7721Z" fill="white"/>
<path d="M94.126 45.7721H96.4709V43.4331H94.126V45.7721Z" fill="white"/>
<path d="M77.5769 43.0757H79.9285V40.7256H77.5769V43.0757Z" fill="white"/>
<path d="M80.3435 43.0757H82.6818V40.7256H80.3435V43.0757Z" fill="white"/>
<path d="M83.0969 43.0757H85.4463V40.7256H83.0969V43.0757Z" fill="white"/>
<path d="M85.8613 43.0757H88.2063V40.7256H85.8613V43.0757Z" fill="white"/>
<path d="M88.6082 43.0757H90.9707V40.7256H88.6082V43.0757Z" fill="white"/>
<path d="M94.126 43.0757H96.4709V40.7256H94.126V43.0757Z" fill="white"/>
<path d="M107.911 43.0757H110.262V40.7256H107.911V43.0757Z" fill="white"/>
<path d="M80.3435 40.3637H82.6818V38.018H80.3435V40.3637Z" fill="white"/>
<path d="M85.8613 40.3637H88.2063V38.018H85.8613V40.3637Z" fill="white"/>
<path d="M91.3638 40.3637H93.7087V38.018H91.3638V40.3637Z" fill="white"/>
<path d="M96.8926 40.3637H99.2375V38.018H96.8926V40.3637Z" fill="white"/>
<path d="M88.6082 37.6606H90.9707V35.3149H88.6082V37.6606Z" fill="white"/>
<path d="M94.126 37.6606H96.4709V35.3149H94.126V37.6606Z" fill="white"/>
<path d="M91.3638 34.9597H93.7087V32.6162H91.3638V34.9597Z" fill="white"/>
<path d="M96.8926 34.9597H99.2375V32.6162H96.8926V34.9597Z" fill="white"/>
<path d="M102.393 34.9597H104.744V32.6162H102.393V34.9597Z" fill="white"/>
<path d="M88.6082 32.2521H90.9707V29.9042H88.6082V32.2521Z" fill="white"/>
<path d="M102.393 29.5468H104.744V27.2011H102.393V29.5468Z" fill="white"/>
<path d="M110.66 29.5468H113.011V27.2011H110.66V29.5468Z" fill="white"/>
<path d="M102.393 26.8481H104.744V24.4958H102.393V26.8481Z" fill="white"/>
<path d="M102.393 24.1383H104.744V21.7905H102.393V24.1383Z" fill="white"/>
<path d="M105.164 21.433H107.507V19.0851H105.164V21.433Z" fill="white"/>
<path d="M65.6357 52.8598H71.6328V51.7345H65.6357V52.8598Z" fill="white"/>
<path d="M58.9461 27.3072C57.9783 27.2057 58.0287 27.5088 56.7508 27.7152C55.4728 27.9223 54.7489 29.2388 56.0296 29.0966C57.311 28.9343 57.8726 28.8881 58.993 28.4262C60.1197 27.9699 58.9461 27.3072 58.9461 27.3072ZM59.9194 32.0471C58.5924 31.8952 58.6981 32.3467 58.332 32.5282C57.8726 32.7588 59.2024 32.9645 60.2254 32.9211C61.2457 32.8644 61.2457 32.2003 59.9194 32.0471ZM71.691 59.7512H72.0647H81.7618C78.9642 62.8799 72.3748 68.1865 57.4609 73.4739C31.0103 82.8708 5.16403 71.5899 20.2956 50.1113C35.0969 29.0966 58.5295 24.1385 60.9873 23.7312C63.4368 23.3218 67.5214 23.0678 65.5347 23.6787C63.5418 24.2966 59.8096 25.8243 60.0265 26.3842C60.2254 26.9517 62.6728 26.34 64.0433 26.1295C65.436 25.9313 65.436 26.8985 64.6153 27.3072C63.8036 27.7152 63.135 27.3072 63.6475 27.8111C64.1642 28.3289 63.8527 28.6817 63.0265 29.0427C62.219 29.3982 59.9664 29.2388 59.2024 29.9643C58.4273 30.6664 60.6274 30.6664 62.1617 30.0575C63.6938 29.45 64.0433 29.2947 65.7392 29.1911C67.4206 29.0965 65.8359 30.1134 66.6566 30.469C67.4724 30.8224 71.6143 30.0099 70.5408 30.6664C69.4687 31.3353 72.5876 31.3353 70.4337 31.9497C68.2889 32.5572 48.1775 34.805 32.7496 44.9123C17.3335 55.0148 15.295 75.9274 41.5384 70.7277C60.6716 66.9301 68.6805 58.198 71.6143 53.748V59.7512H71.691Z" fill="white"/>
<path d="M38.1484 52.6234C38.1484 45.7137 43.7472 40.1227 50.6488 40.1227C57.5697 40.1227 63.1692 45.7137 63.1692 52.6234C63.1692 59.5303 57.5697 65.12 50.6488 65.12C43.7472 65.12 38.1484 59.5303 38.1484 52.6234Z" fill="#F08700"/>
<path d="M42.1684 47.1748C41.6261 45.9473 42.1836 44.5038 43.4145 43.9488C44.6579 43.4014 46.1031 43.9592 46.6502 45.1962C47.2152 46.4285 46.6502 47.8755 45.4171 48.4257C44.1792 48.9752 42.7244 48.4167 42.1684 47.1748ZM70.0775 23.6836C70.0775 23.114 67.6825 23.0719 67.3171 23.5828C66.9676 24.0888 65.6869 23.8907 65.575 24.3428C65.4879 24.815 66.6567 24.6991 67.6825 24.3007C68.7076 23.8907 70.0775 24.2441 70.0775 23.6836ZM71.8665 25.2598C71.5101 24.8594 69.1538 24.6992 68.4409 25.0561C67.7246 25.4178 66.8045 25.7796 66.3534 25.7796C65.8947 25.7796 66.5586 26.3395 67.7806 26.3395C69.0012 26.3395 68.8554 26.0281 70.0774 26.2262C71.3049 26.434 72.2167 25.676 71.8665 25.2598ZM68.4409 27.4022C67.1734 27.715 66.8687 27.8634 66.1938 28.0215C65.5307 28.1727 66.1517 28.6842 67.6279 28.3784C69.1048 28.0726 69.5676 27.9697 70.2784 27.9221C71.001 27.8634 70.8946 27.2055 70.0256 27.1475C69.1642 27.1026 68.4409 27.4022 68.4409 27.4022ZM73.8579 26.9418C73.4662 26.3647 72.2691 26.7464 71.7552 27.0467C71.2578 27.3587 71.3497 27.4022 72.2166 27.5603C73.0911 27.715 73.8807 27.2055 73.8579 26.9418ZM77.0197 28.123C76.7033 27.9697 74.1605 28.3294 73.755 28.2265C73.3433 28.123 72.7845 28.6338 71.9148 28.6338C71.0458 28.6338 69.6753 28.6856 70.1768 29.2406C70.697 29.8033 72.8923 29.5002 73.858 29.2896C74.8333 29.0963 75.846 28.6338 76.7675 28.8382C77.6835 29.0377 77.1447 28.1533 77.0197 28.123Z" fill="white"/>
<path d="M4.41602 52.8223H35.2533V51.697H4.41602V52.8223Z" fill="white"/>
<path d="M50.1223 99.8192H51.2329V69.0014H50.1223V99.8192Z" fill="white"/>
<path d="M50.1223 35.9217H51.2329V5.11273H50.1223V35.9217Z" fill="white"/>
<path d="M88.637 52.8598H177.983V51.7345H88.637V52.8598Z" fill="white"/>
<path d="M177.896 52.297C177.896 51.0627 178.9 50.0555 180.146 50.0555C181.39 50.0555 182.389 51.0627 182.389 52.297C182.389 53.541 181.39 54.5469 180.146 54.5469C178.9 54.5469 177.896 53.541 177.896 52.297ZM48.4278 2.93282C48.4278 1.69917 49.4281 0.690582 50.6743 0.690582C51.9225 0.690582 52.9214 1.69917 52.9214 2.93282C52.9214 4.17958 51.9225 5.18472 50.6743 5.18472C49.4281 5.18472 48.4278 4.17958 48.4278 2.93282ZM48.4528 101.985C48.4528 100.747 49.4552 99.7413 50.6986 99.7413C51.9323 99.7413 52.945 100.747 52.945 101.985C52.945 103.225 51.9323 104.236 50.6986 104.236C49.4552 104.236 48.4528 103.225 48.4528 101.985ZM-0.000244141 52.262C-0.000244141 51.0194 1.0007 50.0164 2.24134 50.0164C3.4875 50.0164 4.48637 51.0194 4.48637 52.262C4.48637 53.4991 3.4875 54.5077 2.24134 54.5077C1.0007 54.5077 -0.000244141 53.4991 -0.000244141 52.262ZM79.8543 92.2642C79.8543 91.5808 79.6678 91.0457 79.2955 90.6488C78.9142 90.2491 78.347 90.053 77.5658 90.053H72.4768V94.5547H77.5388C78.3325 94.5547 78.9142 94.3435 79.2955 93.9107C79.6678 93.4744 79.8543 92.9269 79.8543 92.2642ZM79.33 83.3498C79.33 82.83 79.1856 82.3978 78.8921 82.0443C78.613 81.6833 78.0776 81.5169 77.3081 81.5169H72.4768V85.1806H77.3081C78.0555 85.1806 78.5847 85.0232 78.8713 84.6822C79.1856 84.3487 79.33 83.9048 79.33 83.3498ZM86.1515 92.151C86.1515 94.5258 85.4407 96.371 84.0066 97.6716C82.5691 98.9819 80.3855 99.6163 77.4456 99.6163H66.3067V76.4457H77.505C80.3855 76.4457 82.442 76.9772 83.7158 77.9996C84.9882 79.0448 85.6189 80.5387 85.6189 82.4869C85.6189 83.7426 85.346 84.7056 84.8189 85.369C84.2573 86.029 83.6191 86.5896 82.844 87.0321C83.8947 87.4739 84.7167 88.1 85.2921 88.9257C85.8682 89.7513 86.1515 90.8255 86.1515 92.151Z" fill="white"/>
<path d="M88.7363 99.6162H95.2898V76.4465H88.7363V99.6162Z" fill="white"/>
<path d="M113.784 99.6166L108.25 91.9752C107.989 91.6149 107.677 91.1868 107.322 90.6725C106.969 90.1417 106.621 89.6274 106.271 89.1075C105.938 88.5843 105.614 88.0996 105.32 87.6399C105.024 87.1759 104.79 86.8115 104.647 86.5443C104.694 86.8115 104.722 87.1759 104.739 87.6516C104.757 88.1203 104.776 88.6478 104.803 89.2049C104.824 89.7647 104.832 90.3495 104.832 90.9411V92.5454V99.6166H98.6755V76.4459H104.332L109.441 83.2962C109.705 83.6538 110.02 84.0839 110.387 84.6217C110.74 85.1588 111.108 85.6841 111.459 86.2046C111.81 86.7452 112.143 87.2381 112.422 87.7027C112.717 88.1673 112.921 88.5228 113.048 88.7527C113.003 88.4973 112.966 88.1203 112.955 87.6516C112.921 87.1759 112.906 86.6534 112.885 86.0866C112.862 85.5329 112.85 84.9613 112.85 84.3587V82.7702V76.4459H119.019V99.6166H113.784ZM133.957 88.9257C133.755 88.1725 133.581 87.5271 133.429 86.9769C133.278 86.4239 133.134 85.9227 133.012 85.4802C132.895 85.0425 132.793 84.6442 132.695 84.27C132.612 83.9193 132.529 83.5272 132.466 83.1365C132.398 83.5272 132.327 83.9193 132.242 84.2921C132.149 84.6725 132.043 85.0701 131.928 85.5126C131.8 85.951 131.663 86.4646 131.508 87.0093C131.357 87.5567 131.184 88.1939 130.979 88.9257L130.545 90.4424H134.38L133.957 88.9257ZM137.205 99.6163L135.937 95.5489H128.988L127.724 99.6163H120.846L129.252 76.4457H135.748L144.171 99.6163H137.205ZM170.068 99.6166L164.527 91.9752C164.266 91.6149 163.961 91.1868 163.607 90.6725C163.244 90.1417 162.903 89.6274 162.564 89.1075C162.217 88.5843 161.901 88.0996 161.608 87.6399C161.305 87.1759 161.08 86.8115 160.925 86.5443C160.961 86.8115 160.992 87.1759 161.021 87.6516C161.047 88.1203 161.073 88.6478 161.084 89.2049C161.117 89.7647 161.121 90.3495 161.121 90.9411V92.5454V99.6166H154.972V76.4459H160.631L165.723 83.2962C165.999 83.6538 166.294 84.0839 166.668 84.6217C167.036 85.1588 167.399 85.6841 167.738 86.2046C168.104 86.7452 168.42 87.2381 168.715 87.7027C168.994 88.1673 169.206 88.5228 169.341 88.7527C169.291 88.4973 169.261 88.1203 169.238 87.6516C169.218 87.1759 169.195 86.6534 169.177 86.0866C169.148 85.5329 169.139 84.9613 169.139 84.3587V82.7702V76.4459H175.305V99.6166H170.068ZM197.951 94.4148C197.422 95.7188 196.707 96.7847 195.79 97.6097C194.874 98.4346 193.792 99.0442 192.543 99.4225C191.305 99.8022 189.942 99.992 188.49 99.992C187.027 99.992 185.674 99.8022 184.438 99.4225C183.198 99.0442 182.142 98.4346 181.251 97.6097C180.359 96.7847 179.652 95.7188 179.146 94.4148C178.637 93.1183 178.382 91.5526 178.382 89.7177V76.4458H184.945V89.7177C184.945 91.1487 185.236 92.2712 185.822 93.1017C186.404 93.9108 187.32 94.3195 188.589 94.3195C189.845 94.3195 190.753 93.9108 191.317 93.1017C191.874 92.2712 192.165 91.1487 192.165 89.7177V76.4458H198.718V89.7177C198.718 91.5526 198.473 93.1183 197.951 94.4148ZM220.251 92.5002C220.251 93.8242 220.009 94.9661 219.547 95.9084C219.064 96.8673 218.403 97.6349 217.56 98.2355C216.71 98.8292 215.689 99.2745 214.531 99.5451C213.363 99.8399 212.079 99.9924 210.691 99.9924C208.802 99.9924 207.017 99.7115 205.301 99.1778C203.579 98.6311 202.135 97.9711 200.912 97.1703L204.027 92.1432C204.444 92.427 204.933 92.7093 205.502 92.9813C206.066 93.2581 206.644 93.5053 207.255 93.731C207.868 93.945 208.473 94.1169 209.09 94.2516C209.708 94.3958 210.287 94.4573 210.817 94.4573C211.961 94.4573 212.748 94.3558 213.183 94.1169C213.609 93.9105 213.831 93.5191 213.831 92.9627C213.831 92.7404 213.77 92.545 213.652 92.3711C213.531 92.193 213.317 92.0259 213.006 91.8588C212.715 91.6869 212.314 91.5261 211.796 91.3645C211.291 91.1892 210.654 91.0242 209.88 90.8461C208.496 90.5196 207.282 90.1647 206.244 89.7816C205.203 89.4116 204.34 88.9421 203.648 88.3781C202.981 87.8162 202.458 87.1327 202.122 86.3464C201.786 85.547 201.602 84.5716 201.602 83.3862C201.602 82.3134 201.82 81.329 202.248 80.4191C202.685 79.5224 203.293 78.7409 204.093 78.0989C204.884 77.461 205.85 76.964 206.975 76.6071C208.103 76.2522 209.36 76.0769 210.748 76.0769C212.738 76.0769 214.468 76.3075 215.932 76.77C217.405 77.247 218.768 77.8946 219.994 78.7665L216.877 83.7922C215.855 83.0942 214.797 82.5475 213.761 82.1712C212.728 81.7916 211.608 81.6114 210.417 81.6114C209.443 81.6114 208.802 81.7494 208.496 82.0042C208.181 82.2734 208.034 82.6165 208.034 83.0335C208.034 83.253 208.103 83.4498 208.208 83.6113C208.34 83.7756 208.539 83.9364 208.831 84.0724C209.103 84.216 209.497 84.3589 209.997 84.5074C210.477 84.651 211.094 84.8084 211.845 84.9885C213.3 85.3454 214.568 85.7231 215.608 86.1476C216.669 86.5639 217.548 87.0616 218.231 87.6401C218.92 88.209 219.433 88.8917 219.753 89.687C220.1 90.483 220.251 91.4218 220.251 92.5002ZM233.707 88.9257C233.506 88.1725 233.332 87.5271 233.178 86.9769C233.017 86.4239 232.89 85.9227 232.766 85.4802C232.646 85.0425 232.542 84.6442 232.449 84.27C232.361 83.9193 232.283 83.5272 232.22 83.1365C232.152 83.5272 232.074 83.9193 231.996 84.2921C231.897 84.6725 231.786 85.0701 231.674 85.5126C231.549 85.951 231.415 86.4646 231.261 87.0093C231.103 87.5567 230.929 88.1939 230.72 88.9257L230.291 90.4424H234.136L233.707 88.9257ZM236.954 99.6163L235.695 95.5489H228.734L227.486 99.6163H220.589L229.002 76.4457H235.496L243.913 99.6163H236.954ZM260.842 99.6166L255.302 91.9752C255.042 91.6149 254.738 91.1868 254.381 90.6725C254.032 90.1417 253.684 89.6274 253.327 89.1075C252.996 88.5843 252.667 88.0996 252.375 87.6399C252.071 87.1759 251.854 86.8115 251.694 86.5443C251.738 86.8115 251.781 87.1759 251.796 87.6516C251.825 88.1203 251.847 88.6478 251.862 89.2049C251.881 89.7647 251.892 90.3495 251.892 90.9411V92.5454V99.6166H245.735V76.4459H251.398L256.501 83.2962C256.76 83.6538 257.079 84.0839 257.446 84.6217C257.808 85.1588 258.171 85.6841 258.514 86.2046C258.871 86.7452 259.208 87.2381 259.479 87.7027C259.762 88.1673 259.981 88.5228 260.108 88.7527C260.066 88.4973 260.025 88.1203 260.008 87.6516C259.981 87.1759 259.972 86.6534 259.948 86.0866C259.925 85.5329 259.913 84.9613 259.913 84.3587V82.7702V76.4459H266.076V99.6166H260.842Z" fill="white"/>
<path d="M281.239 82.0448V99.6162H274.822V82.0448H268.322V76.4465H287.748V82.0448H281.239Z" fill="white"/>
<path d="M298.601 88.9257C298.411 88.1725 298.235 87.5271 298.078 86.9768C297.927 86.4239 297.786 85.9227 297.67 85.4802C297.549 85.0425 297.436 84.6442 297.35 84.27C297.254 83.9193 297.18 83.5272 297.125 83.1365C297.047 83.5272 296.978 83.9193 296.891 84.2921C296.79 84.6725 296.682 85.0701 296.576 85.5126C296.45 85.951 296.312 86.4646 296.151 87.0093C295.992 87.5567 295.833 88.1939 295.631 88.9257L295.197 90.4424H299.034L298.601 88.9257ZM301.865 99.6163L300.594 95.5488H293.636L292.381 99.6163H285.493L293.903 76.4457H300.393L308.816 99.6163H301.865ZM323.651 84.1527C323.651 83.4299 323.437 82.83 323 82.366C322.569 81.907 321.847 81.6729 320.828 81.6729H316.932V86.7456H320.716C321.791 86.7456 322.547 86.5233 322.994 86.0794C323.437 85.6355 323.651 84.999 323.651 84.1527ZM323.312 99.6163L319.515 91.8058H316.932V99.6163H310.633V76.4457H321C322.345 76.4457 323.582 76.5851 324.693 76.8578C325.813 77.1277 326.766 77.573 327.563 78.1736C328.36 78.7666 328.974 79.5405 329.402 80.4911C329.836 81.4686 330.048 82.6236 330.048 83.9946C330.048 85.7349 329.663 87.1543 328.915 88.2712C328.168 89.3634 327.145 90.2042 325.862 90.7841L330.506 99.6163H323.312ZM344.124 88.9257C343.927 88.1725 343.747 87.5271 343.605 86.9768C343.444 86.4239 343.3 85.9227 343.176 85.4802C343.065 85.0425 342.953 84.6442 342.868 84.27C342.785 83.9193 342.701 83.5272 342.631 83.1365C342.566 83.5272 342.486 83.9193 342.405 84.2921C342.316 84.6725 342.211 85.0701 342.079 85.5126C341.974 85.951 341.836 86.4646 341.673 87.0093C341.518 87.5567 341.351 88.1939 341.152 88.9257L340.722 90.4424H344.56L344.124 88.9257ZM347.373 99.6163L346.116 95.5488H339.154L337.896 99.6163H331.012L339.423 76.4457H345.926L354.335 99.6163H347.373Z" fill="white"/>
<path d="M72.6121 118.034L70.2761 113.794H69.6201V118.034H66.8841V106.802H71.4761C72.3614 106.802 73.1134 106.957 73.7321 107.266C74.3614 107.575 74.8308 108.002 75.1401 108.546C75.4494 109.079 75.6041 109.677 75.6041 110.338C75.6041 111.085 75.3908 111.751 74.9641 112.338C74.5481 112.925 73.9294 113.341 73.1081 113.586L75.7001 118.034H72.6121ZM69.6201 111.858H71.3161C71.8174 111.858 72.1908 111.735 72.4361 111.49C72.6921 111.245 72.8201 110.898 72.8201 110.45C72.8201 110.023 72.6921 109.687 72.4361 109.442C72.1908 109.197 71.8174 109.074 71.3161 109.074H69.6201V111.858ZM80.0576 108.994V111.266H83.7216V113.378H80.0576V115.842H84.2016V118.034H77.3216V106.802H84.2016V108.994H80.0576ZM101.434 106.802L98.5058 118.034H95.1938L93.4018 110.642L91.5458 118.034H88.2338L85.3858 106.802H88.3138L89.9298 114.978L91.9298 106.802H94.9378L96.8578 114.978L98.4898 106.802H101.434ZM109.798 116.05H105.606L104.934 118.034H102.07L106.134 106.802H109.302L113.366 118.034H110.47L109.798 116.05ZM109.094 113.938L107.702 109.826L106.326 113.938H109.094ZM120.331 118.034L117.995 113.794H117.339V118.034H114.603V106.802H119.195C120.08 106.802 120.832 106.957 121.451 107.266C122.08 107.575 122.55 108.002 122.859 108.546C123.168 109.079 123.323 109.677 123.323 110.338C123.323 111.085 123.11 111.751 122.683 112.338C122.267 112.925 121.648 113.341 120.827 113.586L123.419 118.034H120.331ZM117.339 111.858H119.035C119.536 111.858 119.91 111.735 120.155 111.49C120.411 111.245 120.539 110.898 120.539 110.45C120.539 110.023 120.411 109.687 120.155 109.442C119.91 109.197 119.536 109.074 119.035 109.074H117.339V111.858ZM129.248 106.802C130.432 106.802 131.467 107.037 132.352 107.506C133.238 107.975 133.92 108.637 134.4 109.49C134.891 110.333 135.136 111.309 135.136 112.418C135.136 113.517 134.891 114.493 134.4 115.346C133.92 116.199 133.232 116.861 132.336 117.33C131.451 117.799 130.422 118.034 129.248 118.034H125.04V106.802H129.248ZM129.072 115.666C130.107 115.666 130.912 115.383 131.488 114.818C132.064 114.253 132.352 113.453 132.352 112.418C132.352 111.383 132.064 110.578 131.488 110.002C130.912 109.426 130.107 109.138 129.072 109.138H127.776V115.666H129.072ZM145.784 118.034L143.448 113.794H142.792V118.034H140.056V106.802H144.648C145.533 106.802 146.285 106.957 146.904 107.266C147.533 107.575 148.003 108.002 148.312 108.546C148.621 109.079 148.776 109.677 148.776 110.338C148.776 111.085 148.563 111.751 148.136 112.338C147.72 112.925 147.101 113.341 146.28 113.586L148.872 118.034H145.784ZM142.792 111.858H144.488C144.989 111.858 145.363 111.735 145.608 111.49C145.864 111.245 145.992 110.898 145.992 110.45C145.992 110.023 145.864 109.687 145.608 109.442C145.363 109.197 144.989 109.074 144.488 109.074H142.792V111.858ZM153.229 108.994V111.266H156.893V113.378H153.229V115.842H157.373V118.034H150.493V106.802H157.373V108.994H153.229ZM163.358 106.802C164.542 106.802 165.576 107.037 166.462 107.506C167.347 107.975 168.03 108.637 168.51 109.49C169 110.333 169.246 111.309 169.246 112.418C169.246 113.517 169 114.493 168.51 115.346C168.03 116.199 167.342 116.861 166.446 117.33C165.56 117.799 164.531 118.034 163.358 118.034H159.15V106.802H163.358ZM163.182 115.666C164.216 115.666 165.022 115.383 165.598 114.818C166.174 114.253 166.462 113.453 166.462 112.418C166.462 111.383 166.174 110.578 165.598 110.002C165.022 109.426 164.216 109.138 163.182 109.138H161.886V115.666H163.182ZM173.511 108.994V111.266H177.175V113.378H173.511V115.842H177.655V118.034H170.775V106.802H177.655V108.994H173.511ZM192.151 106.802V118.034H189.415V111.298L186.903 118.034H184.695L182.167 111.282V118.034H179.431V106.802H182.663L185.815 114.578L188.935 106.802H192.151ZM202.678 110.418C202.678 111.069 202.529 111.666 202.23 112.21C201.932 112.743 201.473 113.175 200.854 113.506C200.236 113.837 199.468 114.002 198.55 114.002H196.854V118.034H194.118V106.802H198.55C199.446 106.802 200.204 106.957 200.822 107.266C201.441 107.575 201.905 108.002 202.214 108.546C202.524 109.09 202.678 109.714 202.678 110.418ZM198.342 111.826C198.865 111.826 199.254 111.703 199.51 111.458C199.766 111.213 199.894 110.866 199.894 110.418C199.894 109.97 199.766 109.623 199.51 109.378C199.254 109.133 198.865 109.01 198.342 109.01H196.854V111.826H198.342ZM212.183 106.802V108.994H209.207V118.034H206.471V108.994H203.495V106.802H212.183ZM216.292 106.802V118.034H213.556V106.802H216.292ZM223.587 118.146C222.531 118.146 221.56 117.901 220.675 117.41C219.8 116.919 219.101 116.237 218.579 115.362C218.067 114.477 217.811 113.485 217.811 112.386C217.811 111.287 218.067 110.301 218.579 109.426C219.101 108.551 219.8 107.869 220.675 107.378C221.56 106.887 222.531 106.642 223.587 106.642C224.643 106.642 225.608 106.887 226.483 107.378C227.368 107.869 228.061 108.551 228.563 109.426C229.075 110.301 229.331 111.287 229.331 112.386C229.331 113.485 229.075 114.477 228.563 115.362C228.051 116.237 227.357 116.919 226.483 117.41C225.608 117.901 224.643 118.146 223.587 118.146ZM223.587 115.65C224.483 115.65 225.197 115.351 225.731 114.754C226.275 114.157 226.547 113.367 226.547 112.386C226.547 111.394 226.275 110.605 225.731 110.018C225.197 109.421 224.483 109.122 223.587 109.122C222.68 109.122 221.955 109.415 221.411 110.002C220.877 110.589 220.611 111.383 220.611 112.386C220.611 113.378 220.877 114.173 221.411 114.77C221.955 115.357 222.68 115.65 223.587 115.65ZM240.901 118.034H238.165L233.589 111.106V118.034H230.853V106.802H233.589L238.165 113.762V106.802H240.901V118.034Z" fill="white"/>
</g>
<defs>
<clipPath id="clip0_40_1078">
<rect width="355" height="120" fill="white"/>
</clipPath>
</defs>
</svg>
