<svg width="355" height="120" viewBox="0 0 355 120" fill="none" xmlns="http://www.w3.org/2000/svg">
<path d="M72.0657 59.301H74.4172V56.9575H72.0657V59.301Z" fill="#949699"/>
<path d="M74.8345 59.301H77.1684V56.9575H74.8345V59.301Z" fill="#949699"/>
<path d="M77.5769 59.301H79.9285V56.9575H77.5769V59.301Z" fill="#949699"/>
<path d="M80.3435 59.301H82.6818V56.9575H80.3435V59.301Z" fill="#949699"/>
<path d="M72.0657 56.5891H74.4172V54.2412H72.0657V56.5891Z" fill="#949699"/>
<path d="M74.8345 56.5891H77.1684V54.2412H74.8345V56.5891Z" fill="#949699"/>
<path d="M77.5769 56.5891H79.9285V54.2412H77.5769V56.5891Z" fill="#949699"/>
<path d="M80.3435 56.5891H82.6818V54.2412H80.3435V56.5891Z" fill="#949699"/>
<path d="M85.8613 56.5891H88.2063V54.2412H85.8613V56.5891Z" fill="#949699"/>
<path d="M72.0657 53.8859H74.4172V51.5491H72.0657V53.8859Z" fill="#949699"/>
<path d="M74.8345 53.8859H77.1684V51.5491H74.8345V53.8859Z" fill="#949699"/>
<path d="M80.3435 53.8859H82.6818V51.5491H80.3435V53.8859Z" fill="#949699"/>
<path d="M83.0969 53.8859H85.4463V51.5491H83.0969V53.8859Z" fill="#949699"/>
<path d="M85.8613 53.8859H88.2063V51.5491H85.8613V53.8859Z" fill="#949699"/>
<path d="M74.8345 51.1784H77.1684V48.8372H74.8345V51.1784Z" fill="#949699"/>
<path d="M77.5769 51.1784H79.9285V48.8372H77.5769V51.1784Z" fill="#949699"/>
<path d="M80.3435 51.1784H82.6818V48.8372H80.3435V51.1784Z" fill="#949699"/>
<path d="M83.0969 51.1784H85.4463V48.8372H83.0969V51.1784Z" fill="#949699"/>
<path d="M88.6082 51.1784H90.9707V48.8372H88.6082V51.1784Z" fill="#949699"/>
<path d="M74.8345 48.4797H77.1684V46.1318H74.8345V48.4797Z" fill="#949699"/>
<path d="M77.5769 48.4797H79.9285V46.1318H77.5769V48.4797Z" fill="#949699"/>
<path d="M80.3435 48.4797H82.6818V46.1318H80.3435V48.4797Z" fill="#949699"/>
<path d="M83.0969 48.4797H85.4463V46.1318H83.0969V48.4797Z" fill="#949699"/>
<path d="M85.8613 48.4797H88.2063V46.1318H85.8613V48.4797Z" fill="#949699"/>
<path d="M88.6082 48.4797H90.9707V46.1318H88.6082V48.4797Z" fill="#949699"/>
<path d="M91.3638 48.4797H93.7087V46.1318H91.3638V48.4797Z" fill="#949699"/>
<path d="M96.8928 48.4797H99.2377V46.1318H96.8928V48.4797Z" fill="#949699"/>
<path d="M80.3435 45.7721H82.6818V43.4331H80.3435V45.7721Z" fill="#949699"/>
<path d="M83.0969 45.7721H85.4463V43.4331H83.0969V45.7721Z" fill="#949699"/>
<path d="M88.6082 45.7721H90.9707V43.4331H88.6082V45.7721Z" fill="#949699"/>
<path d="M94.126 45.7721H96.4709V43.4331H94.126V45.7721Z" fill="#949699"/>
<path d="M77.5769 43.0757H79.9285V40.7256H77.5769V43.0757Z" fill="#949699"/>
<path d="M80.3435 43.0757H82.6818V40.7256H80.3435V43.0757Z" fill="#949699"/>
<path d="M83.0969 43.0757H85.4463V40.7256H83.0969V43.0757Z" fill="#949699"/>
<path d="M85.8613 43.0757H88.2063V40.7256H85.8613V43.0757Z" fill="#949699"/>
<path d="M88.6082 43.0757H90.9707V40.7256H88.6082V43.0757Z" fill="#949699"/>
<path d="M94.126 43.0757H96.4709V40.7256H94.126V43.0757Z" fill="#949699"/>
<path d="M107.911 43.0757H110.262V40.7256H107.911V43.0757Z" fill="#949699"/>
<path d="M80.3435 40.3637H82.6818V38.0181H80.3435V40.3637Z" fill="#949699"/>
<path d="M85.8613 40.3637H88.2063V38.0181H85.8613V40.3637Z" fill="#949699"/>
<path d="M91.3638 40.3637H93.7087V38.0181H91.3638V40.3637Z" fill="#949699"/>
<path d="M96.8928 40.3637H99.2377V38.0181H96.8928V40.3637Z" fill="#949699"/>
<path d="M88.6082 37.6606H90.9707V35.3149H88.6082V37.6606Z" fill="#949699"/>
<path d="M94.126 37.6606H96.4709V35.3149H94.126V37.6606Z" fill="#949699"/>
<path d="M91.3638 34.9597H93.7087V32.6162H91.3638V34.9597Z" fill="#949699"/>
<path d="M96.8928 34.9597H99.2377V32.6162H96.8928V34.9597Z" fill="#949699"/>
<path d="M102.393 34.9597H104.744V32.6162H102.393V34.9597Z" fill="#949699"/>
<path d="M88.6082 32.2522H90.9707V29.9043H88.6082V32.2522Z" fill="#949699"/>
<path d="M102.393 29.5468H104.744V27.2012H102.393V29.5468Z" fill="#949699"/>
<path d="M110.66 29.5468H113.011V27.2012H110.66V29.5468Z" fill="#949699"/>
<path d="M102.393 26.8481H104.744V24.4958H102.393V26.8481Z" fill="#949699"/>
<path d="M102.393 24.1384H104.744V21.7905H102.393V24.1384Z" fill="#949699"/>
<path d="M105.164 21.4331H107.507V19.0852H105.164V21.4331Z" fill="#949699"/>
<path d="M65.6357 52.86H71.6328V51.7346H65.6357V52.86Z" fill="black"/>
<path d="M58.9461 27.3072C57.9783 27.2057 58.0287 27.5087 56.7508 27.7151C55.4728 27.9222 54.7489 29.2387 56.0296 29.0965C57.311 28.9343 57.8726 28.888 58.993 28.4262C60.1197 27.9699 58.9461 27.3072 58.9461 27.3072ZM59.9194 32.047C58.5924 31.8952 58.6981 32.3467 58.332 32.5282C57.8726 32.7588 59.2024 32.9645 60.2254 32.921C61.2457 32.8644 61.2457 32.2003 59.9194 32.047ZM71.691 59.7512H72.0647H81.7618C78.9642 62.8798 72.3748 68.1865 57.4609 73.4738C31.0103 82.8708 5.16403 71.5899 20.2956 50.1113C35.0969 29.0965 58.5295 24.1385 60.9873 23.7312C63.4368 23.3218 67.5214 23.0678 65.5347 23.6787C63.5418 24.2966 59.8096 25.8243 60.0265 26.3842C60.2254 26.9516 62.6728 26.34 64.0433 26.1294C65.436 25.9313 65.436 26.8985 64.6153 27.3072C63.8036 27.7151 63.135 27.3072 63.6475 27.8111C64.1642 28.3289 63.8527 28.6816 63.0265 29.0427C62.219 29.3982 59.9664 29.2387 59.2024 29.9643C58.4273 30.6664 60.6274 30.6664 62.1617 30.0575C63.6938 29.45 64.0433 29.2946 65.7392 29.1911C67.4206 29.0965 65.8359 30.1134 66.6566 30.4689C67.4724 30.8224 71.6143 30.0098 70.5408 30.6664C69.4687 31.3353 72.5876 31.3353 70.4337 31.9497C68.2889 32.5572 48.1775 34.805 32.7496 44.9123C17.3335 55.0148 15.295 75.9273 41.5384 70.7277C60.6716 66.9301 68.6805 58.1979 71.6143 53.748V59.7512H71.691Z" fill="#949699"/>
<path d="M38.1484 52.6235C38.1484 45.7139 43.7472 40.1228 50.6488 40.1228C57.5697 40.1228 63.1692 45.7139 63.1692 52.6235C63.1692 59.5304 57.5697 65.1201 50.6488 65.1201C43.7472 65.1201 38.1484 59.5304 38.1484 52.6235Z" fill="#F08700"/>
<path d="M42.1684 47.1748C41.6261 45.9474 42.1836 44.5039 43.4145 43.9489C44.6579 43.4014 46.1031 43.9592 46.6502 45.1963C47.2152 46.4286 46.6502 47.8755 45.4171 48.4257C44.1792 48.9752 42.7244 48.4168 42.1684 47.1748ZM70.0775 23.6836C70.0775 23.1141 67.6825 23.072 67.3171 23.5828C66.9676 24.0889 65.6869 23.8907 65.575 24.3429C65.4879 24.8151 66.6567 24.6991 67.6825 24.3008C68.7076 23.8907 70.0775 24.2442 70.0775 23.6836ZM71.8665 25.2598C71.5101 24.8594 69.1538 24.6993 68.4409 25.0562C67.7246 25.4179 66.8045 25.7796 66.3534 25.7796C65.8947 25.7796 66.5586 26.3395 67.7806 26.3395C69.0012 26.3395 68.8554 26.0282 70.0774 26.2263C71.3049 26.4341 72.2167 25.6761 71.8665 25.2598ZM68.4409 27.4023C67.1734 27.715 66.8687 27.8635 66.1938 28.0215C65.5307 28.1727 66.1517 28.6843 67.6279 28.3784C69.1048 28.0726 69.5676 27.9698 70.2784 27.9221C71.001 27.8635 70.8946 27.2056 70.0256 27.1476C69.1642 27.1027 68.4409 27.4023 68.4409 27.4023ZM73.8579 26.9418C73.4662 26.3647 72.2691 26.7465 71.7552 27.0468C71.2578 27.3588 71.3497 27.4023 72.2166 27.5604C73.0911 27.715 73.8807 27.2056 73.8579 26.9418ZM77.0197 28.123C76.7033 27.9698 74.1605 28.3294 73.755 28.2266C73.3433 28.123 72.7845 28.6339 71.9148 28.6339C71.0458 28.6339 69.6753 28.6856 70.1768 29.2407C70.697 29.8033 72.8923 29.5003 73.858 29.2897C74.8333 29.0964 75.846 28.6339 76.7675 28.8382C77.6835 29.0377 77.1447 28.1534 77.0197 28.123Z" fill="#949699"/>
<path d="M4.41602 52.8224H35.2533V51.697H4.41602V52.8224Z" fill="black"/>
<path d="M50.1223 99.8193H51.2329V69.0015H50.1223V99.8193Z" fill="black"/>
<path d="M50.1223 35.9218H51.2329V5.11279H50.1223V35.9218Z" fill="black"/>
<path d="M88.637 52.86H177.983V51.7346H88.637V52.86Z" fill="black"/>
<path d="M79.8476 93.2587C79.8476 92.5753 79.6611 92.0403 79.2888 91.6433C78.9075 91.2436 78.3403 91.0475 77.5591 91.0475H72.4701V95.5493H77.5321C78.3258 95.5493 78.9075 95.338 79.2888 94.9052C79.6611 94.4689 79.8476 93.9214 79.8476 93.2587ZM79.3233 84.3443C79.3233 83.8245 79.1789 83.3923 78.8854 83.0389C78.6063 82.6778 78.0709 82.5115 77.3014 82.5115H72.4701V86.1751H77.3014C78.0488 86.1751 78.578 86.0177 78.8646 85.6767C79.179 85.3432 79.3233 84.8994 79.3233 84.3443ZM86.1448 93.1455C86.1448 95.5203 85.434 97.3656 83.9999 98.6662C82.5624 99.9764 80.3788 100.611 77.4389 100.611H66.3V77.4402H77.4983C80.3788 77.4402 82.4353 77.9718 83.7091 78.9941C84.9815 80.0393 85.6122 81.5332 85.6122 83.4814C85.6122 84.7371 85.3393 85.7002 84.8123 86.3636C84.2507 87.0235 83.6124 87.5841 82.8373 88.0266C83.888 88.4684 84.71 89.0946 85.2854 89.9202C85.8616 90.7459 86.1448 91.82 86.1448 93.1455Z" fill="black"/>
<path d="M48.428 3.95407C48.428 2.70852 49.4282 1.69019 50.6744 1.69019C51.9226 1.69019 52.9215 2.70852 52.9215 3.95407C52.9215 5.21288 51.9226 6.22772 50.6744 6.22772C49.4282 6.22772 48.428 5.21288 48.428 3.95407Z" fill="#D32627"/>
<path d="M178 52.2632C178 51.0169 179.004 50 180.249 50C181.494 50 182.493 51.0169 182.493 52.2632C182.493 53.5192 181.494 54.5347 180.249 54.5347C179.004 54.5347 178 53.5192 178 52.2632Z" fill="#D32627"/>
<path d="M0 52.3074C0 51.0528 1.00094 50.04 2.24158 50.04C3.48775 50.04 4.48662 51.0528 4.48662 52.3074C4.48662 53.5565 3.48775 54.5748 2.24158 54.5748C1.00094 54.5748 0 53.5565 0 52.3074Z" fill="#D32627"/>
<path d="M48.45 103.015C48.45 101.766 49.4523 100.75 50.6957 100.75C51.9294 100.75 52.9421 101.766 52.9421 103.015C52.9421 104.267 51.9294 105.288 50.6957 105.288C49.4523 105.288 48.45 104.267 48.45 103.015Z" fill="#D32627"/>
<path d="M88.7363 99.6162H95.2898V76.4465H88.7363V99.6162Z" fill="black"/>
<path d="M113.784 99.6166L108.25 91.9752C107.989 91.6149 107.677 91.1869 107.322 90.6726C106.969 90.1417 106.621 89.6274 106.271 89.1075C105.938 88.5843 105.614 88.0996 105.32 87.6399C105.024 87.176 104.79 86.8115 104.647 86.5443C104.694 86.8115 104.722 87.176 104.739 87.6516C104.757 88.1204 104.776 88.6478 104.803 89.2049C104.824 89.7647 104.832 90.3495 104.832 90.9411V92.5455V99.6166H98.6755V76.446H104.332L109.441 83.2962C109.705 83.6538 110.02 84.0839 110.387 84.6217C110.74 85.1588 111.108 85.6841 111.459 86.2047C111.81 86.7452 112.143 87.2381 112.422 87.7027C112.717 88.1673 112.921 88.5228 113.048 88.7527C113.003 88.4973 112.966 88.1204 112.955 87.6516C112.921 87.176 112.906 86.6534 112.885 86.0866C112.862 85.5329 112.85 84.9613 112.85 84.3587V82.7702V76.446H119.019V99.6166H113.784ZM133.957 88.9257C133.755 88.1725 133.581 87.5271 133.429 86.9769C133.278 86.4239 133.134 85.9227 133.012 85.4802C132.895 85.0425 132.793 84.6442 132.695 84.27C132.612 83.9193 132.529 83.5272 132.466 83.1365C132.398 83.5272 132.327 83.9193 132.242 84.2921C132.149 84.6725 132.043 85.0701 131.928 85.5127C131.8 85.951 131.663 86.4646 131.508 87.0093C131.357 87.5568 131.184 88.1939 130.979 88.9257L130.545 90.4424H134.38L133.957 88.9257ZM137.205 99.6164L135.937 95.5489H128.988L127.724 99.6164H120.846L129.252 76.4457H135.748L144.171 99.6164H137.205ZM170.068 99.6166L164.527 91.9752C164.266 91.6149 163.961 91.1869 163.607 90.6726C163.244 90.1417 162.903 89.6274 162.564 89.1075C162.217 88.5843 161.901 88.0996 161.608 87.6399C161.305 87.176 161.08 86.8115 160.925 86.5443C160.961 86.8115 160.992 87.176 161.021 87.6516C161.047 88.1204 161.073 88.6478 161.084 89.2049C161.117 89.7647 161.121 90.3495 161.121 90.9411V92.5455V99.6166H154.972V76.446H160.631L165.723 83.2962C165.999 83.6538 166.294 84.0839 166.668 84.6217C167.036 85.1588 167.399 85.6841 167.738 86.2047C168.104 86.7452 168.42 87.2381 168.715 87.7027C168.994 88.1673 169.206 88.5228 169.341 88.7527C169.291 88.4973 169.261 88.1204 169.238 87.6516C169.218 87.176 169.195 86.6534 169.177 86.0866C169.148 85.5329 169.139 84.9613 169.139 84.3587V82.7702V76.446H175.305V99.6166H170.068ZM197.951 94.4148C197.422 95.7188 196.707 96.7847 195.79 97.6097C194.874 98.4346 193.792 99.0442 192.543 99.4225C191.305 99.8022 189.942 99.992 188.49 99.992C187.027 99.992 185.674 99.8022 184.438 99.4225C183.198 99.0442 182.142 98.4346 181.251 97.6097C180.359 96.7847 179.652 95.7188 179.146 94.4148C178.637 93.1183 178.382 91.5526 178.382 89.7177V76.4458H184.945V89.7177C184.945 91.1488 185.236 92.2713 185.822 93.1017C186.404 93.9108 187.32 94.3195 188.589 94.3195C189.845 94.3195 190.753 93.9108 191.317 93.1017C191.874 92.2713 192.165 91.1488 192.165 89.7177V76.4458H198.718V89.7177C198.718 91.5526 198.473 93.1183 197.951 94.4148ZM220.251 92.5002C220.251 93.8242 220.009 94.9661 219.547 95.9084C219.064 96.8673 218.403 97.6349 217.56 98.2355C216.71 98.8292 215.689 99.2745 214.531 99.5451C213.363 99.8399 212.079 99.9925 210.691 99.9925C208.802 99.9925 207.017 99.7115 205.301 99.1779C203.579 98.6311 202.135 97.9711 200.912 97.1703L204.027 92.1433C204.444 92.427 204.933 92.7093 205.502 92.9813C206.066 93.2582 206.644 93.5053 207.255 93.7311C207.868 93.9451 208.473 94.1169 209.09 94.2516C209.708 94.3958 210.287 94.4573 210.817 94.4573C211.961 94.4573 212.748 94.3558 213.183 94.117C213.609 93.9105 213.831 93.5191 213.831 92.9627C213.831 92.7404 213.77 92.545 213.652 92.3711C213.531 92.193 213.317 92.0259 213.006 91.8588C212.715 91.6869 212.314 91.5261 211.796 91.3646C211.291 91.1892 210.654 91.0242 209.88 90.8461C208.496 90.5196 207.282 90.1647 206.244 89.7816C205.203 89.4116 204.34 88.9421 203.648 88.3781C202.981 87.8162 202.458 87.1327 202.122 86.3464C201.786 85.547 201.602 84.5716 201.602 83.3863C201.602 82.3135 201.82 81.329 202.248 80.4192C202.685 79.5224 203.293 78.7409 204.093 78.0989C204.884 77.461 205.85 76.964 206.975 76.6071C208.103 76.2523 209.36 76.0769 210.748 76.0769C212.738 76.0769 214.468 76.3075 215.932 76.77C217.405 77.247 218.768 77.8946 219.994 78.7665L216.877 83.7922C215.855 83.0942 214.797 82.5475 213.761 82.1713C212.728 81.7916 211.608 81.6114 210.417 81.6114C209.443 81.6114 208.802 81.7495 208.496 82.0042C208.181 82.2734 208.034 82.6165 208.034 83.0335C208.034 83.253 208.103 83.4498 208.208 83.6113C208.34 83.7756 208.539 83.9365 208.831 84.0725C209.103 84.216 209.497 84.359 209.997 84.5074C210.477 84.651 211.094 84.8084 211.845 84.9885C213.3 85.3455 214.568 85.7231 215.608 86.1476C216.669 86.5639 217.548 87.0616 218.231 87.6402C218.92 88.209 219.433 88.8917 219.753 89.687C220.1 90.483 220.251 91.4219 220.251 92.5002ZM233.707 88.9257C233.506 88.1725 233.332 87.5271 233.178 86.9769C233.017 86.4239 232.89 85.9227 232.766 85.4802C232.646 85.0425 232.542 84.6442 232.449 84.27C232.361 83.9193 232.283 83.5272 232.22 83.1365C232.152 83.5272 232.074 83.9193 231.996 84.2921C231.897 84.6725 231.786 85.0701 231.674 85.5127C231.549 85.951 231.415 86.4646 231.261 87.0093C231.103 87.5568 230.929 88.1939 230.72 88.9257L230.291 90.4424H234.136L233.707 88.9257ZM236.954 99.6164L235.695 95.5489H228.734L227.486 99.6164H220.589L229.002 76.4457H235.496L243.913 99.6164H236.954ZM260.842 99.6166L255.302 91.9752C255.042 91.6149 254.738 91.1869 254.381 90.6726C254.032 90.1417 253.684 89.6274 253.327 89.1075C252.996 88.5843 252.667 88.0996 252.375 87.6399C252.071 87.176 251.854 86.8115 251.694 86.5443C251.738 86.8115 251.781 87.176 251.796 87.6516C251.825 88.1204 251.847 88.6478 251.862 89.2049C251.881 89.7647 251.892 90.3495 251.892 90.9411V92.5455V99.6166H245.735V76.446H251.398L256.501 83.2962C256.76 83.6538 257.079 84.0839 257.446 84.6217C257.808 85.1588 258.171 85.6841 258.514 86.2047C258.871 86.7452 259.208 87.2381 259.479 87.7027C259.762 88.1673 259.981 88.5228 260.108 88.7527C260.066 88.4973 260.025 88.1204 260.008 87.6516C259.981 87.176 259.972 86.6534 259.948 86.0866C259.925 85.5329 259.913 84.9613 259.913 84.3587V82.7702V76.446H266.076V99.6166H260.842Z" fill="black"/>
<path d="M281.239 82.0448V99.6162H274.822V82.0448H268.322V76.4465H287.748V82.0448H281.239Z" fill="black"/>
<path d="M298.601 88.9258C298.411 88.1727 298.235 87.5272 298.078 86.977C297.927 86.424 297.786 85.9228 297.67 85.4803C297.549 85.0426 297.436 84.6443 297.35 84.2702C297.254 83.9195 297.18 83.5273 297.125 83.1366C297.047 83.5273 296.978 83.9195 296.891 84.2922C296.79 84.6726 296.682 85.0703 296.576 85.5128C296.45 85.9511 296.312 86.4648 296.151 87.0094C295.992 87.5569 295.833 88.1941 295.631 88.9258L295.197 90.4425H299.034L298.601 88.9258ZM301.865 99.6165L300.594 95.549H293.636L292.381 99.6165H285.493L293.903 76.4458H300.393L308.816 99.6165H301.865ZM323.651 84.1528C323.651 83.43 323.437 82.8301 323 82.3662C322.569 81.9071 321.847 81.6731 320.828 81.6731H316.932V86.7457H320.716C321.791 86.7457 322.547 86.5234 322.994 86.0795C323.437 85.6356 323.651 84.9992 323.651 84.1528ZM323.312 99.6165L319.515 91.8059H316.932V99.6165H310.633V76.4458H321C322.345 76.4458 323.582 76.5853 324.693 76.8579C325.813 77.1279 326.766 77.5731 327.563 78.1737C328.36 78.7667 328.974 79.5406 329.402 80.4912C329.836 81.4687 330.048 82.6237 330.048 83.9947C330.048 85.7351 329.663 87.1544 328.915 88.2714C328.168 89.3635 327.145 90.2043 325.862 90.7842L330.506 99.6165H323.312ZM344.124 88.9258C343.927 88.1727 343.747 87.5272 343.605 86.977C343.444 86.424 343.3 85.9228 343.176 85.4803C343.065 85.0426 342.953 84.6443 342.868 84.2702C342.785 83.9195 342.701 83.5273 342.631 83.1366C342.566 83.5273 342.486 83.9195 342.405 84.2922C342.316 84.6726 342.211 85.0703 342.079 85.5128C341.974 85.9511 341.836 86.4648 341.673 87.0094C341.518 87.5569 341.351 88.1941 341.152 88.9258L340.722 90.4425H344.56L344.124 88.9258ZM347.373 99.6165L346.116 95.549H339.154L337.896 99.6165H331.012L339.423 76.4458H345.926L354.335 99.6165H347.373Z" fill="black"/>
<path d="M72.72 119L70.384 114.76H69.728V119H66.992V107.768H71.584C72.4693 107.768 73.2213 107.923 73.84 108.232C74.4693 108.541 74.9387 108.968 75.248 109.512C75.5573 110.045 75.712 110.643 75.712 111.304C75.712 112.051 75.4987 112.717 75.072 113.304C74.656 113.891 74.0373 114.307 73.216 114.552L75.808 119H72.72ZM69.728 112.824H71.424C71.9253 112.824 72.2987 112.701 72.544 112.456C72.8 112.211 72.928 111.864 72.928 111.416C72.928 110.989 72.8 110.653 72.544 110.408C72.2987 110.163 71.9253 110.04 71.424 110.04H69.728V112.824ZM80.1655 109.96V112.232H83.8295V114.344H80.1655V116.808H84.3095V119H77.4295V107.768H84.3095V109.96H80.1655ZM101.542 107.768L98.6138 119H95.3018L93.5098 111.608L91.6538 119H88.3418L85.4938 107.768H88.4218L90.0378 115.944L92.0378 107.768H95.0458L96.9658 115.944L98.5978 107.768H101.542ZM109.906 117.016H105.714L105.042 119H102.178L106.242 107.768H109.41L113.474 119H110.578L109.906 117.016ZM109.202 114.904L107.81 110.792L106.434 114.904H109.202ZM120.439 119L118.103 114.76H117.447V119H114.711V107.768H119.303C120.188 107.768 120.94 107.923 121.559 108.232C122.188 108.541 122.657 108.968 122.967 109.512C123.276 110.045 123.431 110.643 123.431 111.304C123.431 112.051 123.217 112.717 122.791 113.304C122.375 113.891 121.756 114.307 120.935 114.552L123.527 119H120.439ZM117.447 112.824H119.143C119.644 112.824 120.017 112.701 120.263 112.456C120.519 112.211 120.647 111.864 120.647 111.416C120.647 110.989 120.519 110.653 120.263 110.408C120.017 110.163 119.644 110.04 119.143 110.04H117.447V112.824ZM129.356 107.768C130.54 107.768 131.575 108.003 132.46 108.472C133.346 108.941 134.028 109.603 134.508 110.456C134.999 111.299 135.244 112.275 135.244 113.384C135.244 114.483 134.999 115.459 134.508 116.312C134.028 117.165 133.34 117.827 132.444 118.296C131.559 118.765 130.53 119 129.356 119H125.148V107.768H129.356ZM129.18 116.632C130.215 116.632 131.02 116.349 131.596 115.784C132.172 115.219 132.46 114.419 132.46 113.384C132.46 112.349 132.172 111.544 131.596 110.968C131.02 110.392 130.215 110.104 129.18 110.104H127.884V116.632H129.18ZM145.892 119L143.556 114.76H142.9V119H140.164V107.768H144.756C145.641 107.768 146.393 107.923 147.012 108.232C147.641 108.541 148.111 108.968 148.42 109.512C148.729 110.045 148.884 110.643 148.884 111.304C148.884 112.051 148.671 112.717 148.244 113.304C147.828 113.891 147.209 114.307 146.388 114.552L148.98 119H145.892ZM142.9 112.824H144.596C145.097 112.824 145.471 112.701 145.716 112.456C145.972 112.211 146.1 111.864 146.1 111.416C146.1 110.989 145.972 110.653 145.716 110.408C145.471 110.163 145.097 110.04 144.596 110.04H142.9V112.824ZM153.337 109.96V112.232H157.001V114.344H153.337V116.808H157.481V119H150.601V107.768H157.481V109.96H153.337ZM163.466 107.768C164.65 107.768 165.684 108.003 166.57 108.472C167.455 108.941 168.138 109.603 168.618 110.456C169.108 111.299 169.354 112.275 169.354 113.384C169.354 114.483 169.108 115.459 168.618 116.312C168.138 117.165 167.45 117.827 166.554 118.296C165.668 118.765 164.639 119 163.466 119H159.258V107.768H163.466ZM163.29 116.632C164.324 116.632 165.13 116.349 165.706 115.784C166.282 115.219 166.57 114.419 166.57 113.384C166.57 112.349 166.282 111.544 165.706 110.968C165.13 110.392 164.324 110.104 163.29 110.104H161.994V116.632H163.29ZM173.619 109.96V112.232H177.283V114.344H173.619V116.808H177.763V119H170.883V107.768H177.763V109.96H173.619ZM192.259 107.768V119H189.523V112.264L187.011 119H184.803L182.275 112.248V119H179.539V107.768H182.771L185.923 115.544L189.043 107.768H192.259ZM202.786 111.384C202.786 112.035 202.637 112.632 202.338 113.176C202.04 113.709 201.581 114.141 200.962 114.472C200.344 114.803 199.576 114.968 198.658 114.968H196.962V119H194.226V107.768H198.658C199.554 107.768 200.312 107.923 200.93 108.232C201.549 108.541 202.013 108.968 202.322 109.512C202.632 110.056 202.786 110.68 202.786 111.384ZM198.45 112.792C198.973 112.792 199.362 112.669 199.618 112.424C199.874 112.179 200.002 111.832 200.002 111.384C200.002 110.936 199.874 110.589 199.618 110.344C199.362 110.099 198.973 109.976 198.45 109.976H196.962V112.792H198.45ZM212.291 107.768V109.96H209.315V119H206.579V109.96H203.603V107.768H212.291ZM216.4 107.768V119H213.664V107.768H216.4ZM223.695 119.112C222.639 119.112 221.668 118.867 220.783 118.376C219.908 117.885 219.209 117.203 218.687 116.328C218.175 115.443 217.919 114.451 217.919 113.352C217.919 112.253 218.175 111.267 218.687 110.392C219.209 109.517 219.908 108.835 220.783 108.344C221.668 107.853 222.639 107.608 223.695 107.608C224.751 107.608 225.716 107.853 226.591 108.344C227.476 108.835 228.169 109.517 228.671 110.392C229.183 111.267 229.439 112.253 229.439 113.352C229.439 114.451 229.183 115.443 228.671 116.328C228.159 117.203 227.465 117.885 226.591 118.376C225.716 118.867 224.751 119.112 223.695 119.112ZM223.695 116.616C224.591 116.616 225.305 116.317 225.839 115.72C226.383 115.123 226.655 114.333 226.655 113.352C226.655 112.36 226.383 111.571 225.839 110.984C225.305 110.387 224.591 110.088 223.695 110.088C222.788 110.088 222.063 110.381 221.519 110.968C220.985 111.555 220.719 112.349 220.719 113.352C220.719 114.344 220.985 115.139 221.519 115.736C222.063 116.323 222.788 116.616 223.695 116.616ZM241.009 119H238.273L233.697 112.072V119H230.961V107.768H233.697L238.273 114.728V107.768H241.009V119Z" fill="#682A7A"/>
</svg>
