<svg width="68" height="124" viewBox="0 0 68 124" fill="none" xmlns="http://www.w3.org/2000/svg">
<path fill-rule="evenodd" clip-rule="evenodd" d="M0 46.7013H45.3333V24.1559H0V46.7013Z" fill="#813D85"/>
<path fill-rule="evenodd" clip-rule="evenodd" d="M67.2196 90.5908H67.2228V68.2982H67.2196V90.5908Z" fill="#DBBACF"/>
<path fill-rule="evenodd" clip-rule="evenodd" d="M44.7679 112.859V90.5757H66.962C67.048 90.578 67.1339 90.5787 67.2198 90.5787V90.5906H45.0563C44.9607 90.5876 44.8643 90.5869 44.7679 90.5869V112.859Z" fill="#DBBACF"/>
<path fill-rule="evenodd" clip-rule="evenodd" d="M44.7991 68.2982H68V46.7013L44.7991 46.0217V68.2982Z" fill="#A771A3"/>
<path fill-rule="evenodd" clip-rule="evenodd" d="M56.0193 57.1515C49.8395 57.1515 44.821 52.1702 44.821 46.022H67.2221C67.2221 52.1702 62.2058 57.1515 56.0193 57.1515Z" fill="#8E4E8E"/>
<path fill-rule="evenodd" clip-rule="evenodd" d="M68 90.5757H44.7679V68.2989H68C63.8781 68.2989 63.8781 75.7245 68 90.5757Z" fill="#C399BB"/>
<path fill-rule="evenodd" clip-rule="evenodd" d="M67.2198 90.5787C67.1339 90.5787 67.048 90.578 66.962 90.5757H67.2198V90.5787Z" fill="#E4CAD9"/>
<path fill-rule="evenodd" clip-rule="evenodd" d="M68 90.5869L66.9621 90.5757C60.8974 90.4397 56.6667 84.9778 56.6667 78.9091C56.6667 72.7564 61.8173 68.2989 68 68.2989V90.5869Z" fill="#CFB0C9"/>
<path fill-rule="evenodd" clip-rule="evenodd" d="M44.7515 112.873H22.4408C22.6365 112.873 22.8308 112.868 23.0244 112.859H23.2792L44.4085 112.868C44.5228 112.871 44.6364 112.873 44.7515 112.873ZM22.3877 112.873H22.4408V90.636H22.3877V112.873Z" fill="#FFFFFE"/>
<path fill-rule="evenodd" clip-rule="evenodd" d="M44.4085 112.868L23.2792 112.859H44.1836C44.2583 112.862 44.3338 112.865 44.4085 112.868Z" fill="#FFFFFE"/>
<path fill-rule="evenodd" clip-rule="evenodd" d="M23.2792 112.859H23.0244C23.0251 112.859 23.0258 112.858 23.0266 112.858L23.2792 112.859Z" fill="#E2C7D7"/>
<path fill-rule="evenodd" clip-rule="evenodd" d="M44.1836 112.859H23.2792L23.0266 112.858C28.6235 112.572 33.131 108.205 33.6055 102.692C34.0807 108.206 38.5874 112.573 44.1836 112.859ZM33.6055 100.763C33.1145 95.0643 28.3067 90.5869 22.4423 90.5869H44.7679C38.9035 90.5869 34.0972 95.0635 33.6055 100.763Z" fill="#E2C7D7"/>
<path fill-rule="evenodd" clip-rule="evenodd" d="M44.7514 112.873C44.6364 112.873 44.5228 112.871 44.4085 112.868H44.7679V112.87H44.7514C44.7514 112.871 44.7514 112.872 44.7514 112.873ZM44.7679 112.868H44.4085C44.3337 112.865 44.2583 112.862 44.1835 112.859H44.7679V112.868Z" fill="#FFFFFE"/>
<path fill-rule="evenodd" clip-rule="evenodd" d="M44.7679 112.859H44.1836C38.5874 112.573 34.0807 108.206 33.6055 102.692C33.6331 102.375 33.6473 102.052 33.6473 101.728C33.6473 101.403 33.6331 101.081 33.6055 100.763C34.0972 95.0635 38.9035 90.5869 44.7679 90.5869V112.859Z" fill="#F1E2E9"/>
<path fill-rule="evenodd" clip-rule="evenodd" d="M22.4407 112.873V90.6359H22.4422V112.859H23.0243C22.8308 112.868 22.6365 112.873 22.4407 112.873ZM22.4422 90.6359H22.4407V90.5869C22.4407 90.5869 22.4415 90.5869 22.4422 90.5869V90.6359Z" fill="#FFFFFE"/>
<path fill-rule="evenodd" clip-rule="evenodd" d="M23.0244 112.859H22.4423V90.636L22.4512 112.858H23.0266C23.0259 112.858 23.0251 112.859 23.0244 112.859Z" fill="#EAD6E1"/>
<path fill-rule="evenodd" clip-rule="evenodd" d="M23.0266 112.858H22.4512L22.4423 90.6359V90.5869C28.3067 90.5869 33.1145 95.0643 33.6055 100.763C33.5786 101.081 33.5644 101.403 33.5644 101.728C33.5644 102.052 33.5786 102.375 33.6055 102.692C33.131 108.205 28.6235 112.572 23.0266 112.858Z" fill="#EAD7E1"/>
<path fill-rule="evenodd" clip-rule="evenodd" d="M33.6054 102.692C33.5785 102.375 33.5643 102.052 33.5643 101.728C33.5643 101.403 33.5785 101.081 33.6054 100.763C33.6331 101.081 33.6473 101.403 33.6473 101.728C33.6473 102.052 33.6331 102.375 33.6054 102.692Z" fill="#F6EAEF"/>
<path fill-rule="evenodd" clip-rule="evenodd" d="M44.7679 90.5869H22.4423C28.625 90.5869 33.6406 85.5996 33.6458 79.4492C39.7935 79.4061 44.7679 74.4278 44.7679 68.2989V90.5869Z" fill="#D2AAC4"/>
<path fill-rule="evenodd" clip-rule="evenodd" d="M22.4422 90.5869H0V68.2989H22.3742C22.3742 68.7151 22.3974 69.1254 22.4422 69.5304V90.5869Z" fill="#E7D0DC"/>
<path fill-rule="evenodd" clip-rule="evenodd" d="M33.6458 79.4492C33.6458 79.4462 33.6458 79.4432 33.6458 79.4403C33.6458 73.2943 28.628 68.2989 22.4423 68.2989H44.7679C44.7679 74.4278 39.7935 79.4061 33.6458 79.4492Z" fill="#CA97B8"/>
<path fill-rule="evenodd" clip-rule="evenodd" d="M22.4423 69.5304C22.3974 69.1254 22.3743 68.7151 22.3743 68.2989H22.4423V69.5304Z" fill="#CD9DBC"/>
<path fill-rule="evenodd" clip-rule="evenodd" d="M22.4423 90.5869V69.5304C23.0572 75.1071 27.8023 79.4492 33.5659 79.4492C33.5928 79.4492 33.6189 79.4492 33.6458 79.4492C33.6406 85.5996 28.625 90.5869 22.4423 90.5869Z" fill="#E0C2D4"/>
<path fill-rule="evenodd" clip-rule="evenodd" d="M33.5659 79.4492C27.8023 79.4492 23.0572 75.1071 22.4423 69.5304V68.2989C28.628 68.2989 33.6458 73.2943 33.6458 79.4403C33.6458 79.4432 33.6458 79.4462 33.6458 79.4492C33.6189 79.4492 33.5928 79.4492 33.5659 79.4492Z" fill="#D8B4CB"/>
<path fill-rule="evenodd" clip-rule="evenodd" d="M0 69.2467C7.46555 65.2484 11.1983 61.1718 11.1983 57.0171C15.3232 57.0171 11.5904 53.5785 0 46.7013H22.6667V69.2467H0Z" fill="#BB94B8"/>
<path fill-rule="evenodd" clip-rule="evenodd" d="M22.6667 46.7013H45.3334L33.598 57.1515C26.6248 61.4006 22.981 65.4324 22.6667 69.2467V46.7013Z" fill="#B583AE"/>
<path fill-rule="evenodd" clip-rule="evenodd" d="M0 46.7013H22.6667C22.6667 52.8592 17.5945 57.974 11.3333 57.974C11.3333 51.8258 6.26046 46.7013 0 46.7013Z" fill="#AE7CAA"/>
<path fill-rule="evenodd" clip-rule="evenodd" d="M0 46.7013C0 52.9334 5.14309 57.974 11.3333 57.974C11.3333 64.2061 6.1865 69.2467 0 69.2467V46.7013Z" fill="#AE7CAA"/>
<path fill-rule="evenodd" clip-rule="evenodd" d="M0 46.7013C6.26109 46.7013 11.3333 51.7467 11.3333 57.974C5.06846 57.974 0 52.9384 0 46.7013Z" fill="#AA75A5"/>
<path fill-rule="evenodd" clip-rule="evenodd" d="M45.2013 68.9782C45.2013 62.8248 40.185 57.8308 34 57.8308C34 51.6826 39.0163 46.7013 45.2013 46.7013V68.9782Z" fill="#C68FB4"/>
<path fill-rule="evenodd" clip-rule="evenodd" d="M22.4422 68.2989H22.4041C22.4041 67.9882 22.4168 67.6797 22.4422 67.375V68.2989Z" fill="#A06A9F"/>
<path fill-rule="evenodd" clip-rule="evenodd" d="M44.7993 68.2989H22.4423V67.375C22.9138 61.6534 27.7283 57.1515 33.598 57.1515C33.598 63.3094 38.6143 68.2989 44.7993 68.2989Z" fill="#9E669C"/>
<path fill-rule="evenodd" clip-rule="evenodd" d="M44.7993 68.2989C38.6143 68.2989 33.598 63.3094 33.598 57.1515C39.783 57.1515 44.7993 62.1454 44.7993 68.2989Z" fill="#A3699E"/>
<path fill-rule="evenodd" clip-rule="evenodd" d="M0 24.1558H45.3333V46.7013H68V0H0V24.1558Z" fill="#682A7A"/>
<path fill-rule="evenodd" clip-rule="evenodd" d="M56.9503 124C63.0529 124 68 118.79 68 112.363C68 112.363 45.3333 105.936 45.3333 112.363C45.3333 118.79 50.8477 124 56.9503 124Z" fill="#E1C5D5"/>
<path fill-rule="evenodd" clip-rule="evenodd" d="M67.2221 112.463C67.2213 112.447 67.2206 112.43 67.2198 112.414V90.5906H67.2221V112.463Z" fill="#D2A9C4"/>
<path fill-rule="evenodd" clip-rule="evenodd" d="M68 112.727L45.3455 112.858C49.1834 98.1141 49.087 90.6917 45.0563 90.5906L68 90.5757V112.727Z" fill="#D2AAC4"/>
<path fill-rule="evenodd" clip-rule="evenodd" d="M67.2199 112.877H67.1526C67.1526 112.875 67.1526 112.873 67.1526 112.87H50.5868H67.2199V112.877Z" fill="#E1C5D5"/>
<path fill-rule="evenodd" clip-rule="evenodd" d="M50.5868 112.884H45.0257C45.0563 112.883 45.0855 112.881 45.1161 112.878L50.5868 112.884Z" fill="#D6AFC8"/>
<path fill-rule="evenodd" clip-rule="evenodd" d="M67.2199 112.87H50.5868L45.1161 112.868C45.1946 112.865 45.2731 112.862 45.3508 112.859H67.2199V112.87Z" fill="#D5AFC8"/>
<path fill-rule="evenodd" clip-rule="evenodd" d="M67.2288 112.859H67.2221V112.463C67.2266 112.594 67.2288 112.726 67.2288 112.859Z" fill="#FFFFFE"/>
<path fill-rule="evenodd" clip-rule="evenodd" d="M67.2221 112.859H67.2198V112.414C67.2206 112.43 67.2213 112.447 67.2221 112.463V112.859Z" fill="#E4CAD9"/>
<path fill-rule="evenodd" clip-rule="evenodd" d="M44.8291 112.871H44.7683V112.867H44.7831V112.871H44.8291Z" fill="#FFFFFE"/>
<path fill-rule="evenodd" clip-rule="evenodd" d="M44.7683 112.867H44.7827V112.859H44.7683V112.867Z" fill="#FFFFFE"/>
<path fill-rule="evenodd" clip-rule="evenodd" d="M44.8284 112.871H44.7821V112.867H44.8284C44.8284 112.869 44.8284 112.869 44.8284 112.871Z" fill="#ECDBE4"/>
<path fill-rule="evenodd" clip-rule="evenodd" d="M44.8284 112.868H44.7821V112.859H44.8284C44.8284 112.862 44.8284 112.865 44.8284 112.868Z" fill="#EDDBE4"/>
<path fill-rule="evenodd" clip-rule="evenodd" d="M44.7679 112.874V112.87H44.8285C44.8285 112.871 44.8285 112.872 44.8285 112.873C44.8088 112.873 44.7876 112.874 44.7679 112.874Z" fill="#FFFFFE"/>
<path fill-rule="evenodd" clip-rule="evenodd" d="M45.0257 112.87H44.8277C44.8277 112.869 44.8277 112.869 44.8277 112.867H45.1161C45.0855 112.869 45.0564 112.87 45.0257 112.87Z" fill="#DFC2D4"/>
<path fill-rule="evenodd" clip-rule="evenodd" d="M45.1161 112.868H44.8277C44.8277 112.865 44.8277 112.862 44.8277 112.859H45.3508C45.2731 112.862 45.1946 112.865 45.1161 112.868Z" fill="#E0C2D4"/>
<path fill-rule="evenodd" clip-rule="evenodd" d="M44.8277 112.873C44.8277 112.872 44.8277 112.871 44.8277 112.87H45.0257C44.96 112.872 44.8942 112.873 44.8277 112.873Z" fill="#E8D2DE"/>
<path fill-rule="evenodd" clip-rule="evenodd" d="M44.7679 112.859V90.5869C44.8643 90.5869 44.9607 90.5876 45.0563 90.5906H44.7821V112.291C44.7724 112.48 44.7679 112.668 44.7679 112.859Z" fill="#E4CAD9"/>
<path fill-rule="evenodd" clip-rule="evenodd" d="M44.7821 112.291V90.5906H45.0563C51.1024 90.7422 55.955 95.6619 55.9662 101.708C49.9755 101.722 45.0788 106.402 44.7821 112.291Z" fill="#DDBED1"/>
<path fill-rule="evenodd" clip-rule="evenodd" d="M44.7821 112.859H44.7679C44.7679 112.668 44.7724 112.48 44.7821 112.291V112.859Z" fill="#EFDEE5"/>
<path fill-rule="evenodd" clip-rule="evenodd" d="M45.3508 112.859H44.7821V112.291C45.0788 106.402 49.9755 101.722 55.9662 101.708C55.9662 101.714 55.9662 101.721 55.9662 101.728C55.9662 107.688 51.266 112.556 45.3508 112.859Z" fill="#EAD6E1"/>
</svg>
